SplineFontDB: 3.0
FontName: Jura-Medium
FullName: Jura Medium
FamilyName: Jura
Weight: Medium
Copyright: Copyright 2009, 2010, 2011 by Daniel Johnson.  Released under the terms of the Open Font License v1.1.
Version: 2.5.1
ItalicAngle: 0
UnderlinePosition: -102
UnderlineWidth: 51
Ascent: 819
Descent: 205
LayerCount: 2
Layer: 0 1 "Back"  1
Layer: 1 1 "Fore"  0
XUID: [1021 288 713564382 13921326]
FSType: 0
OS2Version: 2
OS2_WeightWidthSlopeOnly: 0
OS2_UseTypoMetrics: 1
CreationTime: 1232036477
ModificationTime: 1304075209
PfmFamily: 33
TTFWeight: 500
TTFWidth: 5
LineGap: 0
VLineGap: 0
Panose: 2 0 6 3 0 0 0 0 0 0
OS2TypoAscent: 827
OS2TypoAOffset: 0
OS2TypoDescent: -210
OS2TypoDOffset: 0
OS2TypoLinegap: 0
OS2WinAscent: 827
OS2WinAOffset: 0
OS2WinDescent: 210
OS2WinDOffset: 0
HheadAscent: 827
HheadAOffset: 0
HheadDescent: -210
HheadDOffset: 0
OS2SubXSize: 665
OS2SubYSize: 716
OS2SubXOff: 0
OS2SubYOff: 143
OS2SupXSize: 665
OS2SupYSize: 716
OS2SupXOff: 0
OS2SupYOff: 491
OS2StrikeYSize: 51
OS2StrikeYPos: 265
OS2Vendor: 'PfEd'
OS2CodePages: 2000009f.00000000
OS2UnicodeRanges: a00002ef.5000204b.00000020.00000000
Lookup: 260 0 0 "'abvm' Above Base Mark lookup 0"  {"'abvm' Above Base Mark lookup 0 subtable"  } ['abvm' ('DFLT' <'dflt' > 'cyrl' <'dflt' > 'grek' <'dflt' > 'latn' <'dflt' > ) ]
Lookup: 260 0 0 "'blwm' Below Base Mark lookup 1"  {"'blwm' Below Base Mark lookup 1 subtable"  } ['blwm' ('DFLT' <'dflt' > 'cyrl' <'dflt' > 'grek' <'dflt' > 'latn' <'dflt' > ) ]
Lookup: 258 0 0 "'kern' Horizontal Kerning in Latin lookup 2"  {"'kern' Horizontal Kerning in Latin lookup 2 per glyph data 0"  "'kern' Horizontal Kerning in Latin lookup 2 kerning class 1"  } ['kern' ('latn' <'dflt' > ) ]
MarkAttachClasses: 1
DEI: 91125
KernClass2: 158+ 128 "'kern' Horizontal Kerning in Latin lookup 2 kerning class 1" 
 5 space
 2 Xi
 29 Alphatonos Alpha Delta Lambda
 5 Gamma
 20 Epsilontonos Epsilon
 4 Zeta
 49 Etatonos Iotatonos Eta Iota Mu Nu Pi Iotadieresis
 5 Kappa

StartChar: .notdef
Encoding: 65536 -1 0
Width: 538
Flags: W
LayerCount: 2
Fore
SplineSet
156 546 m 2,0,-1
 156 130 l 2,1,2
 156 98 156 98 167.5 84.5 c 128,-1,3
 179 71 179 71 210 71 c 2,4,-1
 328 71 l 2,5,6
 359 71 359 71 370.5 84.5 c 128,-1,7
 382 98 382 98 382 130 c 2,8,-1
 382 546 l 2,9,10
 382 578 382 578 370.5 592 c 128,-1,11
 359 606 359 606 328 606 c 2,12,-1
 210 606 l 2,13,14
 179 606 179 606 167.5 592 c 128,-1,15
 156 578 156 578 156 546 c 2,0,-1
85 0 m 1,16,-1
 85 678 l 1,17,-1
 453 678 l 1,18,-1
 453 0 l 1,19,-1
 85 0 l 1,16,-1
EndSplineSet
EndChar

StartChar: exclam
Encoding: 33 33 4
Width: 253
GlyphClass: 2
Flags: W
LayerCount: 2
Fore
SplineSet
70 29 m 128,-1,1
 70 48 70 48 89 61.5 c 128,-1,2
 108 75 108 75 126 75 c 0,3,4
 145 75 145 75 164 61.5 c 128,-1,5
 183 48 183 48 183 29 c 0,6,7
 183 9 183 9 164.5 -4 c 128,-1,8
 146 -17 146 -17 126 -17 c 0,9,10
 107 -17 107 -17 88.5 -3.5 c 128,-1,0
 70 10 70 10 70 29 c 128,-1,1
157 616 m 2,11,-1
 157 197 l 2,12,13
 157 159 157 159 125 159 c 0,14,15
 95 159 95 159 95 197 c 2,16,-1
 95 616 l 2,17,18
 95 654 95 654 126 654 c 128,-1,19
 157 654 157 654 157 616 c 2,11,-1
EndSplineSet
EndChar

StartChar: quotedbl
Encoding: 34 34 5
Width: 305
GlyphClass: 2
Flags: W
LayerCount: 2
Fore
SplineSet
172 466 m 2,0,-1
 172 615 l 2,1,2
 172 653 172 653 203 653 c 128,-1,3
 234 653 234 653 234 615 c 2,4,-1
 234 466 l 2,5,6
 234 428 234 428 202 428 c 0,7,8
 172 428 172 428 172 466 c 2,0,-1
71 466 m 2,9,-1
 71 615 l 2,10,11
 71 653 71 653 102 653 c 0,12,13
 132 653 132 653 132 615 c 2,14,-1
 132 466 l 2,15,16
 132 428 132 428 101 428 c 0,17,18
 71 428 71 428 71 466 c 2,9,-1
EndSplineSet
EndChar

StartChar: numbersign
Encoding: 35 35 6
Width: 613
GlyphClass: 2
Flags: W
LayerCount: 2
Fore
SplineSet
350 587 m 2,0,-1
 295 441 l 1,1,-1
 409 441 l 1,2,-1
 469 608 l 1,3,4
 480 635 480 635 501 635 c 0,5,6
 515 635 515 635 523.5 625.5 c 128,-1,7
 532 616 532 616 532 604 c 0,8,9
 532 596 532 596 529 586 c 2,10,-1
 475 441 l 1,11,-1
 531 441 l 2,12,13
 569 441 569 441 569 410 c 128,-1,14
 569 379 569 379 531 379 c 2,15,-1
 453 379 l 1,16,-1
 408 257 l 1,17,-1
 500 257 l 2,18,19
 538 257 538 257 538 225 c 0,20,21
 538 195 538 195 500 195 c 2,22,-1
 385 195 l 1,23,-1
 325 28 l 2,24,25
 315 1 315 1 293 1 c 0,26,27
 262 1 262 1 262 32 c 0,28,29
 262 40 262 40 265 50 c 2,30,-1
 320 195 l 1,31,-1
 206 195 l 1,32,-1
 146 28 l 2,33,34
 136 1 136 1 114 1 c 0,35,36
 100 1 100 1 92 9.5 c 128,-1,37
 84 18 84 18 84 31 c 0,38,39
 84 40 84 40 87 49 c 2,40,-1
 141 195 l 1,41,-1
 82 195 l 2,42,43
 44 195 44 195 44 226 c 128,-1,44
 44 257 44 257 82 257 c 2,45,-1
 163 257 l 1,46,-1
 208 379 l 1,47,-1
 112 379 l 2,48,49
 75 379 75 379 75 411 c 0,50,51
 75 441 75 441 112 441 c 2,52,-1
 231 441 l 1,53,-1
 291 608 l 1,54,55
 304 635 304 635 322 635 c 0,56,57
 336 635 336 635 344.5 627 c 128,-1,58
 353 619 353 619 353 605 c 0,59,60
 353 594 353 594 350 587 c 2,0,-1
274 379 m 1,61,-1
 229 257 l 1,62,-1
 341 257 l 1,63,-1
 386 379 l 1,64,-1
 274 379 l 1,61,-1
EndSplineSet
EndChar

StartChar: dollar
Encoding: 36 36 7
Width: 608
GlyphClass: 2
Flags: W
LayerCount: 2
Fore
SplineSet
166 87 m 2,0,1
 103 87 103 87 82 118 c 128,-1,2
 61 149 61 149 61 202 c 0,3,4
 61 240 61 240 92 240 c 128,-1,5
 123 240 123 240 123 204 c 0,6,7
 123 171 123 171 134 160 c 128,-1,8
 145 149 145 149 173 149 c 2,9,-1
 278 149 l 1,10,-1
 278 296 l 1,11,-1
 195 296 l 2,12,13
 61 296 61 296 61 430 c 0,14,15
 61 490 61 490 91.5 522 c 128,-1,16
 122 554 122 554 195 554 c 2,17,-1
 278 554 l 1,18,-1
 278 606 l 2,19,20
 278 643 278 643 308 643 c 0,21,22
 340 643 340 643 340 607 c 2,23,-1
 340 554 l 1,24,-1
 442 554 l 2,25,26
 505 554 505 554 526 524 c 128,-1,27
 547 494 547 494 547 442 c 0,28,29
 547 403 547 403 516 403 c 128,-1,30
 485 403 485 403 485 440 c 0,31,32
 485 472 485 472 474.5 482 c 128,-1,33
 464 492 464 492 435 492 c 2,34,-1
 340 492 l 1,35,-1
 340 358 l 1,36,-1
 416 358 l 2,37,38
 547 358 547 358 547 218 c 0,39,40
 547 87 547 87 414 87 c 2,41,-1
 340 87 l 1,42,-1
 340 30 l 2,43,44
 340 -7 340 -7 307 -7 c 0,45,46
 278 -7 278 -7 278 28 c 2,47,-1
 278 87 l 1,48,-1
 166 87 l 2,0,1
431 296 m 2,49,-1
 340 296 l 1,50,-1
 340 149 l 1,51,-1
 431 149 l 2,52,53
 485 149 485 149 485 214 c 0,54,55
 485 250 485 250 470 273 c 128,-1,56
 455 296 455 296 431 296 c 2,49,-1
177 358 m 2,57,-1
 278 358 l 1,58,-1
 278 492 l 1,59,-1
 177 492 l 2,60,61
 150 492 150 492 136.5 480 c 128,-1,62
 123 468 123 468 123 434 c 0,63,64
 123 397 123 397 138 377.5 c 128,-1,65
 153 358 153 358 177 358 c 2,57,-1
EndSplineSet
EndChar

StartChar: percent
Encoding: 37 37 8
Width: 578
GlyphClass: 2
Flags: W
LayerCount: 2
Fore
SplineSet
386 183 m 128,-1,1
 386 173 386 173 393.5 165.5 c 128,-1,2
 401 158 401 158 411 158 c 128,-1,3
 421 158 421 158 428.5 165.5 c 128,-1,4
 436 173 436 173 436 183 c 0,5,6
 436 194 436 194 429 201 c 128,-1,7
 422 208 422 208 411 208 c 0,8,9
 401 208 401 208 393.5 200.5 c 128,-1,0
 386 193 386 193 386 183 c 128,-1,1
317 183 m 128,-1,11
 317 219 317 219 345 244.5 c 128,-1,12
 373 270 373 270 411 270 c 0,13,14
 447 270 447 270 472.5 244.5 c 128,-1,15
 498 219 498 219 498 183 c 128,-1,16
 498 147 498 147 472.5 121.5 c 128,-1,17
 447 96 447 96 411 96 c 0,18,19
 373 96 373 96 345 121.5 c 128,-1,10
 317 147 317 147 317 183 c 128,-1,11
143 461 m 128,-1,21
 143 451 143 451 151 443.5 c 128,-1,22
 159 436 159 436 168 436 c 0,23,24
 176 436 176 436 184.5 443.5 c 128,-1,25
 193 451 193 451 193 461 c 128,-1,26
 193 471 193 471 184.5 478.5 c 128,-1,27
 176 486 176 486 168 486 c 0,28,29
 158 486 158 486 150.5 478.5 c 128,-1,20
 143 471 143 471 143 461 c 128,-1,21
80 461 m 128,-1,31
 80 497 80 497 105.5 522.5 c 128,-1,32
 131 548 131 548 168 548 c 0,33,34
 206 548 206 548 233.5 522.5 c 128,-1,35
 261 497 261 497 261 461 c 128,-1,36
 261 425 261 425 233.5 399.5 c 128,-1,37
 206 374 206 374 168 374 c 0,38,39
 131 374 131 374 105.5 399.5 c 128,-1,30
 80 425 80 425 80 461 c 128,-1,31
480 528 m 0,40,41
 490 528 490 528 500 519.5 c 128,-1,42
 510 511 510 511 510 498 c 0,43,44
 510 487 510 487 497 471 c 1,45,-1
 126 124 l 2,46,47
 112 111 112 111 98 111 c 0,48,49
 88 111 88 111 78 119.5 c 128,-1,50
 68 128 68 128 68 141 c 0,51,52
 68 155 68 155 82 169 c 2,53,-1
 453 515 l 1,54,55
 469 528 469 528 480 528 c 0,40,41
EndSplineSet
EndChar

StartChar: ampersand
Encoding: 38 38 9
Width: 520
GlyphClass: 2
Flags: W
LayerCount: 2
Fore
SplineSet
358 85 m 1,0,-1
 162 312 l 1,1,2
 102 271 102 271 102 182 c 0,3,4
 102 109 102 109 148.5 76 c 128,-1,5
 195 43 195 43 254 43 c 0,6,7
 310 43 310 43 358 85 c 1,0,-1
397 528 m 128,-1,9
 397 516 397 516 388 507 c 128,-1,10
 379 498 379 498 366 498 c 128,-1,11
 353 498 353 498 340.5 513 c 128,-1,12
 328 528 328 528 319 546.5 c 128,-1,13
 310 565 310 565 291 580 c 128,-1,14
 272 595 272 595 248 595 c 0,15,16
 203 595 203 595 166 562.5 c 128,-1,17
 129 530 129 530 129 476 c 0,18,19
 129 442 129 442 166 400 c 2,20,-1
 397 133 l 1,21,22
 422 174 422 174 422 227 c 0,23,24
 422 268 422 268 454 268 c 0,25,26
 483 268 483 268 483 227 c 0,27,28
 483 148 483 148 439 84 c 1,29,-1
 483 35 l 2,30,31
 491 26 491 26 491 11 c 128,-1,32
 491 -4 491 -4 482 -10.5 c 128,-1,33
 473 -17 473 -17 464 -17 c 0,34,35
 446 -17 446 -17 430 1 c 2,36,-1
 398 38 l 1,37,38
 332 -19 332 -19 254 -19 c 0,39,40
 219 -19 219 -19 184 -8 c 128,-1,41
 149 3 149 3 115.5 25 c 128,-1,42
 82 47 82 47 61 88 c 128,-1,43
 40 129 40 129 40 182 c 0,44,45
 40 231 40 231 60 279 c 128,-1,46
 80 327 80 327 122 358 c 1,47,-1
 114 367 l 1,48,49
 65 426 65 426 65 476 c 0,50,51
 65 555 65 555 122.5 606 c 128,-1,52
 180 657 180 657 248 657 c 0,53,54
 291 657 291 657 328 627.5 c 128,-1,55
 365 598 365 598 381 569 c 128,-1,8
 397 540 397 540 397 528 c 128,-1,9
EndSplineSet
EndChar

StartChar: quotesingle
Encoding: 39 39 10
Width: 203
GlyphClass: 2
Flags: W
LayerCount: 2
Fore
SplineSet
71 466 m 2,0,-1
 71 615 l 2,1,2
 71 653 71 653 102 653 c 0,3,4
 132 653 132 653 132 615 c 2,5,-1
 132 466 l 2,6,7
 132 428 132 428 101 428 c 0,8,9
 71 428 71 428 71 466 c 2,0,-1
EndSplineSet
EndChar

StartChar: parenleft
Encoding: 40 40 11
Width: 260
GlyphClass: 2
Flags: W
LayerCount: 2
Fore
SplineSet
135 133 m 2,0,1
 135 83 135 83 136 61.5 c 128,-1,2
 137 40 137 40 147 26.5 c 128,-1,3
 157 13 157 13 169 11.5 c 128,-1,4
 181 10 181 10 213 10 c 1,5,-1
 213 -52 l 1,6,7
 182 -52 182 -52 164.5 -50 c 128,-1,8
 147 -48 147 -48 127 -38 c 128,-1,9
 107 -28 107 -28 97 -8.5 c 128,-1,10
 87 11 87 11 80 46 c 128,-1,11
 73 81 73 81 73 133 c 2,12,-1
 73 503 l 2,13,14
 73 555 73 555 80 590 c 128,-1,15
 87 625 87 625 97 644.5 c 128,-1,16
 107 664 107 664 127 674 c 128,-1,17
 147 684 147 684 164.5 686 c 128,-1,18
 182 688 182 688 213 688 c 1,19,-1
 213 626 l 1,20,21
 181 626 181 626 169 624.5 c 128,-1,22
 157 623 157 623 147 609.5 c 128,-1,23
 137 596 137 596 136 574.5 c 128,-1,24
 135 553 135 553 135 503 c 2,25,-1
 135 133 l 2,0,1
EndSplineSet
EndChar

StartChar: parenright
Encoding: 41 41 12
Width: 260
GlyphClass: 2
Flags: W
LayerCount: 2
Fore
SplineSet
125 133 m 2,0,-1
 125 503 l 2,1,2
 125 553 125 553 124 574.5 c 128,-1,3
 123 596 123 596 113 609.5 c 128,-1,4
 103 623 103 623 91 624.5 c 128,-1,5
 79 626 79 626 47 626 c 1,6,-1
 47 688 l 1,7,8
 78 688 78 688 95.5 686 c 128,-1,9
 113 684 113 684 133 674 c 128,-1,10
 153 664 153 664 163 644.5 c 128,-1,11
 173 625 173 625 180 590 c 128,-1,12
 187 555 187 555 187 503 c 2,13,-1
 187 133 l 2,14,15
 187 81 187 81 180 46 c 128,-1,16
 173 11 173 11 163 -8.5 c 128,-1,17
 153 -28 153 -28 133 -38 c 128,-1,18
 113 -48 113 -48 95.5 -50 c 128,-1,19
 78 -52 78 -52 47 -52 c 1,20,-1
 47 10 l 1,21,22
 79 10 79 10 91 11.5 c 128,-1,23
 103 13 103 13 113 26.5 c 128,-1,24
 123 40 123 40 124 61.5 c 128,-1,25
 125 83 125 83 125 133 c 2,0,-1
EndSplineSet
EndChar

StartChar: asterisk
Encoding: 42 42 13
Width: 405
GlyphClass: 2
Flags: W
LayerCount: 2
Fore
SplineSet
233 437 m 1,0,-1
 233 374 l 2,1,2
 233 336 233 336 202 336 c 128,-1,3
 171 336 171 336 171 374 c 2,4,-1
 171 437 l 1,5,6
 161 432 161 432 146 423 c 0,7,8
 103 399 103 399 93 399 c 0,9,10
 81 399 81 399 72.5 408.5 c 128,-1,11
 64 418 64 418 64 429 c 0,12,13
 64 447 64 447 84 459 c 2,14,-1
 140 492 l 1,15,-1
 84 523 l 2,16,17
 64 534 64 534 64 553 c 0,18,19
 64 561 64 561 71 572 c 128,-1,20
 78 583 78 583 93 583 c 0,21,22
 103 583 103 583 171 545 c 1,23,-1
 171 608 l 2,24,25
 171 646 171 646 203 646 c 0,26,27
 233 646 233 646 233 608 c 2,28,-1
 233 545 l 1,29,30
 243 550 243 550 258 559 c 0,31,32
 301 583 301 583 311 583 c 0,33,34
 324 583 324 583 332.5 573.5 c 128,-1,35
 341 564 341 564 341 553 c 0,36,37
 341 536 341 536 320 523 c 1,38,-1
 265 492 l 1,39,-1
 320 459 l 2,40,41
 341 446 341 446 341 429 c 0,42,43
 341 421 341 421 333.5 410 c 128,-1,44
 326 399 326 399 311 399 c 0,45,46
 301 399 301 399 233 437 c 1,0,-1
EndSplineSet
EndChar

StartChar: plus
Encoding: 43 43 14
Width: 525
GlyphClass: 2
Flags: W
LayerCount: 2
Fore
SplineSet
231 20 m 2,0,-1
 231 199 l 1,1,-1
 72 199 l 2,2,3
 36 199 36 199 36 231 c 0,4,5
 36 243 36 243 44.5 252.5 c 128,-1,6
 53 262 53 262 72 262 c 2,7,-1
 231 262 l 1,8,-1
 231 440 l 2,9,10
 231 478 231 478 263 478 c 0,11,12
 293 478 293 478 293 440 c 2,13,-1
 293 262 l 1,14,-1
 450 262 l 2,15,16
 489 262 489 262 489 229 c 0,17,18
 489 215 489 215 477.5 207 c 128,-1,19
 466 199 466 199 450 199 c 2,20,-1
 293 199 l 1,21,-1
 293 20 l 2,22,23
 293 -17 293 -17 262 -17 c 128,-1,24
 231 -17 231 -17 231 20 c 2,0,-1
EndSplineSet
EndChar

StartChar: comma
Encoding: 44 44 15
Width: 219
GlyphClass: 2
Flags: W
LayerCount: 2
Fore
SplineSet
145 20 m 1,0,-1
 105 -63 l 2,1,2
 92 -90 92 -90 75 -90 c 0,3,4
 48 -90 48 -90 48 -60 c 0,5,6
 48 -55 48 -55 51 -43 c 2,7,-1
 75 44 l 2,8,9
 83 71 83 71 105 71 c 0,10,11
 119 71 119 71 135 64 c 128,-1,12
 151 57 151 57 151 41 c 0,13,14
 151 30 151 30 145 20 c 1,0,-1
EndSplineSet
EndChar

StartChar: hyphen
Encoding: 45 45 16
Width: 466
GlyphClass: 2
Flags: W
LayerCount: 2
Fore
SplineSet
109 262 m 2,0,-1
 354 262 l 2,1,2
 393 262 393 262 393 229 c 0,3,4
 393 215 393 215 381.5 207 c 128,-1,5
 370 199 370 199 354 199 c 2,6,-1
 109 199 l 2,7,8
 73 199 73 199 73 231 c 0,9,10
 73 243 73 243 81.5 252.5 c 128,-1,11
 90 262 90 262 109 262 c 2,0,-1
EndSplineSet
EndChar

StartChar: period
Encoding: 46 46 17
Width: 239
GlyphClass: 2
Flags: W
LayerCount: 2
Fore
SplineSet
176 29 m 128,-1,1
 176 10 176 10 157.5 -3.5 c 128,-1,2
 139 -17 139 -17 120 -17 c 0,3,4
 100 -17 100 -17 82 -4 c 128,-1,5
 64 9 64 9 64 29 c 0,6,7
 64 48 64 48 82.5 61.5 c 128,-1,8
 101 75 101 75 120 75 c 0,9,10
 138 75 138 75 157 61.5 c 128,-1,0
 176 48 176 48 176 29 c 128,-1,1
EndSplineSet
EndChar

StartChar: slash
Encoding: 47 47 18
Width: 367
GlyphClass: 2
Flags: W
LayerCount: 2
Fore
SplineSet
322 606 m 1,0,-1
 104 8 l 2,1,2
 94 -18 94 -18 73 -18 c 0,3,4
 63 -18 63 -18 52.5 -11 c 128,-1,5
 42 -4 42 -4 42 11 c 0,6,7
 42 18 42 18 45 30 c 1,8,-1
 263 629 l 2,9,10
 273 655 273 655 293 655 c 0,11,12
 304 655 304 655 314.5 648 c 128,-1,13
 325 641 325 641 325 626 c 0,14,15
 325 621 325 621 322 606 c 1,0,-1
EndSplineSet
EndChar

StartChar: zero
Encoding: 48 48 19
Width: 592
GlyphClass: 2
Flags: W
LayerCount: 2
Fore
SplineSet
116 494 m 2,0,-1
 116 141 l 2,1,2
 116 110 116 110 148.5 83.5 c 128,-1,3
 181 57 181 57 230 57 c 2,4,-1
 362 57 l 2,5,6
 411 57 411 57 443.5 83.5 c 128,-1,7
 476 110 476 110 476 141 c 2,8,-1
 476 494 l 2,9,10
 476 525 476 525 443.5 551.5 c 128,-1,11
 411 578 411 578 362 578 c 2,12,-1
 230 578 l 2,13,14
 181 578 181 578 148.5 551.5 c 128,-1,15
 116 525 116 525 116 494 c 2,0,-1
538 156 m 2,16,17
 538 85 538 85 485.5 40 c 128,-1,18
 433 -5 433 -5 352 -5 c 2,19,-1
 240 -5 l 2,20,21
 159 -5 159 -5 106.5 40 c 128,-1,22
 54 85 54 85 54 156 c 2,23,-1
 54 480 l 2,24,25
 54 551 54 551 106.5 596 c 128,-1,26
 159 641 159 641 240 641 c 2,27,-1
 352 641 l 2,28,29
 433 641 433 641 485.5 596 c 128,-1,30
 538 551 538 551 538 480 c 2,31,-1
 538 156 l 2,16,17
EndSplineSet
EndChar

StartChar: one
Encoding: 49 49 20
Width: 592
GlyphClass: 2
Flags: W
LayerCount: 2
Fore
SplineSet
274 585 m 1,0,-1
 258 569 l 2,1,2
 242 554 242 554 225 554 c 0,3,4
 210 554 210 554 203 562.5 c 128,-1,5
 196 571 196 571 196 580 c 0,6,7
 196 595 196 595 212 610 c 2,8,-1
 273 671 l 1,9,10
 289 685 289 685 304 685 c 0,11,12
 315 685 315 685 325.5 677 c 128,-1,13
 336 669 336 669 336 652 c 2,14,-1
 336 29 l 2,15,16
 336 -7 336 -7 305 -7 c 128,-1,17
 274 -7 274 -7 274 29 c 2,18,-1
 274 585 l 1,0,-1
EndSplineSet
EndChar

StartChar: two
Encoding: 50 50 21
Width: 592
GlyphClass: 2
Flags: W
LayerCount: 2
Fore
SplineSet
538 458 m 0,0,1
 538 408 538 408 496 367.5 c 128,-1,2
 454 327 454 327 393 297 c 128,-1,3
 332 267 332 267 271 236 c 128,-1,4
 210 205 210 205 165 159.5 c 128,-1,5
 120 114 120 114 117 57 c 1,6,-1
 498 57 l 2,7,8
 538 57 538 57 538 25 c 0,9,10
 538 -5 538 -5 498 -5 c 2,11,-1
 55 -5 l 1,12,-1
 55 48 l 2,13,14
 55 100 55 100 78 143 c 128,-1,15
 101 186 101 186 138.5 215.5 c 128,-1,16
 176 245 176 245 221 269.5 c 128,-1,17
 266 294 266 294 310.5 315 c 128,-1,18
 355 336 355 336 392.5 356 c 128,-1,19
 430 376 430 376 453 401.5 c 128,-1,20
 476 427 476 427 476 457 c 0,21,22
 476 536 476 536 442 557.5 c 128,-1,23
 408 579 408 579 313 579 c 2,24,-1
 166 579 l 2,25,26
 137 579 137 579 127 567.5 c 128,-1,27
 117 556 117 556 117 524 c 0,28,29
 117 484 117 484 85 484 c 0,30,31
 55 484 55 484 55 524 c 0,32,33
 55 587 55 587 79.5 614 c 128,-1,34
 104 641 104 641 159 641 c 2,35,-1
 313 641 l 2,36,37
 429 641 429 641 483.5 604 c 128,-1,38
 538 567 538 567 538 458 c 0,0,1
EndSplineSet
EndChar

StartChar: three
Encoding: 51 51 22
Width: 592
GlyphClass: 2
Flags: W
LayerCount: 2
Fore
SplineSet
340 579 m 2,0,-1
 252 579 l 2,1,2
 204 579 204 579 160 562.5 c 128,-1,3
 116 546 116 546 116 522 c 0,4,5
 116 484 116 484 85 484 c 128,-1,6
 54 484 54 484 54 524 c 0,7,8
 54 571 54 571 105.5 606 c 128,-1,9
 157 641 157 641 245 641 c 2,10,-1
 328 641 l 2,11,12
 442 641 442 641 490 597.5 c 128,-1,13
 538 554 538 554 538 449 c 0,14,15
 538 417 538 417 499 381 c 128,-1,16
 460 345 460 345 419 326 c 1,17,18
 458 308 458 308 498 264.5 c 128,-1,19
 538 221 538 221 538 187 c 0,20,21
 538 82 538 82 490 38.5 c 128,-1,22
 442 -5 442 -5 328 -5 c 2,23,-1
 245 -5 l 2,24,25
 157 -5 157 -5 105.5 29.5 c 128,-1,26
 54 64 54 64 54 111 c 0,27,28
 54 152 54 152 85 152 c 128,-1,29
 116 152 116 152 116 114 c 0,30,31
 116 90 116 90 159.5 73.5 c 128,-1,32
 203 57 203 57 252 57 c 2,33,-1
 340 57 l 2,34,35
 418 57 418 57 447.5 85.5 c 128,-1,36
 477 114 477 114 477 169 c 0,37,38
 477 218 477 218 413 256 c 128,-1,39
 349 294 349 294 291 294 c 0,40,41
 245 294 245 294 245 326 c 0,42,43
 245 357 245 357 291 357 c 0,44,45
 355 357 355 357 416 388.5 c 128,-1,46
 477 420 477 420 477 468 c 0,47,48
 477 523 477 523 447.5 551 c 128,-1,49
 418 579 418 579 340 579 c 2,0,-1
EndSplineSet
EndChar

StartChar: four
Encoding: 52 52 23
Width: 592
GlyphClass: 2
Flags: W
LayerCount: 2
Fore
SplineSet
503 165 m 2,0,-1
 452 165 l 1,1,-1
 452 28 l 2,2,3
 452 -7 452 -7 421 -7 c 0,4,5
 388 -7 388 -7 388 28 c 2,6,-1
 388 165 l 1,7,-1
 52 165 l 1,8,-1
 52 234 l 1,9,-1
 377 641 l 1,10,-1
 452 641 l 1,11,-1
 452 227 l 1,12,-1
 503 227 l 2,13,14
 540 227 540 227 540 196 c 128,-1,15
 540 165 540 165 503 165 c 2,0,-1
388 564 m 1,16,-1
 119 227 l 1,17,-1
 388 227 l 1,18,-1
 388 564 l 1,16,-1
EndSplineSet
EndChar

StartChar: five
Encoding: 53 53 24
Width: 592
GlyphClass: 2
Flags: W
LayerCount: 2
Fore
SplineSet
88 131 m 0,0,1
 95 131 95 131 122.5 111.5 c 128,-1,2
 150 92 150 92 195.5 72.5 c 128,-1,3
 241 53 241 53 291 53 c 0,4,5
 379 53 379 53 425 100 c 128,-1,6
 471 147 471 147 471 231 c 0,7,8
 471 285 471 285 443.5 321 c 128,-1,9
 416 357 416 357 383.5 369.5 c 128,-1,10
 351 382 351 382 318 382 c 2,11,-1
 65 382 l 1,12,-1
 74 510 l 2,13,14
 79 583 79 583 106.5 612 c 128,-1,15
 134 641 134 641 194 641 c 2,16,-1
 454 641 l 2,17,18
 491 641 491 641 491 609 c 0,19,20
 491 579 491 579 454 579 c 2,21,-1
 187 579 l 2,22,23
 164 579 164 579 152.5 567.5 c 128,-1,24
 141 556 141 556 138 526 c 2,25,-1
 132 444 l 1,26,-1
 309 444 l 2,27,28
 398 444 398 444 465.5 386 c 128,-1,29
 533 328 533 328 533 231 c 0,30,31
 533 119 533 119 466 55 c 128,-1,32
 399 -9 399 -9 291 -9 c 0,33,34
 225 -9 225 -9 142 26.5 c 128,-1,35
 59 62 59 62 59 100 c 0,36,37
 59 112 59 112 68.5 121.5 c 128,-1,38
 78 131 78 131 88 131 c 0,0,1
EndSplineSet
EndChar

StartChar: six
Encoding: 54 54 25
Width: 592
GlyphClass: 2
Flags: W
LayerCount: 2
Fore
SplineSet
54 211 m 0,0,1
 54 297 54 297 76 372.5 c 128,-1,2
 98 448 98 448 130 496 c 128,-1,3
 162 544 162 544 198.5 579 c 128,-1,4
 235 614 235 614 262.5 629 c 128,-1,5
 290 644 290 644 304 644 c 0,6,7
 340 644 340 644 340 616 c 0,8,9
 340 597 340 597 314 585 c 0,10,11
 263 560 263 560 216.5 510.5 c 128,-1,12
 170 461 170 461 144 389 c 1,13,14
 207 433 207 433 296 433 c 0,15,16
 402 433 402 433 470 371 c 128,-1,17
 538 309 538 309 538 212 c 128,-1,18
 538 115 538 115 470 53 c 128,-1,19
 402 -9 402 -9 296 -9 c 128,-1,20
 190 -9 190 -9 122 52.5 c 128,-1,21
 54 114 54 114 54 211 c 0,0,1
116 212 m 128,-1,23
 116 139 116 139 163 96 c 128,-1,24
 210 53 210 53 296 53 c 128,-1,25
 382 53 382 53 429 96 c 128,-1,26
 476 139 476 139 476 212 c 128,-1,27
 476 285 476 285 428.5 328 c 128,-1,28
 381 371 381 371 296 371 c 128,-1,29
 211 371 211 371 163.5 328 c 128,-1,22
 116 285 116 285 116 212 c 128,-1,23
EndSplineSet
EndChar

StartChar: seven
Encoding: 55 55 26
Width: 592
GlyphClass: 2
Flags: W
LayerCount: 2
Fore
SplineSet
269 -10 m 0,0,1
 257 -10 257 -10 245 -3.5 c 128,-1,2
 233 3 233 3 233 19 c 0,3,4
 233 29 233 29 239 41 c 1,5,-1
 455 584 l 1,6,-1
 176 584 l 2,7,8
 146 584 146 584 135.5 571.5 c 128,-1,9
 125 559 125 559 125 529 c 0,10,11
 125 489 125 489 94 489 c 128,-1,12
 63 489 63 489 63 529 c 0,13,14
 63 592 63 592 88 619 c 128,-1,15
 113 646 113 646 168 646 c 2,16,-1
 498 646 l 2,17,18
 529 646 529 646 529 618 c 0,19,20
 529 608 529 608 525 596 c 2,21,-1
 302 19 l 2,22,23
 291 -10 291 -10 269 -10 c 0,0,1
EndSplineSet
EndChar

StartChar: eight
Encoding: 56 56 27
Width: 592
GlyphClass: 2
Flags: W
LayerCount: 2
Fore
SplineSet
116 177 m 0,0,1
 116 99 116 99 150 78 c 128,-1,2
 184 57 184 57 280 57 c 2,3,-1
 313 57 l 2,4,5
 409 57 409 57 442.5 78 c 128,-1,6
 476 99 476 99 476 177 c 128,-1,7
 476 255 476 255 442 276 c 128,-1,8
 408 297 408 297 313 297 c 2,9,-1
 280 297 l 2,10,11
 184 297 184 297 150 275.5 c 128,-1,12
 116 254 116 254 116 177 c 0,0,1
538 176 m 0,13,14
 538 68 538 68 483.5 31.5 c 128,-1,15
 429 -5 429 -5 313 -5 c 2,16,-1
 280 -5 l 2,17,18
 223 -5 223 -5 185 1.5 c 128,-1,19
 147 8 147 8 115.5 27 c 128,-1,20
 84 46 84 46 69 82.5 c 128,-1,21
 54 119 54 119 54 176 c 0,22,23
 54 284 54 284 114 326 c 1,24,25
 54 364 54 364 54 470 c 0,26,27
 54 517 54 517 65.5 549 c 128,-1,28
 77 581 77 581 94.5 599 c 128,-1,29
 112 617 112 617 143.5 626.5 c 128,-1,30
 175 636 175 636 204.5 638.5 c 128,-1,31
 234 641 234 641 280 641 c 2,32,-1
 313 641 l 2,33,34
 359 641 359 641 388 638.5 c 128,-1,35
 417 636 417 636 449 626.5 c 128,-1,36
 481 617 481 617 498 599 c 128,-1,37
 515 581 515 581 526.5 549 c 128,-1,38
 538 517 538 517 538 470 c 0,39,40
 538 362 538 362 479 326 c 1,41,42
 538 282 538 282 538 176 c 0,13,14
476 469 m 128,-1,44
 476 493 476 493 473 509.5 c 128,-1,45
 470 526 470 526 465.5 538.5 c 128,-1,46
 461 551 461 551 449.5 558.5 c 128,-1,47
 438 566 438 566 429 570 c 128,-1,48
 420 574 420 574 398.5 576 c 128,-1,49
 377 578 377 578 361 578.5 c 128,-1,50
 345 579 345 579 313 579 c 2,51,-1
 278 579 l 2,52,53
 241 579 241 579 224.5 578.5 c 128,-1,54
 208 578 208 578 184.5 575 c 128,-1,55
 161 572 161 572 152 565.5 c 128,-1,56
 143 559 143 559 132.5 546.5 c 128,-1,57
 122 534 122 534 119 515.5 c 128,-1,58
 116 497 116 497 116 469 c 0,59,60
 116 436 116 436 122.5 416 c 128,-1,61
 129 396 129 396 138 384 c 128,-1,62
 147 372 147 372 171 366.5 c 128,-1,63
 195 361 195 361 215.5 360 c 128,-1,64
 236 359 236 359 280 359 c 2,65,-1
 313 359 l 2,66,67
 345 359 345 359 360.5 359.5 c 128,-1,68
 376 360 376 360 397.5 362 c 128,-1,69
 419 364 419 364 428.5 368 c 128,-1,70
 438 372 438 372 449.5 379.5 c 128,-1,71
 461 387 461 387 465.5 399.5 c 128,-1,72
 470 412 470 412 473 428.5 c 128,-1,43
 476 445 476 445 476 469 c 128,-1,44
EndSplineSet
EndChar

StartChar: nine
Encoding: 57 57 28
Width: 592
GlyphClass: 2
Flags: W
LayerCount: 2
Fore
SplineSet
54 469 m 0,0,1
 54 514 54 514 74 547.5 c 128,-1,2
 94 581 94 581 121.5 598.5 c 128,-1,3
 149 616 149 616 188 626 c 128,-1,4
 227 636 227 636 255 638.5 c 128,-1,5
 283 641 283 641 313 641 c 0,6,7
 538 641 538 641 538 468 c 0,8,9
 538 362 538 362 506 270 c 128,-1,10
 474 178 474 178 421.5 116.5 c 128,-1,11
 369 55 369 55 302 19.5 c 128,-1,12
 235 -16 235 -16 165 -16 c 0,13,14
 129 -16 129 -16 129 16 c 0,15,16
 129 47 129 47 165 47 c 0,17,18
 200 47 200 47 241 63 c 128,-1,19
 282 79 282 79 325.5 110 c 128,-1,20
 369 141 369 141 406 197 c 128,-1,21
 443 253 443 253 460 324 c 1,22,23
 409 297 409 297 313 297 c 0,24,25
 54 297 54 297 54 469 c 0,0,1
313 579 m 0,26,27
 116 579 116 579 116 469 c 0,28,29
 116 433 116 433 133 409.5 c 128,-1,30
 150 386 150 386 182 376 c 128,-1,31
 214 366 214 366 243 362.5 c 128,-1,32
 272 359 272 359 313 359 c 0,33,34
 403 359 403 359 439.5 386.5 c 128,-1,35
 476 414 476 414 476 468 c 128,-1,36
 476 522 476 522 438.5 550.5 c 128,-1,37
 401 579 401 579 313 579 c 0,26,27
EndSplineSet
EndChar

StartChar: colon
Encoding: 58 58 29
Width: 258
GlyphClass: 2
Flags: W
LayerCount: 2
Fore
SplineSet
185 80 m 128,-1,1
 185 61 185 61 166.5 47.5 c 128,-1,2
 148 34 148 34 129 34 c 0,3,4
 109 34 109 34 91 47 c 128,-1,5
 73 60 73 60 73 80 c 0,6,7
 73 99 73 99 91.5 112.5 c 128,-1,8
 110 126 110 126 129 126 c 0,9,10
 147 126 147 126 166 112.5 c 128,-1,0
 185 99 185 99 185 80 c 128,-1,1
185 433 m 128,-1,12
 185 414 185 414 166.5 400.5 c 128,-1,13
 148 387 148 387 129 387 c 0,14,15
 109 387 109 387 91 400 c 128,-1,16
 73 413 73 413 73 433 c 0,17,18
 73 452 73 452 91.5 465.5 c 128,-1,19
 110 479 110 479 129 479 c 0,20,21
 147 479 147 479 166 465.5 c 128,-1,11
 185 452 185 452 185 433 c 128,-1,12
EndSplineSet
EndChar

StartChar: semicolon
Encoding: 59 59 30
Width: 261
GlyphClass: 2
Flags: W
LayerCount: 2
Fore
SplineSet
177 71 m 1,0,-1
 137 -12 l 2,1,2
 124 -39 124 -39 107 -39 c 0,3,4
 80 -39 80 -39 80 -9 c 0,5,6
 80 -4 80 -4 83 8 c 2,7,-1
 107 95 l 2,8,9
 115 122 115 122 137 122 c 0,10,11
 151 122 151 122 167 115 c 128,-1,12
 183 108 183 108 183 92 c 0,13,14
 183 81 183 81 177 71 c 1,0,-1
185 433 m 128,-1,16
 185 414 185 414 166.5 400.5 c 128,-1,17
 148 387 148 387 129 387 c 0,18,19
 109 387 109 387 91 400 c 128,-1,20
 73 413 73 413 73 433 c 0,21,22
 73 452 73 452 91.5 465.5 c 128,-1,23
 110 479 110 479 129 479 c 0,24,25
 147 479 147 479 166 465.5 c 128,-1,15
 185 452 185 452 185 433 c 128,-1,16
EndSplineSet
EndChar

StartChar: less
Encoding: 60 60 31
Width: 539
GlyphClass: 2
Flags: W
LayerCount: 2
Fore
SplineSet
417 92 m 2,0,-1
 53 302 l 2,1,2
 33 314 33 314 33 333 c 0,3,4
 33 350 33 350 53 362 c 2,5,-1
 417 572 l 2,6,7
 430 579 430 579 440 579 c 0,8,9
 453 579 453 579 461.5 571.5 c 128,-1,10
 470 564 470 564 470 551 c 0,11,12
 470 531 470 531 448 519 c 2,13,-1
 125 333 l 1,14,-1
 447 145 l 2,15,16
 470 131 470 131 470 116 c 0,17,18
 470 107 470 107 463 95.5 c 128,-1,19
 456 84 456 84 441 84 c 0,20,21
 429 84 429 84 417 92 c 2,0,-1
EndSplineSet
EndChar

StartChar: equal
Encoding: 61 61 32
Width: 478
GlyphClass: 2
Flags: W
LayerCount: 2
Fore
SplineSet
115 415 m 2,0,-1
 360 415 l 2,1,2
 399 415 399 415 399 382 c 0,3,4
 399 368 399 368 387.5 360 c 128,-1,5
 376 352 376 352 360 352 c 2,6,-1
 115 352 l 2,7,8
 79 352 79 352 79 384 c 0,9,10
 79 396 79 396 87.5 405.5 c 128,-1,11
 96 415 96 415 115 415 c 2,0,-1
115 312 m 2,12,-1
 360 312 l 2,13,14
 399 312 399 312 399 279 c 0,15,16
 399 265 399 265 387.5 257 c 128,-1,17
 376 249 376 249 360 249 c 2,18,-1
 115 249 l 2,19,20
 79 249 79 249 79 281 c 0,21,22
 79 293 79 293 87.5 302.5 c 128,-1,23
 96 312 96 312 115 312 c 2,12,-1
EndSplineSet
EndChar

StartChar: greater
Encoding: 62 62 33
Width: 539
GlyphClass: 2
Flags: W
LayerCount: 2
Fore
SplineSet
122 92 m 2,0,1
 110 84 110 84 98 84 c 0,2,3
 83 84 83 84 76 95.5 c 128,-1,4
 69 107 69 107 69 116 c 0,5,6
 69 131 69 131 92 145 c 2,7,-1
 414 333 l 1,8,-1
 91 519 l 2,9,10
 69 531 69 531 69 551 c 0,11,12
 69 564 69 564 77.5 571.5 c 128,-1,13
 86 579 86 579 99 579 c 0,14,15
 109 579 109 579 122 572 c 2,16,-1
 486 362 l 2,17,18
 506 350 506 350 506 333 c 0,19,20
 506 314 506 314 486 302 c 2,21,-1
 122 92 l 2,0,1
EndSplineSet
EndChar

StartChar: question
Encoding: 63 63 34
Width: 545
GlyphClass: 2
Flags: W
LayerCount: 2
Fore
SplineSet
312 29 m 128,-1,1
 312 10 312 10 293.5 -3.5 c 128,-1,2
 275 -17 275 -17 256 -17 c 0,3,4
 236 -17 236 -17 218 -4 c 128,-1,5
 200 9 200 9 200 29 c 0,6,7
 200 48 200 48 218.5 61.5 c 128,-1,8
 237 75 237 75 256 75 c 0,9,10
 274 75 274 75 293 61.5 c 128,-1,0
 312 48 312 48 312 29 c 128,-1,1
256 156 m 0,11,12
 244 156 244 156 234.5 164.5 c 128,-1,13
 225 173 225 173 225 194 c 2,14,-1
 225 342 l 1,15,-1
 386 386 l 2,16,17
 410 392 410 392 426 419 c 128,-1,18
 442 446 442 446 442 484 c 0,19,20
 442 523 442 523 420.5 557.5 c 128,-1,21
 399 592 399 592 350 592 c 2,22,-1
 257 592 l 2,23,24
 165 592 165 592 133 571 c 128,-1,25
 101 550 101 550 101 471 c 0,26,27
 101 433 101 433 70 433 c 0,28,29
 38 433 38 433 38 471 c 0,30,31
 38 529 38 529 53 566 c 128,-1,32
 68 603 68 603 99 622 c 128,-1,33
 130 641 130 641 166 647.5 c 128,-1,34
 202 654 202 654 257 654 c 2,35,-1
 333 654 l 2,36,37
 424 654 424 654 464 604 c 128,-1,38
 504 554 504 554 504 484 c 0,39,40
 504 415 504 415 474.5 377 c 128,-1,41
 445 339 445 339 373 319 c 2,42,-1
 287 295 l 1,43,-1
 287 194 l 2,44,45
 287 156 287 156 256 156 c 0,11,12
EndSplineSet
EndChar

StartChar: at
Encoding: 64 64 35
Width: 603
GlyphClass: 2
Flags: W
LayerCount: 2
Fore
SplineSet
70 241 m 2,0,-1
 70 395 l 2,1,2
 70 512 70 512 129.5 579 c 128,-1,3
 189 646 189 646 288 646 c 2,4,-1
 317 646 l 2,5,6
 416 646 416 646 475.5 579 c 128,-1,7
 535 512 535 512 535 395 c 0,8,9
 535 358 535 358 533 334.5 c 128,-1,10
 531 311 531 311 524 283.5 c 128,-1,11
 517 256 517 256 502 239.5 c 128,-1,12
 487 223 487 223 462 208 c 128,-1,13
 437 193 437 193 398 186.5 c 128,-1,14
 359 180 359 180 306 180 c 0,15,16
 230 180 230 180 202.5 215.5 c 128,-1,17
 175 251 175 251 175 332 c 0,18,19
 175 412 175 412 203 447.5 c 128,-1,20
 231 483 231 483 306 483 c 0,21,22
 382 483 382 483 410 447.5 c 128,-1,23
 438 412 438 412 438 332 c 0,24,25
 438 285 438 285 430 258 c 1,26,27
 455 266 455 266 464 294 c 128,-1,28
 473 322 473 322 473 395 c 0,29,30
 473 485 473 485 433.5 534.5 c 128,-1,31
 394 584 394 584 317 584 c 2,32,-1
 288 584 l 2,33,34
 210 584 210 584 171 534.5 c 128,-1,35
 132 485 132 485 132 395 c 2,36,-1
 132 241 l 2,37,38
 132 151 132 151 171 101.5 c 128,-1,39
 210 52 210 52 288 52 c 2,40,-1
 422 52 l 2,41,42
 451 52 451 52 462 64 c 128,-1,43
 473 76 473 76 473 109 c 0,44,45
 473 147 473 147 503 147 c 0,46,47
 535 147 535 147 535 106 c 0,48,49
 535 54 535 54 513.5 22 c 128,-1,50
 492 -10 492 -10 429 -10 c 2,51,-1
 288 -10 l 2,52,53
 189 -10 189 -10 129.5 57 c 128,-1,54
 70 124 70 124 70 241 c 2,0,-1
306 242 m 0,55,56
 352 242 352 242 364 259 c 128,-1,57
 376 276 376 276 376 332 c 0,58,59
 376 387 376 387 364 404 c 128,-1,60
 352 421 352 421 306 421 c 0,61,62
 261 421 261 421 249 404 c 128,-1,63
 237 387 237 387 237 332 c 0,64,65
 237 276 237 276 249 259 c 128,-1,66
 261 242 261 242 306 242 c 0,55,56
EndSplineSet
EndChar

StartChar: A
Encoding: 65 65 36
Width: 590
GlyphClass: 2
Flags: W
AnchorPoint: "Anchor-1" 294 0 basechar 0
AnchorPoint: "Anchor-0" 294 678 basechar 0
LayerCount: 2
Fore
SplineSet
331 636 m 1,0,-1
 563 31 l 2,1,2
 566 22 566 22 566 14 c 0,3,4
 566 -2 566 -2 555 -9 c 128,-1,5
 544 -16 544 -16 535 -16 c 0,6,7
 513 -16 513 -16 503 10 c 2,8,-1
 433 194 l 1,9,-1
 157 194 l 1,10,-1
 87 10 l 1,11,12
 76 -16 76 -16 55 -16 c 0,13,14
 46 -16 46 -16 35 -9 c 128,-1,15
 24 -2 24 -2 24 14 c 0,16,17
 24 22 24 22 27 31 c 2,18,-1
 259 636 l 1,19,-1
 331 636 l 1,0,-1
409 256 m 1,20,-1
 294 546 l 1,21,-1
 181 256 l 1,22,-1
 409 256 l 1,20,-1
EndSplineSet
EndChar

StartChar: B
Encoding: 66 66 37
Width: 624
GlyphClass: 2
Flags: W
AnchorPoint: "Anchor-1" 304 0 basechar 0
AnchorPoint: "Anchor-0" 304 678 basechar 0
LayerCount: 2
Fore
SplineSet
343 317 m 2,0,-1
 146 317 l 1,1,-1
 146 62 l 1,2,-1
 331 62 l 2,3,4
 435 62 435 62 470.5 83 c 128,-1,5
 506 104 506 104 506 181 c 2,6,-1
 506 198 l 2,7,8
 506 275 506 275 472 296 c 128,-1,9
 438 317 438 317 343 317 c 2,0,-1
84 40 m 2,10,-1
 84 596 l 2,11,12
 84 636 84 636 113 636 c 2,13,-1
 297 636 l 2,14,15
 413 636 413 636 469.5 602.5 c 128,-1,16
 526 569 526 569 526 478 c 0,17,18
 526 402 526 402 482 365 c 1,19,20
 568 328 568 328 568 201 c 2,21,-1
 568 182 l 2,22,23
 568 73 568 73 512 36.5 c 128,-1,24
 456 0 456 0 331 0 c 2,25,-1
 113 0 l 2,26,27
 84 0 84 0 84 40 c 2,10,-1
297 379 m 2,28,29
 392 379 392 379 428 397.5 c 128,-1,30
 464 416 464 416 464 474 c 0,31,32
 464 533 464 533 427 551 c 128,-1,33
 390 569 390 569 297 569 c 2,34,-1
 146 569 l 1,35,-1
 146 379 l 1,36,-1
 297 379 l 2,28,29
EndSplineSet
EndChar

StartChar: C
Encoding: 67 67 38
Width: 610
GlyphClass: 2
Flags: W
AnchorPoint: "Anchor-1" 320 0 basechar 0
AnchorPoint: "Anchor-0" 320 678 basechar 0
LayerCount: 2
Fore
SplineSet
450 0 m 2,0,-1
 309 0 l 2,1,2
 184 0 184 0 127.5 36.5 c 128,-1,3
 71 73 71 73 71 182 c 2,4,-1
 71 454 l 2,5,6
 71 562 71 562 125.5 599 c 128,-1,7
 180 636 180 636 297 636 c 2,8,-1
 450 636 l 2,9,10
 513 636 513 636 534 604 c 128,-1,11
 555 572 555 572 555 519 c 0,12,13
 555 479 555 479 524 479 c 128,-1,14
 493 479 493 479 493 517 c 0,15,16
 493 550 493 550 482.5 562 c 128,-1,17
 472 574 472 574 443 574 c 2,18,-1
 297 574 l 2,19,20
 201 574 201 574 167 552.5 c 128,-1,21
 133 531 133 531 133 453 c 2,22,-1
 133 183 l 2,23,24
 133 104 133 104 168.5 83 c 128,-1,25
 204 62 204 62 309 62 c 2,26,-1
 443 62 l 2,27,28
 472 62 472 62 482.5 74.5 c 128,-1,29
 493 87 493 87 493 119 c 0,30,31
 493 157 493 157 524 157 c 128,-1,32
 555 157 555 157 555 116 c 0,33,34
 555 64 555 64 534 32 c 128,-1,35
 513 0 513 0 450 0 c 2,0,-1
EndSplineSet
EndChar

StartChar: D
Encoding: 68 68 39
Width: 639
GlyphClass: 2
Flags: W
AnchorPoint: "Anchor-1" 333 0 basechar 0
AnchorPoint: "Anchor-0" 333 678 basechar 0
LayerCount: 2
Fore
SplineSet
568 454 m 2,0,-1
 568 182 l 2,1,2
 568 73 568 73 512 36.5 c 128,-1,3
 456 0 456 0 331 0 c 2,4,-1
 113 0 l 2,5,6
 84 0 84 0 84 40 c 2,7,-1
 84 596 l 2,8,9
 84 636 84 636 113 636 c 2,10,-1
 343 636 l 2,11,12
 459 636 459 636 513.5 599 c 128,-1,13
 568 562 568 562 568 454 c 2,0,-1
506 183 m 2,14,-1
 506 453 l 2,15,16
 506 532 506 532 472 553 c 128,-1,17
 438 574 438 574 343 574 c 2,18,-1
 146 574 l 1,19,-1
 146 62 l 1,20,-1
 331 62 l 2,21,22
 435 62 435 62 470.5 83 c 128,-1,23
 506 104 506 104 506 183 c 2,14,-1
EndSplineSet
EndChar

StartChar: E
Encoding: 69 69 40
Width: 617
GlyphClass: 2
Flags: W
AnchorPoint: "Anchor-1" 333 0 basechar 0
AnchorPoint: "Anchor-0" 333 678 basechar 0
LayerCount: 2
Fore
SplineSet
146 327 m 1,0,-1
 146 62 l 1,1,-1
 529 62 l 2,2,3
 568 62 568 62 568 29 c 0,4,5
 568 0 568 0 529 0 c 2,6,-1
 113 0 l 2,7,8
 84 0 84 0 84 40 c 2,9,-1
 84 596 l 2,10,11
 84 636 84 636 113 636 c 2,12,-1
 529 636 l 2,13,14
 568 636 568 636 568 603 c 0,15,16
 568 574 568 574 529 574 c 2,17,-1
 146 574 l 1,18,-1
 146 389 l 1,19,-1
 408 389 l 2,20,21
 451 389 451 389 451 356 c 0,22,23
 451 327 451 327 408 327 c 2,24,-1
 146 327 l 1,0,-1
EndSplineSet
EndChar

StartChar: F
Encoding: 70 70 41
Width: 596
GlyphClass: 2
Flags: W
AnchorPoint: "Anchor-1" 293 0 basechar 0
AnchorPoint: "Anchor-0" 333 678 basechar 0
LayerCount: 2
Fore
SplineSet
146 31 m 2,0,1
 146 -7 146 -7 115 -7 c 128,-1,2
 84 -7 84 -7 84 32 c 2,3,-1
 84 596 l 2,4,5
 84 636 84 636 113 636 c 2,6,-1
 529 636 l 2,7,8
 568 636 568 636 568 603 c 0,9,10
 568 574 568 574 529 574 c 2,11,-1
 146 574 l 1,12,-1
 146 389 l 1,13,-1
 408 389 l 2,14,15
 451 389 451 389 451 356 c 0,16,17
 451 327 451 327 408 327 c 2,18,-1
 146 327 l 1,19,-1
 146 31 l 2,0,1
EndSplineSet
EndChar

StartChar: G
Encoding: 71 71 42
Width: 625
GlyphClass: 2
Flags: W
AnchorPoint: "Anchor-1" 320 0 basechar 0
AnchorPoint: "Anchor-0" 320 678 basechar 0
LayerCount: 2
Fore
SplineSet
493 241 m 1,0,-1
 364 241 l 2,1,2
 321 241 321 241 321 271 c 0,3,4
 321 303 321 303 364 303 c 2,5,-1
 555 303 l 1,6,-1
 555 112 l 2,7,8
 555 80 555 80 549 58 c 128,-1,9
 543 36 543 36 518.5 18 c 128,-1,10
 494 0 494 0 450 0 c 2,11,-1
 297 0 l 2,12,13
 180 0 180 0 125.5 36 c 128,-1,14
 71 72 71 72 71 179 c 2,15,-1
 71 457 l 2,16,17
 71 565 71 565 127.5 600.5 c 128,-1,18
 184 636 184 636 309 636 c 2,19,-1
 450 636 l 2,20,21
 513 636 513 636 534 604 c 128,-1,22
 555 572 555 572 555 520 c 0,23,24
 555 479 555 479 524 479 c 128,-1,25
 493 479 493 479 493 518 c 0,26,27
 493 550 493 550 482.5 562 c 128,-1,28
 472 574 472 574 443 574 c 2,29,-1
 309 574 l 2,30,31
 205 574 205 574 169 553 c 128,-1,32
 133 532 133 532 133 455 c 2,33,-1
 133 181 l 2,34,35
 133 104 133 104 167 83 c 128,-1,36
 201 62 201 62 297 62 c 2,37,-1
 443 62 l 2,38,39
 473 62 473 62 483 73.5 c 128,-1,40
 493 85 493 85 493 116 c 2,41,-1
 493 241 l 1,0,-1
EndSplineSet
EndChar

StartChar: H
Encoding: 72 72 43
Width: 652
GlyphClass: 2
Flags: W
AnchorPoint: "Anchor-1" 326 0 basechar 0
AnchorPoint: "Anchor-0" 326 678 basechar 0
LayerCount: 2
Fore
SplineSet
146 31 m 2,0,1
 146 -7 146 -7 115 -7 c 128,-1,2
 84 -7 84 -7 84 31 c 2,3,-1
 84 604 l 2,4,5
 84 643 84 643 113 643 c 0,6,7
 146 643 146 643 146 604 c 2,8,-1
 146 374 l 1,9,-1
 506 374 l 1,10,-1
 506 604 l 2,11,12
 506 643 506 643 536 643 c 0,13,14
 568 643 568 643 568 604 c 2,15,-1
 568 31 l 2,16,17
 568 -7 568 -7 538 -7 c 0,18,19
 506 -7 506 -7 506 31 c 2,20,-1
 506 312 l 1,21,-1
 146 312 l 1,22,-1
 146 31 l 2,0,1
EndSplineSet
EndChar

StartChar: I
Encoding: 73 73 44
Width: 230
GlyphClass: 2
Flags: W
AnchorPoint: "Anchor-1" 116 0 basechar 0
AnchorPoint: "Anchor-0" 116 678 basechar 0
LayerCount: 2
Fore
SplineSet
146 29 m 2,0,1
 146 -7 146 -7 114 -7 c 0,2,3
 84 -7 84 -7 84 29 c 2,4,-1
 84 606 l 2,5,6
 84 643 84 643 115 643 c 128,-1,7
 146 643 146 643 146 606 c 2,8,-1
 146 29 l 2,0,1
EndSplineSet
EndChar

StartChar: J
Encoding: 74 74 45
Width: 571
GlyphClass: 2
Flags: W
AnchorPoint: "Anchor-1" 263 0 basechar 0
AnchorPoint: "Anchor-0" 459 678 basechar 0
LayerCount: 2
Fore
SplineSet
262 54 m 0,0,1
 359 54 359 54 393.5 75 c 128,-1,2
 428 96 428 96 428 173 c 2,3,-1
 428 607 l 2,4,5
 428 643 428 643 459 643 c 128,-1,6
 490 643 490 643 490 606 c 2,7,-1
 490 171 l 2,8,9
 490 64 490 64 435 28 c 128,-1,10
 380 -8 380 -8 262 -8 c 0,11,12
 143 -8 143 -8 88 29 c 128,-1,13
 33 66 33 66 33 177 c 0,14,15
 33 215 33 215 66 215 c 0,16,17
 80 215 80 215 88 204.5 c 128,-1,18
 96 194 96 194 96 177 c 0,19,20
 96 97 96 97 130 75.5 c 128,-1,21
 164 54 164 54 262 54 c 0,0,1
EndSplineSet
EndChar

StartChar: K
Encoding: 75 75 46
Width: 539
GlyphClass: 2
Flags: W
AnchorPoint: "Anchor-1" 283 0 basechar 0
AnchorPoint: "Anchor-0" 283 678 basechar 0
LayerCount: 2
Fore
SplineSet
534 23 m 0,0,1
 534 10 534 10 523.5 1.5 c 128,-1,2
 513 -7 513 -7 503 -7 c 0,3,4
 488 -7 488 -7 474 10 c 1,5,-1
 194 319 l 1,6,-1
 146 261 l 1,7,-1
 146 30 l 2,8,9
 146 -7 146 -7 114 -7 c 0,10,11
 84 -7 84 -7 84 29 c 2,12,-1
 84 606 l 2,13,14
 84 643 84 643 115 643 c 128,-1,15
 146 643 146 643 146 605 c 2,16,-1
 146 338 l 1,17,-1
 408 626 l 2,18,19
 423 643 423 643 437 643 c 0,20,21
 447 643 447 643 457 634.5 c 128,-1,22
 467 626 467 626 467 614 c 0,23,24
 467 601 467 601 456 588 c 2,25,-1
 237 355 l 1,26,-1
 522 48 l 2,27,28
 534 34 534 34 534 23 c 0,0,1
EndSplineSet
EndChar

StartChar: L
Encoding: 76 76 47
Width: 535
GlyphClass: 2
Flags: W
AnchorPoint: "Anchor-1" 303 0 basechar 0
AnchorPoint: "Anchor-0" 114 678 basechar 0
LayerCount: 2
Fore
SplineSet
113 0 m 2,0,1
 84 0 84 0 84 39 c 2,2,-1
 84 607 l 2,3,4
 84 643 84 643 115 643 c 128,-1,5
 146 643 146 643 146 607 c 2,6,-1
 146 62 l 1,7,-1
 474 62 l 2,8,9
 512 62 512 62 512 30 c 0,10,11
 512 0 512 0 474 0 c 2,12,-1
 113 0 l 2,0,1
EndSplineSet
EndChar

StartChar: M
Encoding: 77 77 48
Width: 673
GlyphClass: 2
Flags: W
AnchorPoint: "Anchor-1" 336 0 basechar 0
AnchorPoint: "Anchor-0" 336 678 basechar 0
LayerCount: 2
Fore
SplineSet
336 279 m 0,0,1
 324 279 324 279 314 289 c 1,2,-1
 146 534 l 1,3,-1
 146 33 l 2,4,5
 146 -7 146 -7 115 -7 c 128,-1,6
 84 -7 84 -7 84 31 c 2,7,-1
 84 604 l 2,8,9
 84 643 84 643 113 643 c 0,10,11
 133 643 133 643 147 622 c 2,12,-1
 336 350 l 1,13,-1
 526 622 l 2,14,15
 541 643 541 643 559 643 c 0,16,17
 589 643 589 643 589 604 c 2,18,-1
 589 31 l 2,19,20
 589 -7 589 -7 557 -7 c 0,21,22
 527 -7 527 -7 527 33 c 2,23,-1
 527 534 l 1,24,-1
 359 289 l 2,25,26
 351 279 351 279 336 279 c 0,0,1
EndSplineSet
EndChar

StartChar: N
Encoding: 78 78 49
Width: 652
GlyphClass: 2
Flags: W
AnchorPoint: "Anchor-1" 326 0 basechar 0
AnchorPoint: "Anchor-0" 326 678 basechar 0
LayerCount: 2
Fore
SplineSet
538 -7 m 0,0,1
 521 -7 521 -7 514 0 c 1,2,-1
 146 530 l 1,3,-1
 146 29 l 2,4,5
 146 -7 146 -7 115 -7 c 128,-1,6
 84 -7 84 -7 84 31 c 2,7,-1
 84 604 l 2,8,9
 84 643 84 643 113 643 c 0,10,11
 133 643 133 643 147 622 c 2,12,-1
 506 107 l 1,13,-1
 506 602 l 2,14,15
 506 643 506 643 536 643 c 0,16,17
 568 643 568 643 568 604 c 2,18,-1
 568 31 l 2,19,20
 568 -7 568 -7 538 -7 c 0,0,1
EndSplineSet
EndChar

StartChar: O
Encoding: 79 79 50
Width: 614
GlyphClass: 2
Flags: W
AnchorPoint: "Anchor-1" 307 0 basechar 0
AnchorPoint: "Anchor-0" 307 678 basechar 0
LayerCount: 2
Fore
SplineSet
307 -9 m 0,0,1
 199 -9 199 -9 132 54.5 c 128,-1,2
 65 118 65 118 65 229 c 2,3,-1
 65 407 l 2,4,5
 65 518 65 518 132 581.5 c 128,-1,6
 199 645 199 645 307 645 c 0,7,8
 414 645 414 645 481.5 581.5 c 128,-1,9
 549 518 549 518 549 407 c 2,10,-1
 549 229 l 2,11,12
 549 118 549 118 481.5 54.5 c 128,-1,13
 414 -9 414 -9 307 -9 c 0,0,1
307 583 m 128,-1,15
 220 583 220 583 173.5 536 c 128,-1,16
 127 489 127 489 127 405 c 2,17,-1
 127 231 l 2,18,19
 127 146 127 146 173 99.5 c 128,-1,20
 219 53 219 53 307 53 c 128,-1,21
 395 53 395 53 441 99.5 c 128,-1,22
 487 146 487 146 487 231 c 2,23,-1
 487 405 l 2,24,25
 487 489 487 489 440.5 536 c 128,-1,14
 394 583 394 583 307 583 c 128,-1,15
EndSplineSet
EndChar

StartChar: P
Encoding: 80 80 51
Width: 560
GlyphClass: 2
Flags: W
AnchorPoint: "Anchor-1" 305 0 basechar 0
AnchorPoint: "Anchor-0" 305 678 basechar 0
LayerCount: 2
Fore
SplineSet
146 29 m 2,0,1
 146 -7 146 -7 114 -7 c 0,2,3
 84 -7 84 -7 84 29 c 2,4,-1
 84 596 l 2,5,6
 84 636 84 636 113 636 c 2,7,-1
 299 636 l 2,8,9
 413 636 413 636 469.5 602.5 c 128,-1,10
 526 569 526 569 526 479 c 0,11,12
 526 403 526 403 478.5 362.5 c 128,-1,13
 431 322 431 322 345 322 c 2,14,-1
 146 322 l 1,15,-1
 146 29 l 2,0,1
299 384 m 2,16,17
 396 384 396 384 430 403 c 128,-1,18
 464 422 464 422 464 479 c 0,19,20
 464 538 464 538 428 556 c 128,-1,21
 392 574 392 574 299 574 c 2,22,-1
 146 574 l 1,23,-1
 146 384 l 1,24,-1
 299 384 l 2,16,17
EndSplineSet
EndChar

StartChar: Q
Encoding: 81 81 52
Width: 614
GlyphClass: 2
Flags: W
AnchorPoint: "Anchor-1" 307 0 basechar 0
AnchorPoint: "Anchor-0" 307 678 basechar 0
LayerCount: 2
Fore
SplineSet
307 583 m 128,-1,1
 220 583 220 583 173.5 536 c 128,-1,2
 127 489 127 489 127 405 c 2,3,-1
 127 231 l 2,4,5
 127 146 127 146 173 99.5 c 128,-1,6
 219 53 219 53 307 53 c 0,7,8
 372 53 372 53 412 77 c 1,9,-1
 359 124 l 1,10,11
 344 135 344 135 344 150 c 0,12,13
 344 161 344 161 353 171 c 128,-1,14
 362 181 362 181 376 181 c 0,15,16
 392 181 392 181 407 166 c 2,17,-1
 457 118 l 1,18,19
 487 162 487 162 487 231 c 2,20,-1
 487 405 l 2,21,22
 487 489 487 489 440.5 536 c 128,-1,0
 394 583 394 583 307 583 c 128,-1,1
307 -9 m 0,23,24
 199 -9 199 -9 132 54.5 c 128,-1,25
 65 118 65 118 65 229 c 2,26,-1
 65 407 l 2,27,28
 65 518 65 518 132 581.5 c 128,-1,29
 199 645 199 645 307 645 c 0,30,31
 414 645 414 645 481.5 581.5 c 128,-1,32
 549 518 549 518 549 407 c 2,33,-1
 549 229 l 2,34,35
 549 135 549 135 502 75 c 1,36,-1
 534 45 l 2,37,38
 546 33 546 33 546 18 c 0,39,40
 546 7 546 7 537.5 -2.5 c 128,-1,41
 529 -12 529 -12 517 -12 c 0,42,43
 500 -12 500 -12 489 -1 c 2,44,-1
 457 31 l 1,45,46
 397 -9 397 -9 307 -9 c 0,23,24
EndSplineSet
EndChar

StartChar: R
Encoding: 82 82 53
Width: 589
GlyphClass: 2
Flags: W
AnchorPoint: "Anchor-1" 305 0 basechar 0
AnchorPoint: "Anchor-0" 305 678 basechar 0
LayerCount: 2
Fore
SplineSet
414 329 m 1,0,1
 446 294 446 294 475.5 220.5 c 128,-1,2
 505 147 505 147 519.5 93.5 c 128,-1,3
 534 40 534 40 534 29 c 0,4,5
 534 14 534 14 525 3.5 c 128,-1,6
 516 -7 516 -7 502 -7 c 0,7,8
 474 -7 474 -7 472 29 c 0,9,10
 470 67 470 67 431 170 c 128,-1,11
 392 273 392 273 333 317 c 1,12,-1
 146 317 l 1,13,-1
 146 29 l 2,14,15
 146 -7 146 -7 114 -7 c 0,16,17
 84 -7 84 -7 84 29 c 2,18,-1
 84 596 l 2,19,20
 84 636 84 636 113 636 c 2,21,-1
 297 636 l 2,22,23
 413 636 413 636 469.5 602.5 c 128,-1,24
 526 569 526 569 526 478 c 0,25,26
 526 418 526 418 496.5 380 c 128,-1,27
 467 342 467 342 414 329 c 1,0,1
146 379 m 1,28,-1
 297 379 l 2,29,30
 392 379 392 379 428 397 c 128,-1,31
 464 415 464 415 464 474 c 128,-1,32
 464 533 464 533 427.5 551 c 128,-1,33
 391 569 391 569 297 569 c 2,34,-1
 146 569 l 1,35,-1
 146 379 l 1,28,-1
EndSplineSet
EndChar

StartChar: S
Encoding: 83 83 54
Width: 628
GlyphClass: 2
Flags: W
AnchorPoint: "Anchor-1" 303 0 basechar 0
AnchorPoint: "Anchor-0" 303 678 basechar 0
LayerCount: 2
Fore
SplineSet
123 478 m 0,0,1
 123 441 123 441 139.5 414.5 c 128,-1,2
 156 388 156 388 179 382 c 1,3,-1
 435 332 l 2,4,5
 506 318 506 318 536.5 270 c 128,-1,6
 567 222 567 222 567 158 c 0,7,8
 567 127 567 127 558.5 99.5 c 128,-1,9
 550 72 550 72 530.5 46.5 c 128,-1,10
 511 21 511 21 474.5 6.5 c 128,-1,11
 438 -8 438 -8 388 -8 c 2,12,-1
 298 -8 l 2,13,14
 174 -8 174 -8 117.5 29 c 128,-1,15
 61 66 61 66 61 177 c 0,16,17
 61 215 61 215 94 215 c 0,18,19
 108 215 108 215 116 204.5 c 128,-1,20
 124 194 124 194 124 177 c 0,21,22
 124 97 124 97 158.5 75.5 c 128,-1,23
 193 54 193 54 298 54 c 2,24,-1
 408 54 l 2,25,26
 444 54 444 54 467.5 73.5 c 128,-1,27
 491 93 491 93 498 115 c 128,-1,28
 505 137 505 137 505 160 c 0,29,30
 505 207 505 207 486.5 235.5 c 128,-1,31
 468 264 468 264 449 268 c 2,32,-1
 195 320 l 2,33,34
 123 335 123 335 92 373 c 128,-1,35
 61 411 61 411 61 480 c 0,36,37
 61 548 61 548 105.5 596 c 128,-1,38
 150 644 150 644 253 644 c 2,39,-1
 329 644 l 2,40,41
 391 644 391 644 430.5 637.5 c 128,-1,42
 470 631 470 631 503.5 612 c 128,-1,43
 537 593 537 593 552 556 c 128,-1,44
 567 519 567 519 567 461 c 0,45,46
 567 423 567 423 535 423 c 0,47,48
 521 423 521 423 512.5 433.5 c 128,-1,49
 504 444 504 444 504 461 c 0,50,51
 504 503 504 503 496.5 527 c 128,-1,52
 489 551 489 551 465.5 563.5 c 128,-1,53
 442 576 442 576 413.5 579 c 128,-1,54
 385 582 385 582 329 582 c 2,55,-1
 227 582 l 2,56,57
 171 582 171 582 147 549 c 128,-1,58
 123 516 123 516 123 478 c 0,0,1
EndSplineSet
EndChar

StartChar: T
Encoding: 84 84 55
Width: 500
GlyphClass: 2
Flags: W
AnchorPoint: "Anchor-1" 250 0 basechar 0
AnchorPoint: "Anchor-0" 250 678 basechar 0
LayerCount: 2
Fore
SplineSet
435 636 m 2,0,1
 473 636 473 636 473 604 c 0,2,3
 473 574 473 574 435 574 c 2,4,-1
 285 574 l 1,5,-1
 285 29 l 2,6,7
 285 9 285 9 274 1 c 128,-1,8
 263 -7 263 -7 249 -7 c 0,9,10
 216 -7 216 -7 216 29 c 2,11,-1
 216 574 l 1,12,-1
 64 574 l 2,13,14
 26 574 26 574 26 605 c 128,-1,15
 26 636 26 636 64 636 c 2,16,-1
 435 636 l 2,0,1
EndSplineSet
EndChar

StartChar: U
Encoding: 85 85 56
Width: 640
GlyphClass: 2
Flags: W
AnchorPoint: "Anchor-1" 320 0 basechar 0
AnchorPoint: "Anchor-0" 320 678 basechar 0
LayerCount: 2
Fore
SplineSet
500 607 m 2,0,1
 500 643 500 643 532 643 c 0,2,3
 562 643 562 643 562 606 c 2,4,-1
 562 229 l 2,5,6
 562 118 562 118 494.5 54.5 c 128,-1,7
 427 -9 427 -9 320 -9 c 0,8,9
 212 -9 212 -9 145 54.5 c 128,-1,10
 78 118 78 118 78 229 c 2,11,-1
 78 606 l 2,12,13
 78 643 78 643 109 643 c 128,-1,14
 140 643 140 643 140 607 c 2,15,-1
 140 231 l 2,16,17
 140 146 140 146 186 99.5 c 128,-1,18
 232 53 232 53 320 53 c 128,-1,19
 408 53 408 53 454 99.5 c 128,-1,20
 500 146 500 146 500 231 c 2,21,-1
 500 607 l 2,0,1
EndSplineSet
EndChar

StartChar: V
Encoding: 86 86 57
Width: 590
GlyphClass: 2
Flags: W
AnchorPoint: "Anchor-1" 294 0 basechar 0
AnchorPoint: "Anchor-0" 294 678 basechar 0
LayerCount: 2
Fore
SplineSet
503 626 m 2,0,1
 514 652 514 652 535 652 c 0,2,3
 544 652 544 652 555 645 c 128,-1,4
 566 638 566 638 566 622 c 0,5,6
 566 614 566 614 563 605 c 2,7,-1
 331 0 l 1,8,-1
 259 0 l 1,9,-1
 27 605 l 2,10,11
 24 614 24 614 24 622 c 0,12,13
 24 638 24 638 35 645 c 128,-1,14
 46 652 46 652 55 652 c 0,15,16
 75 652 75 652 87 626 c 1,17,-1
 296 90 l 1,18,-1
 503 626 l 2,0,1
EndSplineSet
EndChar

StartChar: W
Encoding: 87 87 58
Width: 935
GlyphClass: 2
Flags: W
AnchorPoint: "Anchor-1" 467 0 basechar 0
AnchorPoint: "Anchor-0" 467 678 basechar 0
LayerCount: 2
Fore
SplineSet
679 84 m 1,0,-1
 846 624 l 1,1,2
 856 649 856 649 879 649 c 0,3,4
 908 649 908 649 908 624 c 0,5,6
 908 618 908 618 904 606 c 2,7,-1
 711 0 l 1,8,-1
 645 0 l 1,9,-1
 467 542 l 1,10,-1
 290 0 l 1,11,-1
 225 0 l 1,12,-1
 31 610 l 2,13,14
 27 622 27 622 27 628 c 0,15,16
 27 653 27 653 56 653 c 0,17,18
 79 653 79 653 89 628 c 1,19,-1
 258 84 l 1,20,-1
 432 623 l 2,21,22
 442 652 442 652 467 652 c 0,23,24
 495 652 495 652 504 622 c 2,25,-1
 679 84 l 1,0,-1
EndSplineSet
EndChar

StartChar: X
Encoding: 88 88 59
Width: 582
GlyphClass: 2
Flags: W
AnchorPoint: "Anchor-1" 291 0 basechar 0
AnchorPoint: "Anchor-0" 291 678 basechar 0
LayerCount: 2
Fore
SplineSet
514 643 m 0,0,1
 524 643 524 643 534.5 635.5 c 128,-1,2
 545 628 545 628 545 611 c 0,3,4
 545 601 545 601 536 589 c 2,5,-1
 332 317 l 1,6,-1
 536 46 l 2,7,8
 545 34 545 34 545 22 c 0,9,10
 545 8 545 8 535 0.5 c 128,-1,11
 525 -7 525 -7 514 -7 c 0,12,13
 499 -7 499 -7 485 11 c 2,14,-1
 291 273 l 1,15,-1
 98 11 l 2,16,17
 85 -7 85 -7 68 -7 c 0,18,19
 57 -7 57 -7 47.5 1 c 128,-1,20
 38 9 38 9 38 22 c 0,21,22
 38 34 38 34 47 46 c 2,23,-1
 251 317 l 1,24,-1
 47 589 l 2,25,26
 38 600 38 600 38 611 c 0,27,28
 38 623 38 623 44.5 631 c 128,-1,29
 51 639 51 639 57 641 c 128,-1,30
 63 643 63 643 68 643 c 0,31,32
 84 643 84 643 98 623 c 2,33,-1
 291 362 l 1,34,-1
 485 623 l 2,35,36
 500 643 500 643 514 643 c 0,0,1
EndSplineSet
EndChar

StartChar: Y
Encoding: 89 89 60
Width: 541
GlyphClass: 2
Flags: W
AnchorPoint: "Anchor-1" 270 0 basechar 0
AnchorPoint: "Anchor-0" 270 678 basechar 0
LayerCount: 2
Fore
SplineSet
238 307 m 1,0,-1
 26 590 l 1,1,2
 17 604 17 604 17 613 c 0,3,4
 17 626 17 626 26.5 634.5 c 128,-1,5
 36 643 36 643 47 643 c 0,6,7
 61 643 61 643 76 623 c 2,8,-1
 270 362 l 1,9,-1
 463 623 l 2,10,11
 479 643 479 643 493 643 c 0,12,13
 503 643 503 643 513 634.5 c 128,-1,14
 523 626 523 626 523 613 c 0,15,16
 523 604 523 604 514 590 c 1,17,-1
 303 307 l 1,18,-1
 303 28 l 2,19,20
 303 -7 303 -7 270 -7 c 0,21,22
 238 -7 238 -7 238 28 c 2,23,-1
 238 307 l 1,0,-1
EndSplineSet
EndChar

StartChar: Z
Encoding: 90 90 61
Width: 580
GlyphClass: 2
Flags: W
AnchorPoint: "Anchor-1" 282 0 basechar 0
AnchorPoint: "Anchor-0" 282 678 basechar 0
LayerCount: 2
Fore
SplineSet
49 0 m 1,0,-1
 49 58 l 1,1,-1
 455 574 l 1,2,-1
 89 574 l 2,3,4
 48 574 48 574 48 605 c 128,-1,5
 48 636 48 636 89 636 c 2,6,-1
 532 636 l 1,7,-1
 532 576 l 1,8,-1
 128 62 l 1,9,-1
 492 62 l 2,10,11
 532 62 532 62 532 30 c 0,12,13
 532 0 532 0 492 0 c 2,14,-1
 49 0 l 1,0,-1
EndSplineSet
EndChar

StartChar: bracketleft
Encoding: 91 91 62
Width: 267
GlyphClass: 2
Flags: W
LayerCount: 2
Fore
SplineSet
142 10 m 1,0,-1
 220 10 l 1,1,-1
 220 -52 l 1,2,-1
 80 -52 l 1,3,-1
 80 688 l 1,4,-1
 220 688 l 1,5,-1
 220 626 l 1,6,-1
 142 626 l 1,7,-1
 142 10 l 1,0,-1
EndSplineSet
EndChar

StartChar: backslash
Encoding: 92 92 63
Width: 367
GlyphClass: 2
Flags: W
LayerCount: 2
Fore
SplineSet
45 606 m 1,0,1
 42 621 42 621 42 626 c 0,2,3
 42 641 42 641 52.5 648 c 128,-1,4
 63 655 63 655 74 655 c 0,5,6
 94 655 94 655 104 629 c 2,7,-1
 322 30 l 1,8,9
 325 18 325 18 325 11 c 0,10,11
 325 -4 325 -4 314.5 -11 c 128,-1,12
 304 -18 304 -18 294 -18 c 0,13,14
 273 -18 273 -18 263 8 c 2,15,-1
 45 606 l 1,0,1
EndSplineSet
EndChar

StartChar: bracketright
Encoding: 93 93 64
Width: 267
GlyphClass: 2
Flags: W
LayerCount: 2
Fore
SplineSet
125 10 m 1,0,-1
 125 626 l 1,1,-1
 47 626 l 1,2,-1
 47 688 l 1,3,-1
 187 688 l 1,4,-1
 187 -52 l 1,5,-1
 47 -52 l 1,6,-1
 47 10 l 1,7,-1
 125 10 l 1,0,-1
EndSplineSet
EndChar

StartChar: asciicircum
Encoding: 94 94 65
Width: 443
GlyphClass: 2
Flags: W
LayerCount: 2
Fore
SplineSet
136 379 m 2,0,1
 126 355 126 355 103 355 c 0,2,3
 91 355 91 355 83 363 c 128,-1,4
 75 371 75 371 75 383 c 0,5,6
 75 392 75 392 77 397 c 2,7,-1
 189 646 l 1,8,-1
 255 646 l 1,9,-1
 366 397 l 2,10,11
 368 392 368 392 368 383 c 0,12,13
 368 355 368 355 340 355 c 0,14,15
 318 355 318 355 306 379 c 1,16,-1
 222 569 l 1,17,-1
 136 379 l 2,0,1
EndSplineSet
EndChar

StartChar: underscore
Encoding: 95 95 66
Width: 475
GlyphClass: 2
Flags: W
LayerCount: 2
Fore
SplineSet
28 10 m 2,0,-1
 447 10 l 2,1,2
 485 10 485 10 485 -22 c 0,3,4
 485 -52 485 -52 447 -52 c 2,5,-1
 28 -52 l 2,6,7
 -10 -52 -10 -52 -10 -20 c 0,8,9
 -10 10 -10 10 28 10 c 2,0,-1
EndSplineSet
EndChar

StartChar: grave
Encoding: 96 96 67
Width: 212
GlyphClass: 2
Flags: W
LayerCount: 2
Fore
SplineSet
83 671 m 2,0,-1
 179 556 l 2,1,2
 189 544 189 544 189 530 c 0,3,4
 189 517 189 517 179.5 508.5 c 128,-1,5
 170 500 170 500 159 500 c 0,6,7
 145 500 145 500 130 517 c 2,8,-1
 34 632 l 2,9,10
 24 643 24 643 24 657 c 128,-1,11
 24 671 24 671 33.5 679.5 c 128,-1,12
 43 688 43 688 54 688 c 0,13,14
 68 688 68 688 83 671 c 2,0,-1
EndSplineSet
EndChar

StartChar: a
Encoding: 97 97 68
Width: 573
GlyphClass: 2
Flags: W
AnchorPoint: "Anchor-1" 262 0 basechar 0
AnchorPoint: "Anchor-0" 287 510 basechar 0
LayerCount: 2
Fore
SplineSet
298 238 m 2,0,1
 192 238 192 238 157 217.5 c 128,-1,2
 122 197 122 197 122 121 c 0,3,4
 122 98 122 98 138 80 c 128,-1,5
 154 62 154 62 172 62 c 2,6,-1
 265 62 l 2,7,8
 440 62 440 62 440 228 c 2,9,-1
 440 238 l 1,10,-1
 298 238 l 2,0,1
298 300 m 2,11,-1
 440 300 l 1,12,-1
 440 350 l 2,13,14
 440 378 440 378 429.5 388.5 c 128,-1,15
 419 399 419 399 390 399 c 2,16,-1
 249 399 l 2,17,18
 122 399 122 399 122 344 c 0,19,20
 122 304 122 304 90 304 c 0,21,22
 60 304 60 304 60 344 c 0,23,24
 60 461 60 461 242 461 c 2,25,-1
 397 461 l 2,26,27
 458 461 458 461 480 432 c 128,-1,28
 502 403 502 403 502 333 c 2,29,-1
 502 31 l 2,30,31
 502 -7 502 -7 471 -7 c 128,-1,32
 440 -7 440 -7 440 33 c 2,33,-1
 440 56 l 1,34,35
 381 0 381 0 265 0 c 2,36,-1
 172 0 l 2,37,38
 123 0 123 0 91.5 34.5 c 128,-1,39
 60 69 60 69 60 126 c 0,40,41
 60 228 60 228 117.5 264 c 128,-1,42
 175 300 175 300 298 300 c 2,11,-1
EndSplineSet
EndChar

StartChar: b
Encoding: 98 98 69
Width: 641
GlyphClass: 2
Flags: W
AnchorPoint: "Anchor-1" 337 0 basechar 0
AnchorPoint: "Anchor-0" 347 510 basechar 0
LayerCount: 2
Fore
SplineSet
137 405 m 1,0,1
 197 461 197 461 313 461 c 2,2,-1
 342 461 l 2,3,4
 466 461 466 461 522.5 425 c 128,-1,5
 579 389 579 389 579 284 c 2,6,-1
 579 177 l 2,7,8
 579 72 579 72 522.5 36 c 128,-1,9
 466 0 466 0 342 0 c 2,10,-1
 313 0 l 2,11,12
 197 0 197 0 137 56 c 1,13,-1
 137 33 l 2,14,15
 137 -7 137 -7 106 -7 c 128,-1,16
 75 -7 75 -7 75 31 c 2,17,-1
 75 602 l 2,18,19
 75 643 75 643 104 643 c 0,20,21
 137 643 137 643 137 602 c 2,22,-1
 137 405 l 1,0,1
313 399 m 2,23,24
 137 399 137 399 137 232 c 2,25,-1
 137 228 l 2,26,27
 137 62 137 62 313 62 c 2,28,-1
 342 62 l 2,29,30
 446 62 446 62 481.5 82 c 128,-1,31
 517 102 517 102 517 179 c 2,32,-1
 517 282 l 2,33,34
 517 359 517 359 481.5 379 c 128,-1,35
 446 399 446 399 342 399 c 2,36,-1
 313 399 l 2,23,24
EndSplineSet
EndChar

StartChar: c
Encoding: 99 99 70
Width: 604
GlyphClass: 2
Flags: W
AnchorPoint: "Anchor-1" 324 0 basechar 0
AnchorPoint: "Anchor-0" 324 510 basechar 0
LayerCount: 2
Fore
SplineSet
441 0 m 2,0,-1
 300 0 l 2,1,2
 175 0 175 0 118.5 36 c 128,-1,3
 62 72 62 72 62 177 c 2,4,-1
 62 284 l 2,5,6
 62 389 62 389 118.5 425 c 128,-1,7
 175 461 175 461 300 461 c 2,8,-1
 441 461 l 2,9,10
 474 461 474 461 496.5 451 c 128,-1,11
 519 441 519 441 529 423 c 128,-1,12
 539 405 539 405 542.5 386.5 c 128,-1,13
 546 368 546 368 546 344 c 0,14,15
 546 304 546 304 515 304 c 128,-1,16
 484 304 484 304 484 342 c 0,17,18
 484 375 484 375 473.5 387 c 128,-1,19
 463 399 463 399 434 399 c 2,20,-1
 300 399 l 2,21,22
 194 399 194 399 159 378.5 c 128,-1,23
 124 358 124 358 124 282 c 2,24,-1
 124 179 l 2,25,26
 124 103 124 103 159 82.5 c 128,-1,27
 194 62 194 62 300 62 c 2,28,-1
 434 62 l 2,29,30
 463 62 463 62 473.5 74.5 c 128,-1,31
 484 87 484 87 484 119 c 0,32,33
 484 157 484 157 515 157 c 128,-1,34
 546 157 546 157 546 116 c 0,35,36
 546 64 546 64 525 32 c 128,-1,37
 504 0 504 0 441 0 c 2,0,-1
EndSplineSet
EndChar

StartChar: d
Encoding: 100 100 71
Width: 641
GlyphClass: 2
Flags: W
AnchorPoint: "Anchor-1" 304 0 basechar 0
AnchorPoint: "Anchor-0" 294 510 basechar 0
LayerCount: 2
Fore
SplineSet
124 179 m 2,0,1
 124 102 124 102 159.5 82 c 128,-1,2
 195 62 195 62 299 62 c 2,3,-1
 328 62 l 2,4,5
 504 62 504 62 504 229 c 2,6,-1
 504 399 l 1,7,-1
 297 399 l 2,8,9
 194 399 194 399 159 379 c 128,-1,10
 124 359 124 359 124 282 c 2,11,-1
 124 179 l 2,0,1
62 284 m 2,12,13
 62 389 62 389 118 425 c 128,-1,14
 174 461 174 461 297 461 c 2,15,-1
 504 461 l 1,16,-1
 504 603 l 2,17,18
 504 643 504 643 537 643 c 0,19,20
 566 643 566 643 566 603 c 2,21,-1
 566 31 l 2,22,23
 566 -7 566 -7 535 -7 c 128,-1,24
 504 -7 504 -7 504 33 c 2,25,-1
 504 56 l 1,26,27
 444 0 444 0 328 0 c 2,28,-1
 299 0 l 2,29,30
 175 0 175 0 118.5 36 c 128,-1,31
 62 72 62 72 62 177 c 2,32,-1
 62 284 l 2,12,13
EndSplineSet
EndChar

StartChar: e
Encoding: 101 101 72
Width: 626
GlyphClass: 2
Flags: W
AnchorPoint: "Anchor-1" 324 0 basechar 0
AnchorPoint: "Anchor-0" 324 510 basechar 0
LayerCount: 2
Fore
SplineSet
566 284 m 2,0,-1
 566 240 l 1,1,-1
 124 240 l 1,2,-1
 124 179 l 2,3,4
 124 103 124 103 159 82.5 c 128,-1,5
 194 62 194 62 300 62 c 2,6,-1
 454 62 l 2,7,8
 483 62 483 62 493.5 74.5 c 128,-1,9
 504 87 504 87 504 119 c 0,10,11
 504 157 504 157 535 157 c 128,-1,12
 566 157 566 157 566 116 c 0,13,14
 566 64 566 64 545 32 c 128,-1,15
 524 0 524 0 461 0 c 2,16,-1
 300 0 l 2,17,18
 175 0 175 0 118.5 36 c 128,-1,19
 62 72 62 72 62 177 c 2,20,-1
 62 284 l 2,21,22
 62 389 62 389 118.5 425 c 128,-1,23
 175 461 175 461 300 461 c 2,24,-1
 329 461 l 2,25,26
 453 461 453 461 509.5 425 c 128,-1,27
 566 389 566 389 566 284 c 2,0,-1
329 399 m 2,28,-1
 300 399 l 2,29,30
 198 399 198 399 162 381.5 c 128,-1,31
 126 364 126 364 124 302 c 1,32,-1
 504 302 l 1,33,34
 502 364 502 364 466 381.5 c 128,-1,35
 430 399 430 399 329 399 c 2,28,-1
EndSplineSet
EndChar

StartChar: f
Encoding: 102 102 73
Width: 334
GlyphClass: 2
Flags: W
AnchorPoint: "Anchor-1" 110 0 basechar 0
AnchorPoint: "Anchor-0" 281 678 basechar 0
LayerCount: 2
Fore
SplineSet
298 574 m 0,0,1
 209 574 209 574 176 554 c 128,-1,2
 143 534 143 534 142 461 c 1,3,-1
 275 461 l 2,4,5
 316 461 316 461 316 428 c 0,6,7
 316 399 316 399 275 399 c 2,8,-1
 142 399 l 1,9,-1
 142 32 l 2,10,11
 142 -7 142 -7 109 -7 c 0,12,13
 80 -7 80 -7 80 32 c 2,14,-1
 80 402 l 1,15,16
 49 406 49 406 49 433 c 0,17,18
 49 457 49 457 80 461 c 1,19,20
 81 516 81 516 96.5 551.5 c 128,-1,21
 112 587 112 587 143 605 c 128,-1,22
 174 623 174 623 209.5 629.5 c 128,-1,23
 245 636 245 636 298 636 c 0,24,25
 339 636 339 636 339 603 c 0,26,27
 339 574 339 574 298 574 c 0,0,1
EndSplineSet
EndChar

StartChar: g
Encoding: 103 103 74
Width: 641
GlyphClass: 2
Flags: W
AnchorPoint: "Anchor-1" 304 0 basechar 0
AnchorPoint: "Anchor-0" 304 510 basechar 0
LayerCount: 2
Fore
SplineSet
566 -82 m 2,0,1
 566 -149 566 -149 546 -177 c 128,-1,2
 526 -205 526 -205 470 -205 c 2,3,-1
 167 -205 l 2,4,5
 134 -205 134 -205 111.5 -195 c 128,-1,6
 89 -185 89 -185 79 -167 c 128,-1,7
 69 -149 69 -149 65.5 -130.5 c 128,-1,8
 62 -112 62 -112 62 -88 c 0,9,10
 62 -48 62 -48 93 -48 c 128,-1,11
 124 -48 124 -48 124 -86 c 0,12,13
 124 -119 124 -119 134.5 -131 c 128,-1,14
 145 -143 145 -143 174 -143 c 2,15,-1
 463 -143 l 2,16,17
 489 -143 489 -143 496.5 -134.5 c 128,-1,18
 504 -126 504 -126 504 -98 c 2,19,-1
 504 0 l 1,20,-1
 298 0 l 2,21,22
 174 0 174 0 118 36 c 128,-1,23
 62 72 62 72 62 177 c 2,24,-1
 62 284 l 2,25,26
 62 389 62 389 118.5 425 c 128,-1,27
 175 461 175 461 299 461 c 2,28,-1
 328 461 l 2,29,30
 444 461 444 461 504 405 c 1,31,-1
 504 428 l 2,32,33
 504 468 504 468 535 468 c 128,-1,34
 566 468 566 468 566 430 c 2,35,-1
 566 -82 l 2,0,1
298 62 m 2,36,-1
 504 62 l 1,37,-1
 504 233 l 2,38,39
 504 399 504 399 328 399 c 2,40,-1
 299 399 l 2,41,42
 195 399 195 399 159.5 379 c 128,-1,43
 124 359 124 359 124 282 c 2,44,-1
 124 179 l 2,45,46
 124 102 124 102 159 82 c 128,-1,47
 194 62 194 62 298 62 c 2,36,-1
EndSplineSet
EndChar

StartChar: h
Encoding: 104 104 75
Width: 648
GlyphClass: 2
Flags: W
AnchorPoint: "Anchor-1" 322 0 basechar 0
AnchorPoint: "Anchor-0" 337 510 basechar 0
LayerCount: 2
Fore
SplineSet
313 399 m 2,0,1
 137 399 137 399 137 230 c 2,2,-1
 137 31 l 2,3,4
 137 -7 137 -7 106 -7 c 128,-1,5
 75 -7 75 -7 75 31 c 2,6,-1
 75 602 l 2,7,8
 75 643 75 643 104 643 c 0,9,10
 137 643 137 643 137 602 c 2,11,-1
 137 405 l 1,12,13
 197 461 197 461 313 461 c 2,14,-1
 342 461 l 2,15,16
 466 461 466 461 522.5 425 c 128,-1,17
 579 389 579 389 579 284 c 2,18,-1
 579 31 l 2,19,20
 579 -7 579 -7 549 -7 c 0,21,22
 517 -7 517 -7 517 31 c 2,23,-1
 517 282 l 2,24,25
 517 359 517 359 481.5 379 c 128,-1,26
 446 399 446 399 342 399 c 2,27,-1
 313 399 l 2,0,1
EndSplineSet
EndChar

StartChar: i
Encoding: 105 105 76
Width: 208
GlyphClass: 2
Flags: W
AnchorPoint: "Anchor-1" 104 0 basechar 0
AnchorPoint: "Anchor-0" 104 678 basechar 0
LayerCount: 2
Fore
SplineSet
73 20 m 2,0,-1
 73 440 l 2,1,2
 73 478 73 478 104 478 c 128,-1,3
 135 478 135 478 135 440 c 2,4,-1
 135 20 l 2,5,6
 135 -17 135 -17 103 -17 c 0,7,8
 73 -17 73 -17 73 20 c 2,0,-1
160 601 m 128,-1,10
 160 582 160 582 141 568.5 c 128,-1,11
 122 555 122 555 104 555 c 0,12,13
 85 555 85 555 66.5 568.5 c 128,-1,14
 48 582 48 582 48 601 c 0,15,16
 48 621 48 621 66 634 c 128,-1,17
 84 647 84 647 104 647 c 0,18,19
 123 647 123 647 141.5 633.5 c 128,-1,9
 160 620 160 620 160 601 c 128,-1,10
EndSplineSet
EndChar

StartChar: j
Encoding: 106 106 77
Width: 212
GlyphClass: 2
Flags: W
AnchorPoint: "Anchor-1" 105 -175 basechar 0
AnchorPoint: "Anchor-0" 106 678 basechar 0
LayerCount: 2
Fore
SplineSet
162 601 m 128,-1,1
 162 582 162 582 143 568.5 c 128,-1,2
 124 555 124 555 106 555 c 0,3,4
 87 555 87 555 68.5 568.5 c 128,-1,5
 50 582 50 582 50 601 c 0,6,7
 50 621 50 621 68 634 c 128,-1,8
 86 647 86 647 106 647 c 0,9,10
 125 647 125 647 143.5 633.5 c 128,-1,0
 162 620 162 620 162 601 c 128,-1,1
137 0 m 2,11,12
 137 -55 137 -55 122 -91 c 128,-1,13
 107 -127 107 -127 76 -145 c 128,-1,14
 45 -163 45 -163 9 -169 c 128,-1,15
 -27 -175 -27 -175 -81 -175 c 0,16,17
 -122 -175 -122 -175 -122 -143 c 0,18,19
 -122 -113 -122 -113 -81 -113 c 0,20,21
 10 -113 10 -113 42.5 -93 c 128,-1,22
 75 -73 75 -73 75 0 c 2,23,-1
 75 427 l 2,24,25
 75 468 75 468 107 468 c 0,26,27
 137 468 137 468 137 427 c 2,28,-1
 137 0 l 2,11,12
EndSplineSet
EndChar

StartChar: k
Encoding: 107 107 78
Width: 476
GlyphClass: 2
Flags: W
AnchorPoint: "Anchor-1" 272 0 basechar 0
AnchorPoint: "Anchor-0" 272 510 basechar 0
LayerCount: 2
Fore
SplineSet
462 23 m 0,0,1
 462 13 462 13 453.5 3.5 c 128,-1,2
 445 -6 445 -6 433 -6 c 0,3,4
 420 -6 420 -6 405 7 c 2,5,-1
 161 233 l 1,6,-1
 137 209 l 1,7,-1
 137 30 l 2,8,9
 137 -7 137 -7 105 -7 c 0,10,11
 75 -7 75 -7 75 28 c 2,12,-1
 75 605 l 2,13,14
 75 643 75 643 106 643 c 128,-1,15
 137 643 137 643 137 605 c 2,16,-1
 137 276 l 1,17,-1
 332 453 l 2,18,19
 345 466 345 466 360 466 c 0,20,21
 371 466 371 466 380.5 457.5 c 128,-1,22
 390 449 390 449 390 436 c 0,23,24
 390 422 390 422 376 410 c 2,25,-1
 205 264 l 1,26,-1
 450 50 l 2,27,28
 462 40 462 40 462 23 c 0,0,1
EndSplineSet
EndChar

StartChar: l
Encoding: 108 108 79
Width: 283
GlyphClass: 2
Flags: W
AnchorPoint: "Anchor-1" 183 0 basechar 0
AnchorPoint: "Anchor-0" 123 678 basechar 0
LayerCount: 2
Fore
SplineSet
203 0 m 2,0,-1
 196 0 l 2,1,2
 135 0 135 0 113 30 c 128,-1,3
 91 60 91 60 91 130 c 2,4,-1
 91 603 l 2,5,6
 91 643 91 643 122 643 c 128,-1,7
 153 643 153 643 153 603 c 2,8,-1
 153 114 l 2,9,10
 153 84 153 84 163.5 73 c 128,-1,11
 174 62 174 62 203 62 c 0,12,13
 243 62 243 62 243 30 c 0,14,15
 243 0 243 0 203 0 c 2,0,-1
EndSplineSet
EndChar

StartChar: m
Encoding: 109 109 80
Width: 850
GlyphClass: 2
Flags: W
AnchorPoint: "Anchor-1" 427 0 basechar 0
AnchorPoint: "Anchor-0" 427 510 basechar 0
LayerCount: 2
Fore
SplineSet
263 399 m 0,0,1
 202 399 202 399 169 355.5 c 128,-1,2
 136 312 136 312 136 230 c 2,3,-1
 136 31 l 2,4,5
 136 -7 136 -7 105 -7 c 128,-1,6
 74 -7 74 -7 74 31 c 2,7,-1
 74 429 l 2,8,9
 74 468 74 468 103 468 c 0,10,11
 136 468 136 468 136 427 c 2,12,-1
 136 406 l 1,13,14
 162 435 162 435 190.5 448 c 128,-1,15
 219 461 219 461 263 461 c 0,16,17
 330 461 330 461 374 445.5 c 128,-1,18
 418 430 418 430 439 386 c 1,19,20
 493 461 493 461 589 461 c 0,21,22
 684 461 684 461 731.5 424.5 c 128,-1,23
 779 388 779 388 779 284 c 2,24,-1
 779 31 l 2,25,26
 779 -7 779 -7 748 -7 c 128,-1,27
 717 -7 717 -7 717 31 c 2,28,-1
 717 282 l 2,29,30
 717 359 717 359 691.5 379 c 128,-1,31
 666 399 666 399 589 399 c 0,32,33
 527 399 527 399 492 355.5 c 128,-1,34
 457 312 457 312 457 230 c 2,35,-1
 457 31 l 2,36,37
 457 -7 457 -7 427 -7 c 0,38,39
 395 -7 395 -7 395 31 c 2,40,-1
 395 282 l 2,41,42
 395 358 395 358 368 378.5 c 128,-1,43
 341 399 341 399 263 399 c 0,0,1
EndSplineSet
EndChar

StartChar: n
Encoding: 110 110 81
Width: 647
GlyphClass: 2
Flags: W
AnchorPoint: "Anchor-1" 321 0 basechar 0
AnchorPoint: "Anchor-0" 326 510 basechar 0
LayerCount: 2
Fore
SplineSet
312 399 m 2,0,1
 136 399 136 399 136 230 c 2,2,-1
 136 31 l 2,3,4
 136 -7 136 -7 105 -7 c 128,-1,5
 74 -7 74 -7 74 31 c 2,6,-1
 74 429 l 2,7,8
 74 468 74 468 103 468 c 0,9,10
 136 468 136 468 136 427 c 2,11,-1
 136 405 l 1,12,13
 196 461 196 461 312 461 c 2,14,-1
 341 461 l 2,15,16
 465 461 465 461 521.5 425 c 128,-1,17
 578 389 578 389 578 284 c 2,18,-1
 578 31 l 2,19,20
 578 -7 578 -7 548 -7 c 0,21,22
 516 -7 516 -7 516 31 c 2,23,-1
 516 282 l 2,24,25
 516 359 516 359 480.5 379 c 128,-1,26
 445 399 445 399 341 399 c 2,27,-1
 312 399 l 2,0,1
EndSplineSet
EndChar

StartChar: o
Encoding: 111 111 82
Width: 628
GlyphClass: 2
Flags: W
AnchorPoint: "Anchor-1" 314 0 basechar 0
AnchorPoint: "Anchor-0" 314 510 basechar 0
LayerCount: 2
Fore
SplineSet
329 0 m 2,0,-1
 300 0 l 2,1,2
 175 0 175 0 118.5 36 c 128,-1,3
 62 72 62 72 62 177 c 2,4,-1
 62 284 l 2,5,6
 62 389 62 389 118.5 425 c 128,-1,7
 175 461 175 461 300 461 c 2,8,-1
 329 461 l 2,9,10
 453 461 453 461 509.5 425 c 128,-1,11
 566 389 566 389 566 284 c 2,12,-1
 566 177 l 2,13,14
 566 72 566 72 509.5 36 c 128,-1,15
 453 0 453 0 329 0 c 2,0,-1
300 62 m 2,16,-1
 329 62 l 2,17,18
 433 62 433 62 468.5 82 c 128,-1,19
 504 102 504 102 504 179 c 2,20,-1
 504 282 l 2,21,22
 504 359 504 359 468.5 379 c 128,-1,23
 433 399 433 399 329 399 c 2,24,-1
 300 399 l 2,25,26
 194 399 194 399 159 378.5 c 128,-1,27
 124 358 124 358 124 282 c 2,28,-1
 124 179 l 2,29,30
 124 103 124 103 159 82.5 c 128,-1,31
 194 62 194 62 300 62 c 2,16,-1
EndSplineSet
EndChar

StartChar: p
Encoding: 112 112 83
Width: 641
GlyphClass: 2
Flags: W
AnchorPoint: "Anchor-1" 327 0 basechar 0
AnchorPoint: "Anchor-0" 327 510 basechar 0
LayerCount: 2
Fore
SplineSet
517 282 m 2,0,1
 517 359 517 359 481.5 379 c 128,-1,2
 446 399 446 399 342 399 c 2,3,-1
 313 399 l 2,4,5
 137 399 137 399 137 232 c 2,6,-1
 137 62 l 1,7,-1
 344 62 l 2,8,9
 447 62 447 62 482 82 c 128,-1,10
 517 102 517 102 517 179 c 2,11,-1
 517 282 l 2,0,1
579 177 m 2,12,13
 579 72 579 72 523 36 c 128,-1,14
 467 0 467 0 344 0 c 2,15,-1
 137 0 l 1,16,-1
 137 -142 l 2,17,18
 137 -182 137 -182 104 -182 c 0,19,20
 75 -182 75 -182 75 -142 c 2,21,-1
 75 430 l 2,22,23
 75 468 75 468 106 468 c 128,-1,24
 137 468 137 468 137 428 c 2,25,-1
 137 405 l 1,26,27
 197 461 197 461 313 461 c 2,28,-1
 342 461 l 2,29,30
 466 461 466 461 522.5 425 c 128,-1,31
 579 389 579 389 579 284 c 2,32,-1
 579 177 l 2,12,13
EndSplineSet
EndChar

StartChar: q
Encoding: 113 113 84
Width: 641
GlyphClass: 2
Flags: W
AnchorPoint: "Anchor-1" 296 0 basechar 0
AnchorPoint: "Anchor-0" 296 510 basechar 0
LayerCount: 2
Fore
SplineSet
124 282 m 2,0,-1
 124 179 l 2,1,2
 124 102 124 102 159 82 c 128,-1,3
 194 62 194 62 298 62 c 2,4,-1
 504 62 l 1,5,-1
 504 232 l 2,6,7
 504 399 504 399 329 399 c 2,8,-1
 300 399 l 2,9,10
 194 399 194 399 159 378.5 c 128,-1,11
 124 358 124 358 124 282 c 2,0,-1
62 177 m 2,12,-1
 62 284 l 2,13,14
 62 389 62 389 118.5 425 c 128,-1,15
 175 461 175 461 300 461 c 2,16,-1
 329 461 l 2,17,18
 445 461 445 461 504 405 c 1,19,-1
 504 428 l 2,20,21
 504 468 504 468 535 468 c 128,-1,22
 566 468 566 468 566 430 c 2,23,-1
 566 -142 l 2,24,25
 566 -182 566 -182 537 -182 c 0,26,27
 504 -182 504 -182 504 -142 c 2,28,-1
 504 0 l 1,29,-1
 298 0 l 2,30,31
 174 0 174 0 118 36 c 128,-1,32
 62 72 62 72 62 177 c 2,12,-1
EndSplineSet
EndChar

StartChar: r
Encoding: 114 114 85
Width: 395
GlyphClass: 2
Flags: W
AnchorPoint: "Anchor-1" 208 0 basechar 0
AnchorPoint: "Anchor-0" 258 510 basechar 0
LayerCount: 2
Fore
SplineSet
292 399 m 2,0,1
 216 399 216 399 176 355.5 c 128,-1,2
 136 312 136 312 136 230 c 2,3,-1
 136 31 l 2,4,5
 136 -7 136 -7 105 -7 c 128,-1,6
 74 -7 74 -7 74 31 c 2,7,-1
 74 429 l 2,8,9
 74 468 74 468 103 468 c 0,10,11
 136 468 136 468 136 427 c 2,12,-1
 136 405 l 1,13,14
 196 461 196 461 292 461 c 2,15,-1
 338 461 l 2,16,17
 378 461 378 461 378 430 c 128,-1,18
 378 399 378 399 338 399 c 2,19,-1
 292 399 l 2,0,1
EndSplineSet
EndChar

StartChar: s
Encoding: 115 115 86
Width: 606
GlyphClass: 2
Flags: W
AnchorPoint: "Anchor-1" 299 0 basechar 0
AnchorPoint: "Anchor-0" 309 510 basechar 0
LayerCount: 2
Fore
SplineSet
165 0 m 2,0,1
 102 0 102 0 81 32 c 128,-1,2
 60 64 60 64 60 116 c 0,3,4
 60 157 60 157 91 157 c 128,-1,5
 122 157 122 157 122 119 c 0,6,7
 122 87 122 87 132.5 74.5 c 128,-1,8
 143 62 143 62 172 62 c 2,9,-1
 430 62 l 2,10,11
 484 62 484 62 484 129 c 0,12,13
 484 163 484 163 469 184 c 128,-1,14
 454 205 454 205 430 205 c 2,15,-1
 194 205 l 2,16,17
 124 205 124 205 92 241 c 128,-1,18
 60 277 60 277 60 337 c 0,19,20
 60 398 60 398 94 429.5 c 128,-1,21
 128 461 128 461 214 461 c 2,22,-1
 439 461 l 2,23,24
 472 461 472 461 494.5 451 c 128,-1,25
 517 441 517 441 527 423 c 128,-1,26
 537 405 537 405 540.5 386.5 c 128,-1,27
 544 368 544 368 544 344 c 0,28,29
 544 304 544 304 513 304 c 128,-1,30
 482 304 482 304 482 342 c 0,31,32
 482 375 482 375 471.5 387 c 128,-1,33
 461 399 461 399 432 399 c 2,34,-1
 176 399 l 2,35,36
 122 399 122 399 122 337 c 0,37,38
 122 303 122 303 137 285 c 128,-1,39
 152 267 152 267 176 267 c 2,40,-1
 413 267 l 2,41,42
 485 267 485 267 515.5 227.5 c 128,-1,43
 546 188 546 188 546 129 c 0,44,45
 546 66 546 66 512 33 c 128,-1,46
 478 0 478 0 393 0 c 2,47,-1
 165 0 l 2,0,1
EndSplineSet
EndChar

StartChar: t
Encoding: 116 116 87
Width: 358
GlyphClass: 2
Flags: W
AnchorPoint: "Anchor-1" 262 0 basechar 0
AnchorPoint: "Anchor-0" 225 510 basechar 0
LayerCount: 2
Fore
SplineSet
140 179 m 2,0,1
 140 103 140 103 173 82.5 c 128,-1,2
 206 62 206 62 296 62 c 0,3,4
 336 62 336 62 336 33 c 0,5,6
 336 0 336 0 296 0 c 0,7,8
 186 0 186 0 132 36.5 c 128,-1,9
 78 73 78 73 78 177 c 2,10,-1
 78 402 l 1,11,12
 47 404 47 404 47 433 c 0,13,14
 47 457 47 457 78 461 c 1,15,-1
 78 560 l 2,16,17
 78 601 78 601 107 601 c 0,18,19
 140 601 140 601 140 560 c 2,20,-1
 140 461 l 1,21,-1
 273 461 l 2,22,23
 314 461 314 461 314 428 c 0,24,25
 314 399 314 399 273 399 c 2,26,-1
 140 399 l 1,27,-1
 140 179 l 2,0,1
EndSplineSet
EndChar

StartChar: u
Encoding: 117 117 88
Width: 647
GlyphClass: 2
Flags: W
AnchorPoint: "Anchor-1" 321 0 basechar 0
AnchorPoint: "Anchor-0" 321 510 basechar 0
LayerCount: 2
Fore
SplineSet
335 62 m 2,0,1
 511 62 511 62 511 231 c 2,2,-1
 511 430 l 2,3,4
 511 468 511 468 542 468 c 128,-1,5
 573 468 573 468 573 430 c 2,6,-1
 573 32 l 2,7,8
 573 -7 573 -7 544 -7 c 0,9,10
 511 -7 511 -7 511 34 c 2,11,-1
 511 56 l 1,12,13
 451 0 451 0 335 0 c 2,14,-1
 306 0 l 2,15,16
 182 0 182 0 125.5 36 c 128,-1,17
 69 72 69 72 69 177 c 2,18,-1
 69 430 l 2,19,20
 69 468 69 468 99 468 c 0,21,22
 131 468 131 468 131 430 c 2,23,-1
 131 179 l 2,24,25
 131 102 131 102 166.5 82 c 128,-1,26
 202 62 202 62 306 62 c 2,27,-1
 335 62 l 2,0,1
EndSplineSet
EndChar

StartChar: v
Encoding: 118 118 89
Width: 521
GlyphClass: 2
Flags: W
AnchorPoint: "Anchor-1" 258 0 basechar 0
AnchorPoint: "Anchor-0" 258 510 basechar 0
LayerCount: 2
Fore
SplineSet
213 0 m 1,0,-1
 33 434 l 2,1,2
 29 444 29 444 29 450 c 0,3,4
 29 478 29 478 58 478 c 0,5,6
 78 478 78 478 91 453 c 1,7,-1
 258 63 l 1,8,-1
 431 454 l 2,9,10
 442 478 442 478 464 478 c 0,11,12
 493 478 493 478 493 451 c 0,13,14
 493 443 493 443 489 434 c 2,15,-1
 297 0 l 1,16,-1
 213 0 l 1,0,-1
EndSplineSet
EndChar

StartChar: w
Encoding: 119 119 90
Width: 814
GlyphClass: 2
Flags: W
AnchorPoint: "Anchor-1" 408 0 basechar 0
AnchorPoint: "Anchor-0" 408 510 basechar 0
LayerCount: 2
Fore
SplineSet
779 430 m 2,0,-1
 623 0 l 1,1,-1
 536 0 l 1,2,-1
 408 364 l 1,3,-1
 269 0 l 1,4,-1
 183 0 l 1,5,-1
 36 430 l 2,6,7
 32 442 32 442 32 448 c 0,8,9
 32 473 32 473 61 473 c 0,10,11
 84 473 84 473 94 448 c 1,12,-1
 229 58 l 1,13,-1
 374 443 l 2,14,15
 384 467 384 467 409 467 c 128,-1,16
 434 467 434 467 442 443 c 2,17,-1
 581 58 l 1,18,-1
 721 448 l 2,19,20
 730 473 730 473 754 473 c 0,21,22
 783 473 783 473 783 448 c 0,23,24
 783 442 783 442 779 430 c 2,0,-1
EndSplineSet
EndChar

StartChar: x
Encoding: 120 120 91
Width: 536
GlyphClass: 2
Flags: W
AnchorPoint: "Anchor-1" 269 0 basechar 0
AnchorPoint: "Anchor-0" 269 510 basechar 0
LayerCount: 2
Fore
SplineSet
494 16 m 0,0,1
 494 5 494 5 484.5 -3 c 128,-1,2
 475 -11 475 -11 464 -11 c 0,3,4
 448 -11 448 -11 436 1 c 1,5,-1
 269 190 l 1,6,-1
 101 1 l 2,7,8
 89 -11 89 -11 72 -11 c 0,9,10
 61 -11 61 -11 51.5 -3 c 128,-1,11
 42 5 42 5 42 16 c 0,12,13
 42 32 42 32 53 43 c 2,14,-1
 224 230 l 1,15,-1
 53 418 l 2,16,17
 42 431 42 431 42 444 c 0,18,19
 42 456 42 456 51.5 464 c 128,-1,20
 61 472 61 472 72 472 c 0,21,22
 89 472 89 472 101 460 c 2,23,-1
 269 271 l 1,24,-1
 436 460 l 1,25,26
 448 472 448 472 464 472 c 0,27,28
 475 472 475 472 484.5 464 c 128,-1,29
 494 456 494 456 494 444 c 0,30,31
 494 431 494 431 483 418 c 2,32,-1
 312 230 l 1,33,-1
 483 43 l 2,34,35
 494 32 494 32 494 16 c 0,0,1
EndSplineSet
EndChar

StartChar: y
Encoding: 121 121 92
Width: 648
GlyphClass: 2
Flags: W
AnchorPoint: "Anchor-1" 321 0 basechar 0
AnchorPoint: "Anchor-0" 321 510 basechar 0
LayerCount: 2
Fore
SplineSet
573 -82 m 2,0,1
 573 -149 573 -149 553 -177 c 128,-1,2
 533 -205 533 -205 477 -205 c 2,3,-1
 174 -205 l 2,4,5
 141 -205 141 -205 118.5 -195 c 128,-1,6
 96 -185 96 -185 86 -167 c 128,-1,7
 76 -149 76 -149 72.5 -130.5 c 128,-1,8
 69 -112 69 -112 69 -88 c 0,9,10
 69 -48 69 -48 100 -48 c 128,-1,11
 131 -48 131 -48 131 -86 c 0,12,13
 131 -119 131 -119 141.5 -131 c 128,-1,14
 152 -143 152 -143 181 -143 c 2,15,-1
 470 -143 l 2,16,17
 496 -143 496 -143 503.5 -134.5 c 128,-1,18
 511 -126 511 -126 511 -98 c 2,19,-1
 511 56 l 1,20,21
 451 0 451 0 335 0 c 2,22,-1
 306 0 l 2,23,24
 182 0 182 0 125.5 36 c 128,-1,25
 69 72 69 72 69 177 c 2,26,-1
 69 430 l 2,27,28
 69 468 69 468 99 468 c 0,29,30
 131 468 131 468 131 430 c 2,31,-1
 131 179 l 2,32,33
 131 102 131 102 166.5 82 c 128,-1,34
 202 62 202 62 306 62 c 2,35,-1
 335 62 l 2,36,37
 511 62 511 62 511 231 c 2,38,-1
 511 430 l 2,39,40
 511 468 511 468 542 468 c 128,-1,41
 573 468 573 468 573 430 c 2,42,-1
 573 -82 l 2,0,1
EndSplineSet
EndChar

StartChar: z
Encoding: 122 122 93
Width: 573
GlyphClass: 2
Flags: W
AnchorPoint: "Anchor-1" 293 0 basechar 0
AnchorPoint: "Anchor-0" 293 510 basechar 0
LayerCount: 2
Fore
SplineSet
143 62 m 1,0,-1
 408 62 l 2,1,2
 441 62 441 62 450 78.5 c 128,-1,3
 459 95 459 95 459 134 c 0,4,5
 459 175 459 175 490 175 c 128,-1,6
 521 175 521 175 521 134 c 0,7,8
 521 62 521 62 499 31 c 128,-1,9
 477 0 477 0 416 0 c 2,10,-1
 59 0 l 1,11,-1
 59 69 l 1,12,-1
 419 399 l 1,13,-1
 171 399 l 2,14,15
 139 399 139 399 130 383 c 128,-1,16
 121 367 121 367 121 327 c 0,17,18
 121 286 121 286 89 286 c 0,19,20
 59 286 59 286 59 327 c 0,21,22
 59 400 59 400 81 430.5 c 128,-1,23
 103 461 103 461 164 461 c 2,24,-1
 500 461 l 1,25,-1
 500 389 l 1,26,-1
 143 62 l 1,0,-1
EndSplineSet
EndChar

StartChar: braceleft
Encoding: 123 123 94
Width: 275
GlyphClass: 2
Flags: W
LayerCount: 2
Fore
SplineSet
39 324 m 1,0,1
 60 335 60 335 86 357.5 c 128,-1,2
 112 380 112 380 112 400 c 0,3,4
 112 416 112 416 98 462.5 c 128,-1,5
 84 509 84 509 84 528 c 0,6,7
 84 582 84 582 93.5 615.5 c 128,-1,8
 103 649 103 649 124 664 c 128,-1,9
 145 679 145 679 166.5 683.5 c 128,-1,10
 188 688 188 688 224 688 c 1,11,-1
 224 626 l 1,12,13
 170 626 170 626 158 611.5 c 128,-1,14
 146 597 146 597 146 528 c 0,15,16
 146 520 146 520 160 473 c 128,-1,17
 174 426 174 426 174 400 c 0,18,19
 174 360 174 360 108 317 c 1,20,21
 174 278 174 278 174 236 c 0,22,23
 174 209 174 209 160 163.5 c 128,-1,24
 146 118 146 118 146 108 c 0,25,26
 146 38 146 38 158 24 c 128,-1,27
 170 10 170 10 224 10 c 1,28,-1
 224 -52 l 1,29,30
 188 -52 188 -52 166.5 -47.5 c 128,-1,31
 145 -43 145 -43 124 -28 c 128,-1,32
 103 -13 103 -13 93.5 20.5 c 128,-1,33
 84 54 84 54 84 108 c 0,34,35
 84 127 84 127 98 173.5 c 128,-1,36
 112 220 112 220 112 236 c 0,37,38
 112 256 112 256 87.5 276.5 c 128,-1,39
 63 297 63 297 39 310 c 1,40,-1
 39 324 l 1,0,1
EndSplineSet
EndChar

StartChar: bar
Encoding: 124 124 95
Width: 224
GlyphClass: 2
Flags: W
LayerCount: 2
Fore
SplineSet
143 29 m 2,0,1
 143 -7 143 -7 111 -7 c 0,2,3
 81 -7 81 -7 81 29 c 2,4,-1
 81 606 l 2,5,6
 81 643 81 643 112 643 c 128,-1,7
 143 643 143 643 143 606 c 2,8,-1
 143 29 l 2,0,1
EndSplineSet
EndChar

StartChar: braceright
Encoding: 125 125 96
Width: 275
GlyphClass: 2
Flags: W
LayerCount: 2
Fore
SplineSet
236 324 m 1,0,-1
 236 310 l 1,1,2
 212 297 212 297 187.5 276.5 c 128,-1,3
 163 256 163 256 163 236 c 0,4,5
 163 220 163 220 177 173.5 c 128,-1,6
 191 127 191 127 191 108 c 0,7,8
 191 54 191 54 181.5 20.5 c 128,-1,9
 172 -13 172 -13 151 -28 c 128,-1,10
 130 -43 130 -43 108.5 -47.5 c 128,-1,11
 87 -52 87 -52 51 -52 c 1,12,-1
 51 10 l 1,13,14
 105 10 105 10 117 24 c 128,-1,15
 129 38 129 38 129 108 c 0,16,17
 129 118 129 118 115 163.5 c 128,-1,18
 101 209 101 209 101 236 c 0,19,20
 101 278 101 278 167 317 c 1,21,22
 101 360 101 360 101 400 c 0,23,24
 101 426 101 426 115 473 c 128,-1,25
 129 520 129 520 129 528 c 0,26,27
 129 597 129 597 117 611.5 c 128,-1,28
 105 626 105 626 51 626 c 1,29,-1
 51 688 l 1,30,31
 87 688 87 688 108.5 683.5 c 128,-1,32
 130 679 130 679 151 664 c 128,-1,33
 172 649 172 649 181.5 615.5 c 128,-1,34
 191 582 191 582 191 528 c 0,35,36
 191 509 191 509 177 462.5 c 128,-1,37
 163 416 163 416 163 400 c 0,38,39
 163 380 163 380 189 357.5 c 128,-1,40
 215 335 215 335 236 324 c 1,0,-1
EndSplineSet
EndChar

StartChar: asciitilde
Encoding: 126 126 97
Width: 431
GlyphClass: 2
Flags: W
LayerCount: 2
Fore
SplineSet
262 241 m 2,0,1
 267 239 267 239 270 239 c 128,-1,2
 273 239 273 239 275 241 c 2,3,-1
 306 269 l 2,4,5
 316 279 316 279 331 279 c 0,6,7
 342 279 342 279 351.5 271 c 128,-1,8
 361 263 361 263 361 250 c 0,9,10
 361 233 361 233 345 220 c 2,11,-1
 300 182 l 1,12,13
 286 172 286 172 277 172 c 0,14,15
 267 172 267 172 263 174 c 2,16,-1
 169 210 l 2,17,18
 164 212 164 212 161 212 c 128,-1,19
 158 212 158 212 156 210 c 2,20,-1
 125 182 l 2,21,22
 115 172 115 172 100 172 c 0,23,24
 89 172 89 172 79.5 180 c 128,-1,25
 70 188 70 188 70 201 c 0,26,27
 70 218 70 218 86 231 c 2,28,-1
 131 269 l 1,29,30
 145 279 145 279 154 279 c 0,31,32
 164 279 164 279 168 277 c 2,33,-1
 262 241 l 2,0,1
EndSplineSet
EndChar

StartChar: exclamdown
Encoding: 161 161 98
Width: 236
GlyphClass: 2
Flags: W
LayerCount: 2
Fore
SplineSet
87 -138 m 2,0,-1
 87 282 l 2,1,2
 87 320 87 320 118 320 c 128,-1,3
 149 320 149 320 149 282 c 2,4,-1
 149 -138 l 2,5,6
 149 -175 149 -175 117 -175 c 0,7,8
 87 -175 87 -175 87 -138 c 2,0,-1
174 450 m 0,9,10
 174 431 174 431 155 417.5 c 128,-1,11
 136 404 136 404 117 404 c 0,12,13
 99 404 99 404 80 417.5 c 128,-1,14
 61 431 61 431 61 450 c 128,-1,15
 61 469 61 469 79.5 482.5 c 128,-1,16
 98 496 98 496 117 496 c 0,17,18
 137 496 137 496 155.5 483 c 128,-1,19
 174 470 174 470 174 450 c 0,9,10
EndSplineSet
EndChar

StartChar: cent
Encoding: 162 162 99
Width: 488
GlyphClass: 2
Flags: W
LayerCount: 2
Fore
SplineSet
218 20 m 2,0,-1
 218 113 l 1,1,2
 133 119 133 119 91 160 c 128,-1,3
 49 201 49 201 49 298 c 2,4,-1
 49 340 l 2,5,6
 49 436 49 436 92 477 c 128,-1,7
 135 518 135 518 218 524 c 1,8,-1
 218 615 l 2,9,10
 218 653 218 653 250 653 c 0,11,12
 280 653 280 653 280 615 c 2,13,-1
 280 525 l 1,14,-1
 327 525 l 2,15,16
 360 525 360 525 382 515.5 c 128,-1,17
 404 506 404 506 414 487.5 c 128,-1,18
 424 469 424 469 427.5 451.5 c 128,-1,19
 431 434 431 434 431 409 c 0,20,21
 431 368 431 368 401 368 c 0,22,23
 369 368 369 368 369 407 c 0,24,25
 369 440 369 440 359 451.5 c 128,-1,26
 349 463 349 463 320 463 c 2,27,-1
 280 463 l 1,28,-1
 280 175 l 1,29,-1
 318 175 l 2,30,31
 348 175 348 175 358.5 187 c 128,-1,32
 369 199 369 199 369 231 c 0,33,34
 369 270 369 270 399 270 c 0,35,36
 431 270 431 270 431 229 c 0,37,38
 431 177 431 177 409.5 145 c 128,-1,39
 388 113 388 113 325 113 c 2,40,-1
 280 113 l 1,41,-1
 280 20 l 2,42,43
 280 -17 280 -17 248 -17 c 0,44,45
 218 -17 218 -17 218 20 c 2,0,-1
218 176 m 1,46,-1
 218 462 l 1,47,48
 160 458 160 458 135.5 433 c 128,-1,49
 111 408 111 408 111 340 c 2,50,-1
 111 298 l 2,51,52
 111 229 111 229 134.5 204.5 c 128,-1,53
 158 180 158 180 218 176 c 1,46,-1
EndSplineSet
EndChar

StartChar: sterling
Encoding: 163 163 100
Width: 512
GlyphClass: 2
Flags: W
LayerCount: 2
Fore
SplineSet
67 33 m 2,0,-1
 105 468 l 2,1,2
 110 525 110 525 127 564 c 128,-1,3
 144 603 144 603 172 621 c 128,-1,4
 200 639 200 639 228.5 646 c 128,-1,5
 257 653 257 653 294 653 c 0,6,7
 368 653 368 653 410 621 c 128,-1,8
 452 589 452 589 452 501 c 0,9,10
 452 463 452 463 420 463 c 0,11,12
 390 463 390 463 390 501 c 0,13,14
 390 558 390 558 367 574.5 c 128,-1,15
 344 591 344 591 290 591 c 0,16,17
 232 591 232 591 203 567.5 c 128,-1,18
 174 544 174 544 167 468 c 2,19,-1
 158 374 l 1,20,-1
 187 374 l 2,21,22
 224 374 224 374 224 342 c 0,23,24
 224 312 224 312 187 312 c 2,25,-1
 154 312 l 1,26,-1
 130 52 l 1,27,-1
 416 52 l 2,28,29
 454 52 454 52 454 20 c 0,30,31
 454 -10 454 -10 416 -10 c 2,32,-1
 93 -10 l 2,33,34
 66 -10 66 -10 66 24 c 0,35,36
 66 30 66 30 67 33 c 2,0,-1
EndSplineSet
EndChar

StartChar: currency
Encoding: 164 164 101
Width: 509
GlyphClass: 2
Flags: W
LayerCount: 2
Fore
SplineSet
155 230 m 128,-1,1
 155 189 155 189 184.5 160 c 128,-1,2
 214 131 214 131 255 131 c 128,-1,3
 296 131 296 131 325 160.5 c 128,-1,4
 354 190 354 190 354 230 c 0,5,6
 354 271 354 271 325 300.5 c 128,-1,7
 296 330 296 330 255 330 c 128,-1,8
 214 330 214 330 184.5 300.5 c 128,-1,0
 155 271 155 271 155 230 c 128,-1,1
126 314 m 1,9,-1
 83 357 l 1,10,11
 70 373 70 373 70 384 c 128,-1,12
 70 395 70 395 80 404.5 c 128,-1,13
 90 414 90 414 100 414 c 0,14,15
 111 414 111 414 127 401 c 1,16,-1
 170 358 l 1,17,18
 208 384 208 384 255 384 c 128,-1,19
 302 384 302 384 339 359 c 1,20,-1
 381 401 l 2,21,22
 395 414 395 414 409 414 c 0,23,24
 418 414 418 414 428.5 406 c 128,-1,25
 439 398 439 398 439 385 c 0,26,27
 439 370 439 370 423 356 c 1,28,-1
 383 315 l 1,29,30
 408 278 408 278 408 230 c 0,31,32
 408 184 408 184 383 146 c 1,33,-1
 424 105 l 2,34,35
 439 89 439 89 439 77 c 0,36,37
 439 66 439 66 429 56 c 128,-1,38
 419 46 419 46 408 46 c 0,39,40
 395 46 395 46 380 62 c 2,41,-1
 339 102 l 1,42,43
 302 77 302 77 255 77 c 128,-1,44
 208 77 208 77 170 103 c 1,45,-1
 128 62 l 1,46,47
 114 46 114 46 99 46 c 0,48,49
 88 46 88 46 79 54.5 c 128,-1,50
 70 63 70 63 70 76 c 0,51,52
 70 90 70 90 83 104 c 2,53,-1
 126 147 l 1,54,55
 101 182 101 182 101 230 c 0,56,57
 101 279 101 279 126 314 c 1,9,-1
EndSplineSet
EndChar

StartChar: yen
Encoding: 165 165 102
Width: 549
GlyphClass: 2
Flags: W
LayerCount: 2
Fore
SplineSet
32 623 m 0,0,1
 32 636 32 636 41.5 644.5 c 128,-1,2
 51 653 51 653 62 653 c 0,3,4
 76 653 76 653 91 633 c 2,5,-1
 275 372 l 1,6,-1
 458 633 l 2,7,8
 471 653 471 653 488 653 c 0,9,10
 498 653 498 653 508 644.5 c 128,-1,11
 518 636 518 636 518 623 c 0,12,13
 518 612 518 612 509 598 c 2,14,-1
 306 306 l 1,15,-1
 306 282 l 1,16,-1
 395 282 l 2,17,18
 433 282 433 282 433 250 c 0,19,20
 433 220 433 220 395 220 c 2,21,-1
 306 220 l 1,22,-1
 306 193 l 1,23,-1
 395 193 l 2,24,25
 433 193 433 193 433 161 c 0,26,27
 433 131 433 131 395 131 c 2,28,-1
 306 131 l 1,29,-1
 306 20 l 2,30,31
 306 -17 306 -17 275 -17 c 0,32,33
 245 -17 245 -17 245 20 c 2,34,-1
 245 131 l 1,35,-1
 150 131 l 2,36,37
 113 131 113 131 113 163 c 0,38,39
 113 193 113 193 150 193 c 2,40,-1
 245 193 l 1,41,-1
 245 220 l 1,42,-1
 150 220 l 2,43,44
 113 220 113 220 113 252 c 0,45,46
 113 282 113 282 150 282 c 2,47,-1
 245 282 l 1,48,-1
 245 306 l 1,49,-1
 41 598 l 1,50,51
 32 614 32 614 32 623 c 0,0,1
EndSplineSet
EndChar

StartChar: brokenbar
Encoding: 166 166 103
Width: 221
GlyphClass: 2
Flags: W
LayerCount: 2
Fore
SplineSet
141 616 m 2,0,-1
 141 401 l 2,1,2
 141 363 141 363 109 363 c 0,3,4
 80 363 80 363 80 401 c 2,5,-1
 80 616 l 2,6,7
 80 653 80 653 111 653 c 0,8,9
 141 653 141 653 141 616 c 2,0,-1
141 237 m 2,10,-1
 141 22 l 2,11,12
 141 -17 141 -17 109 -17 c 0,13,14
 80 -17 80 -17 80 22 c 2,15,-1
 80 237 l 2,16,17
 80 273 80 273 111 273 c 0,18,19
 141 273 141 273 141 237 c 2,10,-1
EndSplineSet
EndChar

StartChar: section
Encoding: 167 167 104
Width: 529
GlyphClass: 2
Flags: W
LayerCount: 2
Fore
SplineSet
454 99 m 0,0,1
 454 -10 454 -10 344 -10 c 2,2,-1
 160 -10 l 2,3,4
 109 -10 109 -10 91.5 16 c 128,-1,5
 74 42 74 42 74 86 c 0,6,7
 74 102 74 102 83 111.5 c 128,-1,8
 92 121 92 121 106 121 c 0,9,10
 119 121 119 121 127.5 111.5 c 128,-1,11
 136 102 136 102 136 88 c 0,12,13
 136 64 136 64 141.5 58 c 128,-1,14
 147 52 147 52 171 52 c 2,15,-1
 355 52 l 2,16,17
 377 52 377 52 384.5 62.5 c 128,-1,18
 392 73 392 73 392 99 c 0,19,20
 392 160 392 160 357 164 c 2,21,-1
 182 189 l 1,22,23
 74 203 74 203 74 306 c 0,24,25
 74 374 74 374 115 400 c 1,26,27
 74 429 74 429 74 495 c 0,28,29
 74 604 74 604 184 604 c 2,30,-1
 369 604 l 2,31,32
 420 604 420 604 437 578 c 128,-1,33
 454 552 454 552 454 508 c 0,34,35
 454 473 454 473 423 473 c 0,36,37
 409 473 409 473 400.5 482.5 c 128,-1,38
 392 492 392 492 392 506 c 0,39,40
 392 530 392 530 386.5 536 c 128,-1,41
 381 542 381 542 357 542 c 2,42,-1
 173 542 l 2,43,44
 151 542 151 542 143.5 531.5 c 128,-1,45
 136 521 136 521 136 495 c 0,46,47
 136 434 136 434 171 430 c 2,48,-1
 346 405 l 1,49,50
 454 391 454 391 454 289 c 0,51,52
 454 219 454 219 413 194 c 1,53,54
 454 165 454 165 454 99 c 0,0,1
136 306 m 0,55,56
 136 270 136 270 186.5 250.5 c 128,-1,57
 237 231 237 231 316 231 c 0,58,59
 365 231 365 231 378.5 240 c 128,-1,60
 392 249 392 249 392 289 c 0,61,62
 392 310 392 310 374.5 325.5 c 128,-1,63
 357 341 357 341 328.5 348.5 c 128,-1,64
 300 356 300 356 271 359.5 c 128,-1,65
 242 363 242 363 212 363 c 0,66,67
 162 363 162 363 149 354 c 128,-1,68
 136 345 136 345 136 306 c 0,55,56
EndSplineSet
EndChar

StartChar: dieresis
Encoding: 168 168 105
Width: 367
GlyphClass: 2
Flags: W
LayerCount: 2
Fore
SplineSet
167 630 m 128,-1,1
 167 611 167 611 148.5 597.5 c 128,-1,2
 130 584 130 584 111 584 c 0,3,4
 91 584 91 584 73 597 c 128,-1,5
 55 610 55 610 55 630 c 0,6,7
 55 649 55 649 73.5 662.5 c 128,-1,8
 92 676 92 676 111 676 c 0,9,10
 129 676 129 676 148 662.5 c 128,-1,0
 167 649 167 649 167 630 c 128,-1,1
313 630 m 128,-1,12
 313 611 313 611 294.5 597.5 c 128,-1,13
 276 584 276 584 257 584 c 0,14,15
 237 584 237 584 219 597 c 128,-1,16
 201 610 201 610 201 630 c 0,17,18
 201 649 201 649 219.5 662.5 c 128,-1,19
 238 676 238 676 257 676 c 0,20,21
 275 676 275 676 294 662.5 c 128,-1,11
 313 649 313 649 313 630 c 128,-1,12
EndSplineSet
EndChar

StartChar: copyright
Encoding: 169 169 106
Width: 622
GlyphClass: 2
Flags: W
LayerCount: 2
Fore
SplineSet
390 341 m 0,0,1
 377 341 377 341 372 348 c 128,-1,2
 367 355 367 355 366.5 363.5 c 128,-1,3
 366 372 366 372 364 373 c 0,4,5
 360 375 360 375 354 375 c 2,6,-1
 306 375 l 2,7,8
 283 375 283 375 269.5 364.5 c 128,-1,9
 256 354 256 354 256 337 c 2,10,-1
 256 298 l 2,11,12
 256 281 256 281 269.5 270.5 c 128,-1,13
 283 260 283 260 306 260 c 2,14,-1
 354 260 l 2,15,16
 363 260 363 260 366 264 c 0,17,18
 366 265 366 265 367 271 c 128,-1,19
 368 277 368 277 369 281.5 c 128,-1,20
 370 286 370 286 375.5 290 c 128,-1,21
 381 294 381 294 390 294 c 0,22,23
 400 294 400 294 408 288 c 128,-1,24
 416 282 416 282 416 272 c 0,25,26
 416 249 416 249 403 229 c 128,-1,27
 390 209 390 209 356 209 c 2,28,-1
 306 209 l 2,29,30
 264 209 264 209 235 232 c 128,-1,31
 206 255 206 255 206 298 c 2,32,-1
 206 337 l 2,33,34
 206 380 206 380 235 403 c 128,-1,35
 264 426 264 426 306 426 c 2,36,-1
 356 426 l 2,37,38
 388 426 388 426 402 406 c 128,-1,39
 416 386 416 386 416 363 c 0,40,41
 416 353 416 353 408 347 c 128,-1,42
 400 341 400 341 390 341 c 0,0,1
79 262 m 2,43,-1
 79 373 l 2,44,45
 79 430 79 430 94 467.5 c 128,-1,46
 109 505 109 505 139.5 524.5 c 128,-1,47
 170 544 170 544 206.5 551 c 128,-1,48
 243 558 243 558 297 558 c 2,49,-1
 326 558 l 2,50,51
 380 558 380 558 416 551 c 128,-1,52
 452 544 452 544 483 524.5 c 128,-1,53
 514 505 514 505 528.5 467.5 c 128,-1,54
 543 430 543 430 543 373 c 2,55,-1
 543 262 l 2,56,57
 543 205 543 205 528.5 167.5 c 128,-1,58
 514 130 514 130 483 110.5 c 128,-1,59
 452 91 452 91 416 84 c 128,-1,60
 380 77 380 77 326 77 c 2,61,-1
 297 77 l 2,62,63
 243 77 243 77 206.5 84 c 128,-1,64
 170 91 170 91 139.5 110.5 c 128,-1,65
 109 130 109 130 94 167.5 c 128,-1,66
 79 205 79 205 79 262 c 2,43,-1
297 139 m 2,67,-1
 326 139 l 2,68,69
 415 139 415 139 448 161 c 128,-1,70
 481 183 481 183 481 262 c 2,71,-1
 481 373 l 2,72,73
 481 452 481 452 448 474 c 128,-1,74
 415 496 415 496 326 496 c 2,75,-1
 297 496 l 2,76,77
 207 496 207 496 174 474 c 128,-1,78
 141 452 141 452 141 373 c 2,79,-1
 141 262 l 2,80,81
 141 183 141 183 174 161 c 128,-1,82
 207 139 207 139 297 139 c 2,67,-1
EndSplineSet
EndChar

StartChar: ordfeminine
Encoding: 170 170 107
Width: 386
GlyphClass: 2
Flags: W
LayerCount: 2
Fore
SplineSet
247 344 m 1,0,-1
 195 344 l 2,1,2
 160 344 160 344 149.5 337.5 c 128,-1,3
 139 331 139 331 139 309 c 0,4,5
 139 302 139 302 143 296 c 128,-1,6
 147 290 147 290 153 290 c 2,7,-1
 190 290 l 2,8,9
 241 290 241 290 247 344 c 1,0,-1
94 209 m 2,10,-1
 290 209 l 2,11,12
 305 209 305 209 314 201 c 128,-1,13
 323 193 323 193 323 180 c 0,14,15
 323 154 323 154 290 154 c 2,16,-1
 94 154 l 2,17,18
 78 154 78 154 70.5 162.5 c 128,-1,19
 63 171 63 171 63 182 c 0,20,21
 63 192 63 192 70.5 200.5 c 128,-1,22
 78 209 78 209 94 209 c 2,10,-1
298 258 m 2,23,24
 298 247 298 247 289.5 241.5 c 128,-1,25
 281 236 281 236 273 236 c 0,26,27
 249 236 249 236 247 257 c 1,28,29
 227 239 227 239 190 239 c 2,30,-1
 153 239 l 2,31,32
 124 239 124 239 106 261 c 128,-1,33
 88 283 88 283 88 311 c 0,34,35
 88 358 88 358 115 376.5 c 128,-1,36
 142 395 142 395 195 395 c 2,37,-1
 247 395 l 1,38,-1
 247 404 l 2,39,40
 247 414 247 414 244 417 c 128,-1,41
 241 420 241 420 232 420 c 2,42,-1
 153 420 l 2,43,44
 143 420 143 420 141 415.5 c 128,-1,45
 139 411 139 411 139 404 c 128,-1,46
 139 397 139 397 136 393 c 0,47,48
 127 382 127 382 114 382 c 0,49,50
 103 382 103 382 95.5 388 c 128,-1,51
 88 394 88 394 88 404 c 0,52,53
 88 432 88 432 105.5 451.5 c 128,-1,54
 123 471 123 471 150 471 c 2,55,-1
 235 471 l 2,56,57
 298 471 298 471 298 397 c 2,58,-1
 298 258 l 2,23,24
EndSplineSet
EndChar

StartChar: guillemotleft
Encoding: 171 171 108
Width: 509
GlyphClass: 2
Flags: W
LayerCount: 2
Fore
SplineSet
390 531 m 2,0,1
 399 540 399 540 416 540 c 0,2,3
 441 540 441 540 441 515 c 0,4,5
 441 497 441 497 426 480 c 1,6,-1
 274 333 l 1,7,-1
 426 185 l 2,8,9
 441 169 441 169 441 150 c 0,10,11
 441 125 441 125 416 125 c 0,12,13
 398 125 398 125 390 133 c 2,14,-1
 208 302 l 1,15,16
 188 318 188 318 188 333 c 0,17,18
 188 345 188 345 208 362 c 1,19,-1
 390 531 l 2,0,1
236 531 m 2,20,21
 245 540 245 540 262 540 c 0,22,23
 287 540 287 540 287 515 c 0,24,25
 287 497 287 497 272 480 c 1,26,-1
 120 333 l 1,27,-1
 272 185 l 2,28,29
 287 169 287 169 287 150 c 0,30,31
 287 125 287 125 262 125 c 0,32,33
 244 125 244 125 236 133 c 2,34,-1
 54 302 l 1,35,36
 34 318 34 318 34 333 c 0,37,38
 34 345 34 345 54 362 c 1,39,-1
 236 531 l 2,20,21
EndSplineSet
EndChar

StartChar: logicalnot
Encoding: 172 172 109
Width: 531
GlyphClass: 2
Flags: W
LayerCount: 2
Fore
SplineSet
419 103 m 0,0,1
 405 103 405 103 397 113.5 c 128,-1,2
 389 124 389 124 389 141 c 2,3,-1
 389 199 l 1,4,-1
 115 199 l 2,5,6
 79 199 79 199 79 231 c 0,7,8
 79 243 79 243 87.5 252.5 c 128,-1,9
 96 262 96 262 115 262 c 2,10,-1
 413 262 l 2,11,12
 452 262 452 262 452 225 c 2,13,-1
 452 141 l 2,14,15
 452 103 452 103 419 103 c 0,0,1
EndSplineSet
EndChar

StartChar: uni00AD
Encoding: 173 173 110
Width: 466
GlyphClass: 2
Flags: W
LayerCount: 2
Fore
SplineSet
109 262 m 2,0,-1
 354 262 l 2,1,2
 393 262 393 262 393 229 c 0,3,4
 393 215 393 215 381.5 207 c 128,-1,5
 370 199 370 199 354 199 c 2,6,-1
 109 199 l 2,7,8
 73 199 73 199 73 231 c 0,9,10
 73 243 73 243 81.5 252.5 c 128,-1,11
 90 262 90 262 109 262 c 2,0,-1
EndSplineSet
EndChar

StartChar: registered
Encoding: 174 174 111
Width: 622
GlyphClass: 2
Flags: W
LayerCount: 2
Fore
SplineSet
297 139 m 2,0,-1
 326 139 l 2,1,2
 415 139 415 139 448 161 c 128,-1,3
 481 183 481 183 481 262 c 2,4,-1
 481 373 l 2,5,6
 481 452 481 452 448 474 c 128,-1,7
 415 496 415 496 326 496 c 2,8,-1
 297 496 l 2,9,10
 207 496 207 496 174 474 c 128,-1,11
 141 452 141 452 141 373 c 2,12,-1
 141 262 l 2,13,14
 141 183 141 183 174 161 c 128,-1,15
 207 139 207 139 297 139 c 2,0,-1
79 262 m 2,16,-1
 79 373 l 2,17,18
 79 430 79 430 94 467.5 c 128,-1,19
 109 505 109 505 139.5 524.5 c 128,-1,20
 170 544 170 544 206.5 551 c 128,-1,21
 243 558 243 558 297 558 c 2,22,-1
 326 558 l 2,23,24
 380 558 380 558 416 551 c 128,-1,25
 452 544 452 544 483 524.5 c 128,-1,26
 514 505 514 505 528.5 467.5 c 128,-1,27
 543 430 543 430 543 373 c 2,28,-1
 543 262 l 2,29,30
 543 205 543 205 528.5 167.5 c 128,-1,31
 514 130 514 130 483 110.5 c 128,-1,32
 452 91 452 91 416 84 c 128,-1,33
 380 77 380 77 326 77 c 2,34,-1
 297 77 l 2,35,36
 243 77 243 77 206.5 84 c 128,-1,37
 170 91 170 91 139.5 110.5 c 128,-1,38
 109 130 109 130 94 167.5 c 128,-1,39
 79 205 79 205 79 262 c 2,16,-1
427 217 m 0,40,41
 427 208 427 208 419 203 c 128,-1,42
 411 198 411 198 403 198 c 0,43,44
 380 198 380 198 376 215 c 0,45,46
 374 226 374 226 356.5 252.5 c 128,-1,47
 339 279 339 279 318 293 c 1,48,-1
 253 293 l 1,49,-1
 253 217 l 2,50,51
 253 198 253 198 228 198 c 0,52,53
 215 198 215 198 208.5 204 c 128,-1,54
 202 210 202 210 202 217 c 2,55,-1
 202 411 l 2,56,57
 202 420 202 420 210.5 425.5 c 128,-1,58
 219 431 219 431 226 431 c 2,59,-1
 310 431 l 2,60,61
 424 431 424 431 424 361 c 0,62,63
 424 341 424 341 412.5 324 c 128,-1,64
 401 307 401 307 380 299 c 1,65,66
 396 282 396 282 411.5 256 c 128,-1,67
 427 230 427 230 427 217 c 0,40,41
310 344 m 2,68,69
 348 344 348 344 360.5 347.5 c 128,-1,70
 373 351 373 351 373 361 c 0,71,72
 373 373 373 373 361 376.5 c 128,-1,73
 349 380 349 380 310 380 c 2,74,-1
 253 380 l 1,75,-1
 253 344 l 1,76,-1
 310 344 l 2,68,69
EndSplineSet
EndChar

StartChar: macron
Encoding: 175 175 112
Width: 429
GlyphClass: 2
Flags: W
LayerCount: 2
Fore
SplineSet
91 731 m 2,0,-1
 336 731 l 2,1,2
 375 731 375 731 375 698 c 0,3,4
 375 684 375 684 363.5 676 c 128,-1,5
 352 668 352 668 336 668 c 2,6,-1
 91 668 l 2,7,8
 55 668 55 668 55 700 c 0,9,10
 55 712 55 712 63.5 721.5 c 128,-1,11
 72 731 72 731 91 731 c 2,0,-1
EndSplineSet
EndChar

StartChar: degree
Encoding: 176 176 113
Width: 413
GlyphClass: 2
Flags: W
LayerCount: 2
Fore
SplineSet
114 535 m 0,0,1
 114 497 114 497 141 469.5 c 128,-1,2
 168 442 168 442 206 442 c 128,-1,3
 244 442 244 442 271.5 469.5 c 128,-1,4
 299 497 299 497 299 535 c 128,-1,5
 299 573 299 573 271.5 600 c 128,-1,6
 244 627 244 627 206 627 c 128,-1,7
 168 627 168 627 141 599.5 c 128,-1,8
 114 572 114 572 114 535 c 0,0,1
360 535 m 0,9,10
 360 471 360 471 315 426 c 128,-1,11
 270 381 270 381 206 381 c 0,12,13
 143 381 143 381 98 426 c 128,-1,14
 53 471 53 471 53 535 c 0,15,16
 53 598 53 598 98 643 c 128,-1,17
 143 688 143 688 206 688 c 0,18,19
 270 688 270 688 315 643 c 128,-1,20
 360 598 360 598 360 535 c 0,9,10
EndSplineSet
EndChar

StartChar: plusminus
Encoding: 177 177 114
Width: 583
GlyphClass: 2
Flags: W
LayerCount: 2
Fore
SplineSet
479 -5 m 2,0,-1
 101 -5 l 2,1,2
 65 -5 65 -5 65 28 c 0,3,4
 65 58 65 58 101 58 c 2,5,-1
 479 58 l 2,6,7
 518 58 518 58 518 25 c 0,8,9
 518 11 518 11 506.5 3 c 128,-1,10
 495 -5 495 -5 479 -5 c 2,0,-1
260 143 m 2,11,-1
 260 260 l 1,12,-1
 101 260 l 2,13,14
 65 260 65 260 65 293 c 0,15,16
 65 323 65 323 101 323 c 2,17,-1
 260 323 l 1,18,-1
 260 440 l 2,19,20
 260 478 260 478 292 478 c 0,21,22
 322 478 322 478 322 440 c 2,23,-1
 322 323 l 1,24,-1
 479 323 l 2,25,26
 518 323 518 323 518 291 c 0,27,28
 518 277 518 277 507 268.5 c 128,-1,29
 496 260 496 260 479 260 c 2,30,-1
 322 260 l 1,31,-1
 322 143 l 2,32,33
 322 106 322 106 291 106 c 128,-1,34
 260 106 260 106 260 143 c 2,11,-1
EndSplineSet
EndChar

StartChar: twosuperior
Encoding: 178 178 115
Width: 340
GlyphClass: 2
Flags: W
LayerCount: 2
Fore
SplineSet
292 477 m 0,0,1
 292 468 292 468 282 459.5 c 128,-1,2
 272 451 272 451 260 451 c 2,3,-1
 47 451 l 1,4,-1
 47 483 l 2,5,6
 47 528 47 528 77 562 c 128,-1,7
 107 596 107 596 143 612.5 c 128,-1,8
 179 629 179 629 209 647.5 c 128,-1,9
 239 666 239 666 239 682 c 0,10,11
 239 711 239 711 225 717.5 c 128,-1,12
 211 724 211 724 162 724 c 2,13,-1
 136 724 l 2,14,15
 103 724 103 724 103 703 c 0,16,17
 103 691 103 691 94.5 683 c 128,-1,18
 86 675 86 675 75 675 c 0,19,20
 66 675 66 675 56.5 683 c 128,-1,21
 47 691 47 691 47 703 c 0,22,23
 47 735 47 735 72.5 756 c 128,-1,24
 98 777 98 777 132 777 c 2,25,-1
 162 777 l 2,26,27
 226 777 226 777 259 759 c 128,-1,28
 292 741 292 741 292 682 c 0,29,30
 292 653 292 653 265 627.5 c 128,-1,31
 238 602 238 602 204.5 586.5 c 128,-1,32
 171 571 171 571 140.5 549 c 128,-1,33
 110 527 110 527 105 504 c 1,34,-1
 260 504 l 1,35,36
 272 503 272 503 282 495.5 c 128,-1,37
 292 488 292 488 292 477 c 0,0,1
EndSplineSet
EndChar

StartChar: threesuperior
Encoding: 179 179 116
Width: 310
GlyphClass: 2
Flags: W
LayerCount: 2
Fore
SplineSet
91 701 m 0,0,1
 91 678 91 678 62 678 c 0,2,3
 51 678 51 678 43 685 c 128,-1,4
 35 692 35 692 35 703 c 0,5,6
 35 729 35 729 65.5 753 c 128,-1,7
 96 777 96 777 142 777 c 0,8,9
 165 777 165 777 178 776.5 c 128,-1,10
 191 776 191 776 210.5 771 c 128,-1,11
 230 766 230 766 240.5 756.5 c 128,-1,12
 251 747 251 747 259.5 728.5 c 128,-1,13
 268 710 268 710 268 684 c 0,14,15
 268 644 268 644 216 618 c 1,16,17
 268 588 268 588 268 540 c 0,18,19
 268 510 268 510 258 490.5 c 128,-1,20
 248 471 248 471 227.5 463 c 128,-1,21
 207 455 207 455 189 453 c 128,-1,22
 171 451 171 451 142 451 c 0,23,24
 96 451 96 451 65.5 475 c 128,-1,25
 35 499 35 499 35 525 c 0,26,27
 35 536 35 536 43 543 c 128,-1,28
 51 550 51 550 62 550 c 0,29,30
 91 550 91 550 91 527 c 0,31,32
 91 517 91 517 109 510.5 c 128,-1,33
 127 504 127 504 146 504 c 0,34,35
 184 504 184 504 200 510 c 128,-1,36
 216 516 216 516 216 541 c 0,37,38
 216 560 216 560 188.5 575.5 c 128,-1,39
 161 591 161 591 134 591 c 0,40,41
 119 591 119 591 112.5 600 c 128,-1,42
 106 609 106 609 106 618 c 0,43,44
 106 629 106 629 114 636.5 c 128,-1,45
 122 644 122 644 134 644 c 0,46,47
 162 644 162 644 189 656.5 c 128,-1,48
 216 669 216 669 216 687 c 0,49,50
 216 704 216 704 206 712.5 c 128,-1,51
 196 721 196 721 183.5 722.5 c 128,-1,52
 171 724 171 724 146 724 c 0,53,54
 127 724 127 724 109 717.5 c 128,-1,55
 91 711 91 711 91 701 c 0,0,1
EndSplineSet
EndChar

StartChar: acute
Encoding: 180 180 117
Width: 212
GlyphClass: 2
Flags: W
LayerCount: 2
Fore
SplineSet
83 517 m 2,0,1
 68 500 68 500 54 500 c 0,2,3
 44 500 44 500 34 508.5 c 128,-1,4
 24 517 24 517 24 530 c 0,5,6
 24 544 24 544 34 556 c 2,7,-1
 130 671 l 2,8,9
 145 688 145 688 159 688 c 0,10,11
 170 688 170 688 179.5 679.5 c 128,-1,12
 189 671 189 671 189 657 c 128,-1,13
 189 643 189 643 179 632 c 2,14,-1
 83 517 l 2,0,1
EndSplineSet
EndChar

StartChar: paragraph
Encoding: 182 182 119
Width: 487
GlyphClass: 2
Flags: W
LayerCount: 2
Fore
SplineSet
335 20 m 2,0,-1
 335 584 l 1,1,-1
 304 584 l 1,2,-1
 304 20 l 2,3,4
 304 -17 304 -17 274 -17 c 0,5,6
 242 -17 242 -17 242 20 c 2,7,-1
 242 327 l 1,8,-1
 210 327 l 2,9,10
 128 327 128 327 81.5 368.5 c 128,-1,11
 35 410 35 410 35 486 c 0,12,13
 35 577 35 577 90 611.5 c 128,-1,14
 145 646 145 646 252 646 c 2,15,-1
 397 646 l 1,16,-1
 397 20 l 2,17,18
 397 -17 397 -17 367 -17 c 0,19,20
 335 -17 335 -17 335 20 c 2,0,-1
EndSplineSet
EndChar

StartChar: periodcentered
Encoding: 183 183 120
Width: 246
GlyphClass: 2
Flags: W
LayerCount: 2
Fore
SplineSet
179 387 m 128,-1,1
 179 368 179 368 160.5 354.5 c 128,-1,2
 142 341 142 341 123 341 c 0,3,4
 103 341 103 341 85 354 c 128,-1,5
 67 367 67 367 67 387 c 0,6,7
 67 406 67 406 85.5 419.5 c 128,-1,8
 104 433 104 433 123 433 c 0,9,10
 141 433 141 433 160 419.5 c 128,-1,0
 179 406 179 406 179 387 c 128,-1,1
EndSplineSet
EndChar

StartChar: cedilla
Encoding: 184 184 121
Width: 242
GlyphClass: 2
Flags: W
LayerCount: 2
Fore
SplineSet
148 10 m 1,0,1
 148 -8 148 -8 165 -21 c 128,-1,2
 182 -34 182 -34 199.5 -50.5 c 128,-1,3
 217 -67 217 -67 217 -94 c 0,4,5
 217 -133 217 -133 187 -156.5 c 128,-1,6
 157 -180 157 -180 116 -180 c 0,7,8
 89 -180 89 -180 60.5 -167 c 128,-1,9
 32 -154 32 -154 32 -125 c 0,10,11
 32 -114 32 -114 38 -108 c 128,-1,12
 44 -102 44 -102 52 -102 c 0,13,14
 62 -102 62 -102 84 -111 c 128,-1,15
 106 -120 106 -120 118 -120 c 0,16,17
 141 -120 141 -120 148 -115 c 128,-1,18
 155 -110 155 -110 155 -99 c 0,19,20
 155 -91 155 -91 144 -81.5 c 128,-1,21
 133 -72 133 -72 120.5 -62.5 c 128,-1,22
 108 -53 108 -53 97 -33.5 c 128,-1,23
 86 -14 86 -14 86 10 c 1,24,-1
 148 10 l 1,0,1
EndSplineSet
EndChar

StartChar: onesuperior
Encoding: 185 185 122
Width: 168
GlyphClass: 2
Flags: W
LayerCount: 2
Fore
SplineSet
20 668 m 0,0,1
 9 668 9 668 2 675.5 c 128,-1,2
 -5 683 -5 683 -5 692 c 0,3,4
 -5 704 -5 704 9 718 c 2,5,-1
 57 768 l 1,6,7
 71 780 71 780 83 780 c 0,8,9
 92 780 92 780 101.5 773 c 128,-1,10
 111 766 111 766 111 751 c 2,11,-1
 111 480 l 2,12,13
 111 448 111 448 84 448 c 128,-1,14
 57 448 57 448 57 480 c 2,15,-1
 57 691 l 1,16,-1
 48 682 l 2,17,18
 34 668 34 668 20 668 c 0,0,1
EndSplineSet
EndChar

StartChar: ordmasculine
Encoding: 186 186 123
Width: 386
GlyphClass: 2
Flags: W
LayerCount: 2
Fore
SplineSet
188 290 m 2,0,-1
 197 290 l 2,1,2
 230 290 230 290 238.5 297 c 128,-1,3
 247 304 247 304 247 333 c 2,4,-1
 247 377 l 2,5,6
 247 406 247 406 238.5 413 c 128,-1,7
 230 420 230 420 197 420 c 2,8,-1
 188 420 l 2,9,10
 156 420 156 420 147.5 413.5 c 128,-1,11
 139 407 139 407 139 377 c 2,12,-1
 139 333 l 2,13,14
 139 303 139 303 147.5 296.5 c 128,-1,15
 156 290 156 290 188 290 c 2,0,-1
88 333 m 2,16,-1
 88 377 l 2,17,18
 88 432 88 432 110.5 451.5 c 128,-1,19
 133 471 133 471 188 471 c 2,20,-1
 197 471 l 2,21,22
 252 471 252 471 275 451.5 c 128,-1,23
 298 432 298 432 298 377 c 2,24,-1
 298 333 l 2,25,26
 298 278 298 278 275.5 258.5 c 128,-1,27
 253 239 253 239 197 239 c 2,28,-1
 188 239 l 2,29,30
 133 239 133 239 110.5 258.5 c 128,-1,31
 88 278 88 278 88 333 c 2,16,-1
94 209 m 2,32,-1
 290 209 l 2,33,34
 305 209 305 209 314 201 c 128,-1,35
 323 193 323 193 323 180 c 0,36,37
 323 154 323 154 290 154 c 2,38,-1
 94 154 l 2,39,40
 78 154 78 154 70.5 162.5 c 128,-1,41
 63 171 63 171 63 182 c 0,42,43
 63 192 63 192 70.5 200.5 c 128,-1,44
 78 209 78 209 94 209 c 2,32,-1
EndSplineSet
EndChar

StartChar: guillemotright
Encoding: 187 187 124
Width: 509
GlyphClass: 2
Flags: W
LayerCount: 2
Fore
SplineSet
273 531 m 2,0,-1
 455 362 l 1,1,2
 475 345 475 345 475 333 c 0,3,4
 475 318 475 318 455 302 c 1,5,-1
 273 133 l 2,6,7
 265 125 265 125 247 125 c 0,8,9
 222 125 222 125 222 150 c 0,10,11
 222 169 222 169 237 185 c 2,12,-1
 389 333 l 1,13,-1
 237 480 l 1,14,15
 222 497 222 497 222 515 c 0,16,17
 222 540 222 540 247 540 c 0,18,19
 264 540 264 540 273 531 c 2,0,-1
119 531 m 2,20,-1
 301 362 l 1,21,22
 321 345 321 345 321 333 c 0,23,24
 321 318 321 318 301 302 c 1,25,-1
 119 133 l 2,26,27
 111 125 111 125 93 125 c 0,28,29
 68 125 68 125 68 150 c 0,30,31
 68 169 68 169 83 185 c 2,32,-1
 235 333 l 1,33,-1
 83 480 l 1,34,35
 68 497 68 497 68 515 c 0,36,37
 68 540 68 540 93 540 c 0,38,39
 110 540 110 540 119 531 c 2,20,-1
EndSplineSet
EndChar

StartChar: onequarter
Encoding: 188 188 125
Width: 594
GlyphClass: 2
Flags: W
LayerCount: 2
Fore
SplineSet
480 18 m 2,0,1
 480 -14 480 -14 453 -14 c 128,-1,2
 426 -14 426 -14 426 18 c 2,3,-1
 426 90 l 1,4,-1
 294 90 l 1,5,-1
 294 149 l 1,6,-1
 418 315 l 1,7,-1
 480 315 l 1,8,-1
 480 143 l 1,9,-1
 519 143 l 2,10,11
 550 143 550 143 550 117 c 0,12,13
 550 90 550 90 519 90 c 2,14,-1
 480 90 l 1,15,-1
 480 18 l 2,0,1
426 143 m 1,16,-1
 426 241 l 1,17,-1
 353 143 l 1,18,-1
 426 143 l 1,16,-1
506 491 m 2,19,-1
 96 81 l 2,20,21
 82 68 82 68 68 68 c 0,22,23
 43 68 43 68 43 93 c 0,24,25
 43 107 43 107 56 121 c 2,26,-1
 466 531 l 2,27,28
 480 544 480 544 494 544 c 0,29,30
 519 544 519 544 519 519 c 0,31,32
 519 505 519 505 506 491 c 2,19,-1
114 534 m 0,33,34
 103 534 103 534 96 541.5 c 128,-1,35
 89 549 89 549 89 558 c 0,36,37
 89 570 89 570 103 584 c 2,38,-1
 151 634 l 1,39,40
 165 646 165 646 177 646 c 0,41,42
 186 646 186 646 195.5 639 c 128,-1,43
 205 632 205 632 205 617 c 2,44,-1
 205 346 l 2,45,46
 205 314 205 314 178 314 c 128,-1,47
 151 314 151 314 151 346 c 2,48,-1
 151 557 l 1,49,-1
 142 548 l 2,50,51
 128 534 128 534 114 534 c 0,33,34
EndSplineSet
EndChar

StartChar: onehalf
Encoding: 189 189 126
Width: 622
GlyphClass: 2
Flags: W
LayerCount: 2
Fore
SplineSet
122 534 m 0,0,1
 111 534 111 534 104 541.5 c 128,-1,2
 97 549 97 549 97 558 c 0,3,4
 97 570 97 570 111 584 c 2,5,-1
 159 634 l 1,6,7
 173 646 173 646 185 646 c 0,8,9
 194 646 194 646 203.5 639 c 128,-1,10
 213 632 213 632 213 617 c 2,11,-1
 213 346 l 2,12,13
 213 314 213 314 186 314 c 128,-1,14
 159 314 159 314 159 346 c 2,15,-1
 159 557 l 1,16,-1
 150 548 l 2,17,18
 136 534 136 534 122 534 c 0,0,1
569 15 m 0,19,20
 569 6 569 6 559 -2.5 c 128,-1,21
 549 -11 549 -11 537 -11 c 2,22,-1
 324 -11 l 1,23,-1
 324 21 l 2,24,25
 324 66 324 66 354 100 c 128,-1,26
 384 134 384 134 420 150.5 c 128,-1,27
 456 167 456 167 486 185.5 c 128,-1,28
 516 204 516 204 516 220 c 0,29,30
 516 249 516 249 502 255.5 c 128,-1,31
 488 262 488 262 439 262 c 2,32,-1
 413 262 l 2,33,34
 380 262 380 262 380 241 c 0,35,36
 380 229 380 229 371.5 221 c 128,-1,37
 363 213 363 213 352 213 c 0,38,39
 343 213 343 213 333.5 221 c 128,-1,40
 324 229 324 229 324 241 c 0,41,42
 324 273 324 273 349.5 294 c 128,-1,43
 375 315 375 315 409 315 c 2,44,-1
 439 315 l 2,45,46
 503 315 503 315 536 297 c 128,-1,47
 569 279 569 279 569 220 c 0,48,49
 569 191 569 191 542 165.5 c 128,-1,50
 515 140 515 140 481.5 124.5 c 128,-1,51
 448 109 448 109 417.5 87 c 128,-1,52
 387 65 387 65 382 42 c 1,53,-1
 537 42 l 1,54,55
 549 41 549 41 559 33.5 c 128,-1,56
 569 26 569 26 569 15 c 0,19,20
503 491 m 2,57,-1
 93 81 l 2,58,59
 79 68 79 68 65 68 c 0,60,61
 40 68 40 68 40 93 c 0,62,63
 40 107 40 107 53 121 c 2,64,-1
 463 531 l 2,65,66
 477 544 477 544 491 544 c 0,67,68
 516 544 516 544 516 519 c 0,69,70
 516 505 516 505 503 491 c 2,57,-1
EndSplineSet
EndChar

StartChar: threequarters
Encoding: 190 190 127
Width: 641
GlyphClass: 2
Flags: W
LayerCount: 2
Fore
SplineSet
119 570 m 0,0,1
 119 547 119 547 90 547 c 0,2,3
 79 547 79 547 71 554 c 128,-1,4
 63 561 63 561 63 572 c 0,5,6
 63 598 63 598 93.5 622 c 128,-1,7
 124 646 124 646 170 646 c 0,8,9
 193 646 193 646 206 645.5 c 128,-1,10
 219 645 219 645 238.5 640 c 128,-1,11
 258 635 258 635 268.5 625.5 c 128,-1,12
 279 616 279 616 287.5 597.5 c 128,-1,13
 296 579 296 579 296 553 c 0,14,15
 296 513 296 513 244 487 c 1,16,17
 296 457 296 457 296 409 c 0,18,19
 296 379 296 379 286 359.5 c 128,-1,20
 276 340 276 340 255.5 332 c 128,-1,21
 235 324 235 324 217 322 c 128,-1,22
 199 320 199 320 170 320 c 0,23,24
 124 320 124 320 93.5 344 c 128,-1,25
 63 368 63 368 63 394 c 0,26,27
 63 405 63 405 71 412 c 128,-1,28
 79 419 79 419 90 419 c 0,29,30
 119 419 119 419 119 396 c 0,31,32
 119 386 119 386 137 379.5 c 128,-1,33
 155 373 155 373 174 373 c 0,34,35
 212 373 212 373 228 379 c 128,-1,36
 244 385 244 385 244 410 c 0,37,38
 244 429 244 429 216.5 444.5 c 128,-1,39
 189 460 189 460 162 460 c 0,40,41
 147 460 147 460 140.5 469 c 128,-1,42
 134 478 134 478 134 487 c 0,43,44
 134 498 134 498 142 505.5 c 128,-1,45
 150 513 150 513 162 513 c 0,46,47
 190 513 190 513 217 525.5 c 128,-1,48
 244 538 244 538 244 556 c 0,49,50
 244 573 244 573 234 581.5 c 128,-1,51
 224 590 224 590 211.5 591.5 c 128,-1,52
 199 593 199 593 174 593 c 0,53,54
 155 593 155 593 137 586.5 c 128,-1,55
 119 580 119 580 119 570 c 0,0,1
557 491 m 2,56,-1
 147 81 l 2,57,58
 133 68 133 68 119 68 c 0,59,60
 94 68 94 68 94 93 c 0,61,62
 94 107 94 107 107 121 c 2,63,-1
 517 531 l 2,64,65
 531 544 531 544 545 544 c 0,66,67
 570 544 570 544 570 519 c 0,68,69
 570 505 570 505 557 491 c 2,56,-1
526 18 m 2,70,71
 526 -14 526 -14 499 -14 c 128,-1,72
 472 -14 472 -14 472 18 c 2,73,-1
 472 90 l 1,74,-1
 340 90 l 1,75,-1
 340 149 l 1,76,-1
 464 315 l 1,77,-1
 526 315 l 1,78,-1
 526 143 l 1,79,-1
 565 143 l 2,80,81
 596 143 596 143 596 117 c 0,82,83
 596 90 596 90 565 90 c 2,84,-1
 526 90 l 1,85,-1
 526 18 l 2,70,71
472 143 m 1,86,-1
 472 241 l 1,87,-1
 399 143 l 1,88,-1
 472 143 l 1,86,-1
EndSplineSet
EndChar

StartChar: questiondown
Encoding: 191 191 128
Width: 537
GlyphClass: 2
Flags: W
LayerCount: 2
Fore
SplineSet
229 450 m 0,0,1
 229 470 229 470 247.5 483 c 128,-1,2
 266 496 266 496 286 496 c 0,3,4
 305 496 305 496 323.5 482.5 c 128,-1,5
 342 469 342 469 342 450 c 128,-1,6
 342 431 342 431 323 417.5 c 128,-1,7
 304 404 304 404 286 404 c 0,8,9
 267 404 267 404 248 417.5 c 128,-1,10
 229 431 229 431 229 450 c 0,0,1
286 323 m 0,11,12
 316 323 316 323 316 285 c 2,13,-1
 316 137 l 1,14,-1
 155 93 l 2,15,16
 132 87 132 87 115.5 60 c 128,-1,17
 99 33 99 33 99 -5 c 0,18,19
 99 -45 99 -45 121.5 -79 c 128,-1,20
 144 -113 144 -113 191 -113 c 2,21,-1
 285 -113 l 2,22,23
 332 -113 332 -113 357 -110 c 128,-1,24
 382 -107 382 -107 403.5 -94.5 c 128,-1,25
 425 -82 425 -82 432.5 -58 c 128,-1,26
 440 -34 440 -34 440 8 c 0,27,28
 440 25 440 25 448.5 35.5 c 128,-1,29
 457 46 457 46 471 46 c 0,30,31
 503 46 503 46 503 8 c 0,32,33
 503 -50 503 -50 488 -87 c 128,-1,34
 473 -124 473 -124 442 -143 c 128,-1,35
 411 -162 411 -162 375 -168.5 c 128,-1,36
 339 -175 339 -175 285 -175 c 2,37,-1
 209 -175 l 2,38,39
 118 -175 118 -175 77.5 -125 c 128,-1,40
 37 -75 37 -75 37 -5 c 0,41,42
 37 63 37 63 67 101.5 c 128,-1,43
 97 140 97 140 169 160 c 2,44,-1
 254 184 l 1,45,-1
 254 285 l 2,46,47
 254 323 254 323 286 323 c 0,11,12
EndSplineSet
EndChar

StartChar: AE
Encoding: 198 198 135
Width: 884
GlyphClass: 2
Flags: W
AnchorPoint: "Anchor-1" 434 0 basechar 0
AnchorPoint: "Anchor-0" 434 678 basechar 0
LayerCount: 2
Fore
SplineSet
465 322 m 1,0,-1
 465 62 l 1,1,-1
 797 62 l 2,2,3
 836 62 836 62 836 29 c 0,4,5
 836 0 836 0 797 0 c 2,6,-1
 431 0 l 2,7,8
 402 0 402 0 402 40 c 2,9,-1
 402 189 l 1,10,-1
 191 189 l 1,11,-1
 71 9 l 2,12,13
 54 -16 54 -16 34 -16 c 0,14,15
 26 -16 26 -16 17.5 -10.5 c 128,-1,16
 9 -5 9 -5 9 7 c 0,17,18
 9 18 9 18 18 32 c 2,19,-1
 408 624 l 2,20,21
 416 636 416 636 431 636 c 2,22,-1
 797 636 l 2,23,24
 836 636 836 636 836 603 c 0,25,26
 836 574 836 574 797 574 c 2,27,-1
 465 574 l 1,28,-1
 465 384 l 1,29,-1
 677 384 l 2,30,31
 719 384 719 384 719 351 c 0,32,33
 719 322 719 322 677 322 c 2,34,-1
 465 322 l 1,0,-1
232 251 m 1,35,-1
 402 251 l 1,36,-1
 402 511 l 1,37,-1
 232 251 l 1,35,-1
EndSplineSet
EndChar

StartChar: Ccedilla
Encoding: 199 199 136
Width: 610
GlyphClass: 2
Flags: W
LayerCount: 2
Fore
SplineSet
288 0 m 1,0,1
 174 2 174 2 122.5 40 c 128,-1,2
 71 78 71 78 71 182 c 2,3,-1
 71 454 l 2,4,5
 71 562 71 562 125.5 599 c 128,-1,6
 180 636 180 636 297 636 c 2,7,-1
 450 636 l 2,8,9
 513 636 513 636 534 604 c 128,-1,10
 555 572 555 572 555 519 c 0,11,12
 555 479 555 479 524 479 c 128,-1,13
 493 479 493 479 493 517 c 0,14,15
 493 550 493 550 482.5 562 c 128,-1,16
 472 574 472 574 443 574 c 2,17,-1
 297 574 l 2,18,19
 201 574 201 574 167 552.5 c 128,-1,20
 133 531 133 531 133 453 c 2,21,-1
 133 183 l 2,22,23
 133 104 133 104 168.5 83 c 128,-1,24
 204 62 204 62 309 62 c 2,25,-1
 443 62 l 2,26,27
 472 62 472 62 482.5 74.5 c 128,-1,28
 493 87 493 87 493 119 c 0,29,30
 493 157 493 157 524 157 c 128,-1,31
 555 157 555 157 555 116 c 0,32,33
 555 64 555 64 534 32 c 128,-1,34
 513 0 513 0 450 0 c 2,35,-1
 351 0 l 1,36,37
 354 -11 354 -11 365.5 -21 c 128,-1,38
 377 -31 377 -31 388.5 -38 c 128,-1,39
 400 -45 400 -45 409.5 -59.5 c 128,-1,40
 419 -74 419 -74 419 -94 c 0,41,42
 419 -133 419 -133 389 -156.5 c 128,-1,43
 359 -180 359 -180 318 -180 c 0,44,45
 291 -180 291 -180 262.5 -167 c 128,-1,46
 234 -154 234 -154 234 -125 c 0,47,48
 234 -114 234 -114 240 -108 c 128,-1,49
 246 -102 246 -102 254 -102 c 0,50,51
 264 -102 264 -102 286 -111 c 128,-1,52
 308 -120 308 -120 320 -120 c 0,53,54
 343 -120 343 -120 350 -115 c 128,-1,55
 357 -110 357 -110 357 -99 c 0,56,57
 357 -90 357 -90 341 -78.5 c 128,-1,58
 325 -67 325 -67 308 -47 c 128,-1,59
 291 -27 291 -27 288 0 c 1,0,1
EndSplineSet
EndChar

StartChar: Eth
Encoding: 208 208 145
Width: 639
GlyphClass: 2
Flags: W
LayerCount: 2
Fore
SplineSet
506 183 m 2,0,-1
 506 453 l 2,1,2
 506 532 506 532 472 553 c 128,-1,3
 438 574 438 574 343 574 c 2,4,-1
 146 574 l 1,5,-1
 146 356 l 1,6,-1
 240 356 l 2,7,8
 279 356 279 356 279 324 c 0,9,10
 279 293 279 293 240 293 c 2,11,-1
 146 293 l 1,12,-1
 146 62 l 1,13,-1
 331 62 l 2,14,15
 435 62 435 62 470.5 83 c 128,-1,16
 506 104 506 104 506 183 c 2,0,-1
568 454 m 2,17,-1
 568 182 l 2,18,19
 568 73 568 73 512 36.5 c 128,-1,20
 456 0 456 0 331 0 c 2,21,-1
 113 0 l 2,22,23
 84 0 84 0 84 40 c 2,24,-1
 84 293 l 1,25,26
 47 293 47 293 47 326 c 0,27,28
 47 356 47 356 84 356 c 1,29,-1
 84 596 l 2,30,31
 84 636 84 636 113 636 c 2,32,-1
 343 636 l 2,33,34
 459 636 459 636 513.5 599 c 128,-1,35
 568 562 568 562 568 454 c 2,17,-1
EndSplineSet
EndChar

StartChar: multiply
Encoding: 215 215 152
Width: 502
GlyphClass: 2
Flags: W
LayerCount: 2
Fore
SplineSet
429 83 m 0,0,1
 429 71 429 71 419 61.5 c 128,-1,2
 409 52 409 52 398 52 c 0,3,4
 385 52 385 52 372 65 c 2,5,-1
 250 187 l 1,6,-1
 123 60 l 2,7,8
 111 47 111 47 96 47 c 0,9,10
 84 47 84 47 75 55 c 128,-1,11
 66 63 66 63 66 74 c 0,12,13
 66 89 66 89 81 102 c 1,14,-1
 208 229 l 1,15,-1
 86 351 l 2,16,17
 74 363 74 363 74 377 c 0,18,19
 74 389 74 389 83 398.5 c 128,-1,20
 92 408 92 408 103 408 c 0,21,22
 117 408 117 408 130 395 c 2,23,-1
 252 273 l 1,24,-1
 379 400 l 1,25,26
 391 414 391 414 407 414 c 0,27,28
 418 414 418 414 426.5 405 c 128,-1,29
 435 396 435 396 435 386 c 0,30,31
 435 372 435 372 421 358 c 2,32,-1
 294 231 l 1,33,-1
 416 109 l 2,34,35
 429 96 429 96 429 83 c 0,0,1
EndSplineSet
EndChar

StartChar: Oslash
Encoding: 216 216 153
Width: 614
GlyphClass: 2
Flags: W
AnchorPoint: "Anchor-1" 307 0 basechar 0
AnchorPoint: "Anchor-0" 307 678 basechar 0
LayerCount: 2
Fore
SplineSet
307 583 m 0,0,1
 220 583 220 583 173.5 536 c 128,-1,2
 127 489 127 489 127 405 c 2,3,-1
 127 231 l 2,4,5
 127 185 127 185 141 148 c 1,6,-1
 437 540 l 1,7,8
 389 583 389 583 307 583 c 0,0,1
521 632 m 0,9,10
 533 632 533 632 542.5 623 c 128,-1,11
 552 614 552 614 552 602 c 0,12,13
 552 591 552 591 542 577 c 2,14,-1
 515 541 l 1,15,16
 549 484 549 484 549 407 c 2,17,-1
 549 229 l 2,18,19
 549 118 549 118 481.5 54.5 c 128,-1,20
 414 -9 414 -9 307 -9 c 0,21,22
 206 -9 206 -9 142 46 c 1,23,-1
 123 21 l 2,24,25
 110 4 110 4 95 4 c 0,26,27
 84 4 84 4 73.5 12.5 c 128,-1,28
 63 21 63 21 63 33 c 0,29,30
 63 44 63 44 73 58 c 2,31,-1
 100 94 l 1,32,33
 65 151 65 151 65 229 c 2,34,-1
 65 407 l 2,35,36
 65 518 65 518 132 581.5 c 128,-1,37
 199 645 199 645 307 645 c 0,38,39
 409 645 409 645 473 589 c 1,40,-1
 493 615 l 2,41,42
 506 632 506 632 521 632 c 0,9,10
473 486 m 1,43,-1
 178 95 l 1,44,45
 226 53 226 53 307 53 c 0,46,47
 395 53 395 53 441 99.5 c 128,-1,48
 487 146 487 146 487 231 c 2,49,-1
 487 405 l 2,50,51
 487 449 487 449 473 486 c 1,43,-1
EndSplineSet
EndChar

StartChar: Thorn
Encoding: 222 222 159
Width: 540
GlyphClass: 2
Flags: W
LayerCount: 2
Fore
SplineSet
146 471 m 1,0,-1
 323 471 l 2,1,2
 409 471 409 471 457 431 c 128,-1,3
 505 391 505 391 505 315 c 0,4,5
 505 238 505 238 457 197.5 c 128,-1,6
 409 157 409 157 322 157 c 2,7,-1
 146 157 l 1,8,-1
 146 30 l 2,9,10
 146 -7 146 -7 114 -7 c 0,11,12
 84 -7 84 -7 84 30 c 2,13,-1
 84 573 l 2,14,15
 84 611 84 611 115 611 c 128,-1,16
 146 611 146 611 146 573 c 2,17,-1
 146 471 l 1,0,-1
275 409 m 2,18,-1
 146 409 l 1,19,-1
 146 213 l 1,20,-1
 274 213 l 2,21,22
 372 213 372 213 407 232 c 128,-1,23
 442 251 442 251 442 311 c 0,24,25
 442 370 442 370 406 389.5 c 128,-1,26
 370 409 370 409 275 409 c 2,18,-1
EndSplineSet
EndChar

StartChar: germandbls
Encoding: 223 223 160
Width: 485
GlyphClass: 2
Flags: W
LayerCount: 2
Fore
SplineSet
164 347 m 1,0,-1
 164 406 l 1,1,2
 316 406 316 406 316 517 c 0,3,4
 316 543 316 543 294.5 558.5 c 128,-1,5
 273 574 273 574 235 574 c 0,6,7
 175 574 175 574 150 553.5 c 128,-1,8
 125 533 125 533 125 461 c 2,9,-1
 125 34 l 2,10,11
 125 -7 125 -7 92 -7 c 0,12,13
 63 -7 63 -7 63 33 c 2,14,-1
 63 402 l 1,15,16
 32 404 32 404 32 433 c 0,17,18
 32 457 32 457 63 461 c 1,19,20
 65 515 65 515 79.5 551 c 128,-1,21
 94 587 94 587 119.5 604.5 c 128,-1,22
 145 622 145 622 172 629 c 128,-1,23
 199 636 199 636 235 636 c 0,24,25
 305 636 305 636 341.5 600 c 128,-1,26
 378 564 378 564 378 515 c 0,27,28
 378 431 378 431 310 382 c 1,29,30
 446 339 446 339 446 197 c 0,31,32
 446 132 446 132 431 86.5 c 128,-1,33
 416 41 416 41 390.5 19.5 c 128,-1,34
 365 -2 365 -2 340.5 -11 c 128,-1,35
 316 -20 316 -20 288 -20 c 0,36,37
 239 -20 239 -20 195.5 10.5 c 128,-1,38
 152 41 152 41 152 96 c 0,39,40
 152 137 152 137 187 137 c 128,-1,41
 222 137 222 137 222 98 c 0,42,43
 222 68 222 68 244.5 55 c 128,-1,44
 267 42 267 42 297 42 c 0,45,46
 384 42 384 42 384 199 c 0,47,48
 384 219 384 219 379.5 237.5 c 128,-1,49
 375 256 375 256 360.5 276.5 c 128,-1,50
 346 297 346 297 322.5 312 c 128,-1,51
 299 327 299 327 258.5 337 c 128,-1,52
 218 347 218 347 164 347 c 1,0,-1
EndSplineSet
EndChar

StartChar: ae
Encoding: 230 230 167
Width: 964
GlyphClass: 2
Flags: W
AnchorPoint: "Anchor-1" 459 0 basechar 0
AnchorPoint: "Anchor-0" 484 510 basechar 0
LayerCount: 2
Fore
SplineSet
288 238 m 2,0,1
 190 238 190 238 156 217.5 c 128,-1,2
 122 197 122 197 122 121 c 0,3,4
 122 98 122 98 138 80 c 128,-1,5
 154 62 154 62 172 62 c 2,6,-1
 265 62 l 2,7,8
 358 62 358 62 396 109 c 128,-1,9
 434 156 434 156 434 228 c 1,10,-1
 432 238 l 1,11,-1
 288 238 l 2,0,1
677 399 m 2,12,-1
 669 399 l 2,13,14
 572 399 572 399 536 380.5 c 128,-1,15
 500 362 500 362 497 300 c 1,16,-1
 842 300 l 1,17,18
 839 362 839 362 804 380.5 c 128,-1,19
 769 399 769 399 677 399 c 2,12,-1
904 284 m 2,20,-1
 904 238 l 1,21,-1
 497 238 l 1,22,-1
 499 179 l 1,23,24
 499 103 499 103 533.5 82.5 c 128,-1,25
 568 62 568 62 669 62 c 2,26,-1
 792 62 l 2,27,28
 821 62 821 62 831.5 74.5 c 128,-1,29
 842 87 842 87 842 119 c 0,30,31
 842 157 842 157 873 157 c 128,-1,32
 904 157 904 157 904 116 c 0,33,34
 904 64 904 64 883 32 c 128,-1,35
 862 0 862 0 799 0 c 2,36,-1
 669 0 l 2,37,38
 586 0 586 0 534.5 15.5 c 128,-1,39
 483 31 483 31 458 74 c 1,40,41
 427 39 427 39 370 19.5 c 128,-1,42
 313 0 313 0 265 0 c 2,43,-1
 172 0 l 2,44,45
 123 0 123 0 91.5 34.5 c 128,-1,46
 60 69 60 69 60 126 c 0,47,48
 60 227 60 227 116 263.5 c 128,-1,49
 172 300 172 300 288 300 c 2,50,-1
 432 300 l 1,51,-1
 432 350 l 2,52,53
 432 378 432 378 421 388.5 c 128,-1,54
 410 399 410 399 380 399 c 2,55,-1
 239 399 l 2,56,57
 122 399 122 399 122 344 c 0,58,59
 122 304 122 304 90 304 c 0,60,61
 60 304 60 304 60 344 c 0,62,63
 60 404 60 404 107.5 432.5 c 128,-1,64
 155 461 155 461 232 461 c 2,65,-1
 387 461 l 2,66,67
 460 461 460 461 482 418 c 1,68,69
 532 461 532 461 669 461 c 2,70,-1
 677 461 l 2,71,72
 794 461 794 461 849 425 c 128,-1,73
 904 389 904 389 904 284 c 2,20,-1
EndSplineSet
EndChar

StartChar: ccedilla
Encoding: 231 231 168
Width: 604
GlyphClass: 2
Flags: W
LayerCount: 2
Fore
SplineSet
269 0 m 1,0,1
 161 3 161 3 111.5 40.5 c 128,-1,2
 62 78 62 78 62 177 c 2,3,-1
 62 284 l 2,4,5
 62 389 62 389 118.5 425 c 128,-1,6
 175 461 175 461 300 461 c 2,7,-1
 441 461 l 2,8,9
 474 461 474 461 496.5 451 c 128,-1,10
 519 441 519 441 529 423 c 128,-1,11
 539 405 539 405 542.5 386.5 c 128,-1,12
 546 368 546 368 546 344 c 0,13,14
 546 304 546 304 515 304 c 128,-1,15
 484 304 484 304 484 342 c 0,16,17
 484 375 484 375 473.5 387 c 128,-1,18
 463 399 463 399 434 399 c 2,19,-1
 300 399 l 2,20,21
 194 399 194 399 159 378.5 c 128,-1,22
 124 358 124 358 124 282 c 2,23,-1
 124 179 l 2,24,25
 124 103 124 103 159 82.5 c 128,-1,26
 194 62 194 62 300 62 c 2,27,-1
 434 62 l 2,28,29
 463 62 463 62 473.5 74.5 c 128,-1,30
 484 87 484 87 484 119 c 0,31,32
 484 157 484 157 515 157 c 128,-1,33
 546 157 546 157 546 116 c 0,34,35
 546 64 546 64 525 32 c 128,-1,36
 504 0 504 0 441 0 c 2,37,-1
 332 0 l 1,38,39
 335 -11 335 -11 346.5 -21 c 128,-1,40
 358 -31 358 -31 369.5 -38 c 128,-1,41
 381 -45 381 -45 390.5 -59.5 c 128,-1,42
 400 -74 400 -74 400 -94 c 0,43,44
 400 -133 400 -133 370 -156.5 c 128,-1,45
 340 -180 340 -180 299 -180 c 0,46,47
 272 -180 272 -180 243.5 -167 c 128,-1,48
 215 -154 215 -154 215 -125 c 0,49,50
 215 -114 215 -114 221 -108 c 128,-1,51
 227 -102 227 -102 235 -102 c 0,52,53
 245 -102 245 -102 267 -111 c 128,-1,54
 289 -120 289 -120 301 -120 c 0,55,56
 324 -120 324 -120 331 -115 c 128,-1,57
 338 -110 338 -110 338 -99 c 0,58,59
 338 -90 338 -90 322 -78.5 c 128,-1,60
 306 -67 306 -67 289 -47 c 128,-1,61
 272 -27 272 -27 269 0 c 1,0,1
EndSplineSet
EndChar

StartChar: eth
Encoding: 240 240 177
Width: 584
GlyphClass: 2
Flags: W
LayerCount: 2
Fore
SplineSet
157 573 m 0,0,1
 121 573 121 573 121 603 c 0,2,3
 121 636 121 636 157 636 c 0,4,5
 230 636 230 636 296 611 c 1,6,-1
 328 641 l 2,7,8
 343 654 343 654 359 654 c 0,9,10
 370 654 370 654 380.5 646 c 128,-1,11
 391 638 391 638 391 625 c 0,12,13
 391 611 391 611 376 596 c 1,14,-1
 359 581 l 1,15,16
 530 475 530 475 530 223 c 0,17,18
 530 125 530 125 470 54.5 c 128,-1,19
 410 -16 410 -16 305 -16 c 0,20,21
 189 -16 189 -16 117.5 47 c 128,-1,22
 46 110 46 110 46 220 c 128,-1,23
 46 330 46 330 117.5 393 c 128,-1,24
 189 456 189 456 305 456 c 0,25,26
 372 456 372 456 422 427 c 1,27,28
 384 495 384 495 310 535 c 1,29,-1
 260 490 l 2,30,31
 247 477 247 477 232 477 c 0,32,33
 220 477 220 477 208.5 485.5 c 128,-1,34
 197 494 197 494 197 507 c 0,35,36
 197 519 197 519 213 535 c 1,37,-1
 243 561 l 1,38,39
 199 573 199 573 157 573 c 0,0,1
468 221 m 0,40,41
 468 293 468 293 428 343.5 c 128,-1,42
 388 394 388 394 305 394 c 0,43,44
 215 394 215 394 161.5 346.5 c 128,-1,45
 108 299 108 299 108 220 c 0,46,47
 108 143 108 143 160.5 94.5 c 128,-1,48
 213 46 213 46 305 46 c 0,49,50
 385 46 385 46 426.5 100.5 c 128,-1,51
 468 155 468 155 468 221 c 0,40,41
EndSplineSet
EndChar

StartChar: divide
Encoding: 247 247 184
Width: 439
GlyphClass: 2
Flags: W
LayerCount: 2
Fore
SplineSet
95 262 m 2,0,-1
 340 262 l 2,1,2
 379 262 379 262 379 229 c 0,3,4
 379 215 379 215 367.5 207 c 128,-1,5
 356 199 356 199 340 199 c 2,6,-1
 95 199 l 2,7,8
 59 199 59 199 59 231 c 0,9,10
 59 243 59 243 67.5 252.5 c 128,-1,11
 76 262 76 262 95 262 c 2,0,-1
271 128 m 128,-1,13
 271 109 271 109 252.5 95.5 c 128,-1,14
 234 82 234 82 215 82 c 0,15,16
 195 82 195 82 177 95 c 128,-1,17
 159 108 159 108 159 128 c 0,18,19
 159 147 159 147 177.5 160.5 c 128,-1,20
 196 174 196 174 215 174 c 0,21,22
 233 174 233 174 252 160.5 c 128,-1,12
 271 147 271 147 271 128 c 128,-1,13
271 333 m 128,-1,24
 271 314 271 314 252.5 300.5 c 128,-1,25
 234 287 234 287 215 287 c 0,26,27
 195 287 195 287 177 300 c 128,-1,28
 159 313 159 313 159 333 c 0,29,30
 159 352 159 352 177.5 365.5 c 128,-1,31
 196 379 196 379 215 379 c 0,32,33
 233 379 233 379 252 365.5 c 128,-1,23
 271 352 271 352 271 333 c 128,-1,24
EndSplineSet
EndChar

StartChar: oslash
Encoding: 248 248 185
Width: 628
GlyphClass: 2
Flags: W
AnchorPoint: "Anchor-1" 314 0 basechar 0
AnchorPoint: "Anchor-0" 314 510 basechar 0
LayerCount: 2
Fore
SplineSet
300 62 m 2,0,-1
 329 62 l 2,1,2
 433 62 433 62 468.5 82 c 128,-1,3
 504 102 504 102 504 179 c 2,4,-1
 504 282 l 2,5,6
 504 322 504 322 496 343 c 1,7,-1
 176 74 l 1,8,9
 210 62 210 62 300 62 c 2,0,-1
329 0 m 2,10,-1
 300 0 l 2,11,12
 178 0 178 0 125 31 c 1,13,-1
 113 21 l 1,14,15
 98 10 98 10 87 10 c 0,16,17
 74 10 74 10 65.5 20.5 c 128,-1,18
 57 31 57 31 57 42 c 0,19,20
 57 56 57 56 73 69 c 2,21,-1
 82 77 l 1,22,23
 62 115 62 115 62 177 c 2,24,-1
 62 284 l 2,25,26
 62 389 62 389 118.5 425 c 128,-1,27
 175 461 175 461 300 461 c 2,28,-1
 329 461 l 2,29,30
 450 461 450 461 503 430 c 1,31,-1
 515 440 l 2,32,33
 529 451 529 451 541 451 c 128,-1,34
 553 451 553 451 562 441.5 c 128,-1,35
 571 432 571 432 571 420 c 0,36,37
 571 405 571 405 555 392 c 2,38,-1
 546 384 l 1,39,40
 566 346 566 346 566 284 c 2,41,-1
 566 177 l 2,42,43
 566 72 566 72 509.5 36 c 128,-1,44
 453 0 453 0 329 0 c 2,10,-1
132 118 m 1,45,-1
 452 387 l 1,46,47
 418 399 418 399 329 399 c 2,48,-1
 300 399 l 2,49,50
 194 399 194 399 159 378.5 c 128,-1,51
 124 358 124 358 124 282 c 2,52,-1
 124 179 l 2,53,54
 124 139 124 139 132 118 c 1,45,-1
EndSplineSet
EndChar

StartChar: thorn
Encoding: 254 254 191
Width: 641
GlyphClass: 2
Flags: W
LayerCount: 2
Fore
SplineSet
517 282 m 2,0,1
 517 359 517 359 481.5 379 c 128,-1,2
 446 399 446 399 342 399 c 2,3,-1
 313 399 l 2,4,5
 137 399 137 399 137 232 c 2,6,-1
 137 62 l 1,7,-1
 344 62 l 2,8,9
 447 62 447 62 482 82 c 128,-1,10
 517 102 517 102 517 179 c 2,11,-1
 517 282 l 2,0,1
579 177 m 2,12,13
 579 72 579 72 523 36 c 128,-1,14
 467 0 467 0 344 0 c 2,15,-1
 137 0 l 1,16,-1
 137 -142 l 2,17,18
 137 -182 137 -182 104 -182 c 0,19,20
 75 -182 75 -182 75 -142 c 2,21,-1
 75 603 l 2,22,23
 75 643 75 643 106 643 c 128,-1,24
 137 643 137 643 137 603 c 2,25,-1
 137 405 l 1,26,27
 197 461 197 461 313 461 c 2,28,-1
 342 461 l 2,29,30
 466 461 466 461 522.5 425 c 128,-1,31
 579 389 579 389 579 284 c 2,32,-1
 579 177 l 2,12,13
EndSplineSet
EndChar

StartChar: Amacron
Encoding: 256 256 193
Width: 590
GlyphClass: 2
Flags: W
LayerCount: 2
Fore
SplineSet
171 770 m 2,0,-1
 416 770 l 2,1,2
 455 770 455 770 455 737 c 0,3,4
 455 723 455 723 443.5 715 c 128,-1,5
 432 707 432 707 416 707 c 2,6,-1
 171 707 l 2,7,8
 135 707 135 707 135 739 c 0,9,10
 135 751 135 751 143.5 760.5 c 128,-1,11
 152 770 152 770 171 770 c 2,0,-1
331 636 m 1,12,-1
 563 31 l 2,13,14
 566 22 566 22 566 14 c 0,15,16
 566 -2 566 -2 555 -9 c 128,-1,17
 544 -16 544 -16 535 -16 c 0,18,19
 513 -16 513 -16 503 10 c 2,20,-1
 433 194 l 1,21,-1
 157 194 l 1,22,-1
 87 10 l 1,23,24
 76 -16 76 -16 55 -16 c 0,25,26
 46 -16 46 -16 35 -9 c 128,-1,27
 24 -2 24 -2 24 14 c 0,28,29
 24 22 24 22 27 31 c 2,30,-1
 259 636 l 1,31,-1
 331 636 l 1,12,-1
409 256 m 1,32,-1
 294 546 l 1,33,-1
 181 256 l 1,34,-1
 409 256 l 1,32,-1
EndSplineSet
EndChar

StartChar: amacron
Encoding: 257 257 194
Width: 573
GlyphClass: 2
Flags: W
LayerCount: 2
Fore
SplineSet
156 585 m 2,0,-1
 401 585 l 2,1,2
 440 585 440 585 440 552 c 0,3,4
 440 538 440 538 428.5 530 c 128,-1,5
 417 522 417 522 401 522 c 2,6,-1
 156 522 l 2,7,8
 120 522 120 522 120 554 c 0,9,10
 120 566 120 566 128.5 575.5 c 128,-1,11
 137 585 137 585 156 585 c 2,0,-1
298 238 m 2,12,13
 192 238 192 238 157 217.5 c 128,-1,14
 122 197 122 197 122 121 c 0,15,16
 122 98 122 98 138 80 c 128,-1,17
 154 62 154 62 172 62 c 2,18,-1
 265 62 l 2,19,20
 440 62 440 62 440 228 c 2,21,-1
 440 238 l 1,22,-1
 298 238 l 2,12,13
298 300 m 2,23,-1
 440 300 l 1,24,-1
 440 350 l 2,25,26
 440 378 440 378 429.5 388.5 c 128,-1,27
 419 399 419 399 390 399 c 2,28,-1
 249 399 l 2,29,30
 122 399 122 399 122 344 c 0,31,32
 122 304 122 304 90 304 c 0,33,34
 60 304 60 304 60 344 c 0,35,36
 60 461 60 461 242 461 c 2,37,-1
 397 461 l 2,38,39
 458 461 458 461 480 432 c 128,-1,40
 502 403 502 403 502 333 c 2,41,-1
 502 31 l 2,42,43
 502 -7 502 -7 471 -7 c 128,-1,44
 440 -7 440 -7 440 33 c 2,45,-1
 440 56 l 1,46,47
 381 0 381 0 265 0 c 2,48,-1
 172 0 l 2,49,50
 123 0 123 0 91.5 34.5 c 128,-1,51
 60 69 60 69 60 126 c 0,52,53
 60 228 60 228 117.5 264 c 128,-1,54
 175 300 175 300 298 300 c 2,23,-1
EndSplineSet
EndChar

StartChar: Abreve
Encoding: 258 258 195
Width: 590
GlyphClass: 2
Flags: W
LayerCount: 2
Fore
SplineSet
170 819 m 1,0,-1
 233 819 l 1,1,2
 233 796 233 796 247 779 c 128,-1,3
 261 762 261 762 295 762 c 128,-1,4
 329 762 329 762 343 779 c 128,-1,5
 357 796 357 796 357 819 c 1,6,-1
 420 819 l 1,7,8
 420 785 420 785 406.5 760 c 128,-1,9
 393 735 393 735 372.5 722.5 c 128,-1,10
 352 710 352 710 332.5 704 c 128,-1,11
 313 698 313 698 295 698 c 0,12,13
 250 698 250 698 210 726.5 c 128,-1,14
 170 755 170 755 170 819 c 1,0,-1
331 636 m 1,15,-1
 563 31 l 2,16,17
 566 22 566 22 566 14 c 0,18,19
 566 -2 566 -2 555 -9 c 128,-1,20
 544 -16 544 -16 535 -16 c 0,21,22
 513 -16 513 -16 503 10 c 2,23,-1
 433 194 l 1,24,-1
 157 194 l 1,25,-1
 87 10 l 1,26,27
 76 -16 76 -16 55 -16 c 0,28,29
 46 -16 46 -16 35 -9 c 128,-1,30
 24 -2 24 -2 24 14 c 0,31,32
 24 22 24 22 27 31 c 2,33,-1
 259 636 l 1,34,-1
 331 636 l 1,15,-1
409 256 m 1,35,-1
 294 546 l 1,36,-1
 181 256 l 1,37,-1
 409 256 l 1,35,-1
EndSplineSet
EndChar

StartChar: abreve
Encoding: 259 259 196
Width: 573
GlyphClass: 2
Flags: W
LayerCount: 2
Fore
SplineSet
158 643 m 1,0,-1
 221 643 l 1,1,2
 221 620 221 620 235 603 c 128,-1,3
 249 586 249 586 283 586 c 128,-1,4
 317 586 317 586 331 603 c 128,-1,5
 345 620 345 620 345 643 c 1,6,-1
 408 643 l 1,7,8
 408 609 408 609 394.5 584 c 128,-1,9
 381 559 381 559 360.5 546.5 c 128,-1,10
 340 534 340 534 320.5 528 c 128,-1,11
 301 522 301 522 283 522 c 0,12,13
 238 522 238 522 198 550.5 c 128,-1,14
 158 579 158 579 158 643 c 1,0,-1
298 238 m 2,15,16
 192 238 192 238 157 217.5 c 128,-1,17
 122 197 122 197 122 121 c 0,18,19
 122 98 122 98 138 80 c 128,-1,20
 154 62 154 62 172 62 c 2,21,-1
 265 62 l 2,22,23
 440 62 440 62 440 228 c 2,24,-1
 440 238 l 1,25,-1
 298 238 l 2,15,16
298 300 m 2,26,-1
 440 300 l 1,27,-1
 440 350 l 2,28,29
 440 378 440 378 429.5 388.5 c 128,-1,30
 419 399 419 399 390 399 c 2,31,-1
 249 399 l 2,32,33
 122 399 122 399 122 344 c 0,34,35
 122 304 122 304 90 304 c 0,36,37
 60 304 60 304 60 344 c 0,38,39
 60 461 60 461 242 461 c 2,40,-1
 397 461 l 2,41,42
 458 461 458 461 480 432 c 128,-1,43
 502 403 502 403 502 333 c 2,44,-1
 502 31 l 2,45,46
 502 -7 502 -7 471 -7 c 128,-1,47
 440 -7 440 -7 440 33 c 2,48,-1
 440 56 l 1,49,50
 381 0 381 0 265 0 c 2,51,-1
 172 0 l 2,52,53
 123 0 123 0 91.5 34.5 c 128,-1,54
 60 69 60 69 60 126 c 0,55,56
 60 228 60 228 117.5 264 c 128,-1,57
 175 300 175 300 298 300 c 2,26,-1
EndSplineSet
EndChar

StartChar: Aogonek
Encoding: 260 260 197
Width: 589
GlyphClass: 2
Flags: W
LayerCount: 2
Fore
SplineSet
409 256 m 1,0,-1
 294 546 l 1,1,-1
 181 256 l 1,2,-1
 409 256 l 1,0,-1
55 -16 m 0,3,4
 46 -16 46 -16 35 -9 c 128,-1,5
 24 -2 24 -2 24 14 c 0,6,7
 24 22 24 22 27 31 c 2,8,-1
 263 646 l 1,9,-1
 327 646 l 1,10,-1
 563 31 l 2,11,12
 566 22 566 22 566 14 c 0,13,14
 566 -13 566 -13 537 -16 c 1,15,16
 515 -36 515 -36 502 -61.5 c 128,-1,17
 489 -87 489 -87 489 -96 c 0,18,19
 489 -145 489 -145 526 -145 c 0,20,21
 542 -145 542 -145 564 -136.5 c 128,-1,22
 586 -128 586 -128 592 -128 c 0,23,24
 612 -128 612 -128 612 -150 c 0,25,26
 612 -179 612 -179 583.5 -192 c 128,-1,27
 555 -205 555 -205 528 -205 c 0,28,29
 485 -205 485 -205 456 -175 c 128,-1,30
 427 -145 427 -145 427 -96 c 0,31,32
 427 -48 427 -48 496 28 c 1,33,-1
 433 194 l 1,34,-1
 157 194 l 1,35,-1
 87 10 l 1,36,37
 76 -16 76 -16 55 -16 c 0,3,4
EndSplineSet
EndChar

StartChar: aogonek
Encoding: 261 261 198
Width: 574
GlyphClass: 2
Flags: W
LayerCount: 2
Fore
SplineSet
492 0 m 1,0,1
 463 -18 463 -18 443 -51 c 128,-1,2
 423 -84 423 -84 423 -96 c 0,3,4
 423 -145 423 -145 460 -145 c 0,5,6
 476 -145 476 -145 498 -136.5 c 128,-1,7
 520 -128 520 -128 526 -128 c 0,8,9
 546 -128 546 -128 546 -150 c 0,10,11
 546 -179 546 -179 517.5 -192 c 128,-1,12
 489 -205 489 -205 462 -205 c 0,13,14
 419 -205 419 -205 390 -175 c 128,-1,15
 361 -145 361 -145 361 -96 c 0,16,17
 361 -69 361 -69 386 -30.5 c 128,-1,18
 411 8 411 8 440 38 c 1,19,-1
 440 56 l 1,20,21
 381 0 381 0 265 0 c 2,22,-1
 172 0 l 2,23,24
 123 0 123 0 91.5 34.5 c 128,-1,25
 60 69 60 69 60 126 c 0,26,27
 60 228 60 228 117.5 264 c 128,-1,28
 175 300 175 300 298 300 c 2,29,-1
 440 300 l 1,30,-1
 440 350 l 2,31,32
 440 378 440 378 429.5 388.5 c 128,-1,33
 419 399 419 399 390 399 c 2,34,-1
 249 399 l 2,35,36
 122 399 122 399 122 344 c 0,37,38
 122 304 122 304 90 304 c 0,39,40
 60 304 60 304 60 344 c 0,41,42
 60 461 60 461 242 461 c 2,43,-1
 397 461 l 2,44,45
 458 461 458 461 480 432 c 128,-1,46
 502 403 502 403 502 333 c 2,47,-1
 502 31 l 2,48,49
 502 10 502 10 492 0 c 1,0,1
298 238 m 2,50,51
 192 238 192 238 157 217.5 c 128,-1,52
 122 197 122 197 122 121 c 0,53,54
 122 98 122 98 138 80 c 128,-1,55
 154 62 154 62 172 62 c 2,56,-1
 265 62 l 2,57,58
 440 62 440 62 440 228 c 2,59,-1
 440 238 l 1,60,-1
 298 238 l 2,50,51
EndSplineSet
EndChar

StartChar: Cacute
Encoding: 262 262 199
Width: 610
GlyphClass: 2
Flags: W
LayerCount: 2
Fore
SplineSet
349 804 m 2,0,1
 364 819 364 819 377 819 c 0,2,3
 389 819 389 819 398.5 809 c 128,-1,4
 408 799 408 799 408 789 c 0,5,6
 408 777 408 777 394 761 c 1,7,-1
 325 693 l 1,8,9
 312 678 312 678 296 678 c 0,10,11
 283 678 283 678 274.5 687 c 128,-1,12
 266 696 266 696 266 707 c 0,13,14
 266 720 266 720 279 735 c 1,15,-1
 349 804 l 2,0,1
450 0 m 2,16,-1
 309 0 l 2,17,18
 184 0 184 0 127.5 36.5 c 128,-1,19
 71 73 71 73 71 182 c 2,20,-1
 71 454 l 2,21,22
 71 562 71 562 125.5 599 c 128,-1,23
 180 636 180 636 297 636 c 2,24,-1
 450 636 l 2,25,26
 513 636 513 636 534 604 c 128,-1,27
 555 572 555 572 555 519 c 0,28,29
 555 479 555 479 524 479 c 128,-1,30
 493 479 493 479 493 517 c 0,31,32
 493 550 493 550 482.5 562 c 128,-1,33
 472 574 472 574 443 574 c 2,34,-1
 297 574 l 2,35,36
 201 574 201 574 167 552.5 c 128,-1,37
 133 531 133 531 133 453 c 2,38,-1
 133 183 l 2,39,40
 133 104 133 104 168.5 83 c 128,-1,41
 204 62 204 62 309 62 c 2,42,-1
 443 62 l 2,43,44
 472 62 472 62 482.5 74.5 c 128,-1,45
 493 87 493 87 493 119 c 0,46,47
 493 157 493 157 524 157 c 128,-1,48
 555 157 555 157 555 116 c 0,49,50
 555 64 555 64 534 32 c 128,-1,51
 513 0 513 0 450 0 c 2,16,-1
EndSplineSet
EndChar

StartChar: cacute
Encoding: 263 263 200
Width: 604
GlyphClass: 2
Flags: W
LayerCount: 2
Fore
SplineSet
312 517 m 2,0,1
 297 500 297 500 283 500 c 0,2,3
 273 500 273 500 263 508.5 c 128,-1,4
 253 517 253 517 253 530 c 0,5,6
 253 544 253 544 263 556 c 2,7,-1
 359 671 l 2,8,9
 374 688 374 688 388 688 c 0,10,11
 399 688 399 688 408.5 679.5 c 128,-1,12
 418 671 418 671 418 657 c 128,-1,13
 418 643 418 643 408 632 c 2,14,-1
 312 517 l 2,0,1
441 0 m 2,15,-1
 300 0 l 2,16,17
 175 0 175 0 118.5 36 c 128,-1,18
 62 72 62 72 62 177 c 2,19,-1
 62 284 l 2,20,21
 62 389 62 389 118.5 425 c 128,-1,22
 175 461 175 461 300 461 c 2,23,-1
 441 461 l 2,24,25
 474 461 474 461 496.5 451 c 128,-1,26
 519 441 519 441 529 423 c 128,-1,27
 539 405 539 405 542.5 386.5 c 128,-1,28
 546 368 546 368 546 344 c 0,29,30
 546 304 546 304 515 304 c 128,-1,31
 484 304 484 304 484 342 c 0,32,33
 484 375 484 375 473.5 387 c 128,-1,34
 463 399 463 399 434 399 c 2,35,-1
 300 399 l 2,36,37
 194 399 194 399 159 378.5 c 128,-1,38
 124 358 124 358 124 282 c 2,39,-1
 124 179 l 2,40,41
 124 103 124 103 159 82.5 c 128,-1,42
 194 62 194 62 300 62 c 2,43,-1
 434 62 l 2,44,45
 463 62 463 62 473.5 74.5 c 128,-1,46
 484 87 484 87 484 119 c 0,47,48
 484 157 484 157 515 157 c 128,-1,49
 546 157 546 157 546 116 c 0,50,51
 546 64 546 64 525 32 c 128,-1,52
 504 0 504 0 441 0 c 2,15,-1
EndSplineSet
EndChar

StartChar: Ccircumflex
Encoding: 264 264 201
Width: 610
GlyphClass: 2
Flags: W
LayerCount: 2
Fore
SplineSet
450 0 m 2,0,-1
 309 0 l 2,1,2
 184 0 184 0 127.5 36.5 c 128,-1,3
 71 73 71 73 71 182 c 2,4,-1
 71 454 l 2,5,6
 71 562 71 562 125.5 599 c 128,-1,7
 180 636 180 636 297 636 c 2,8,-1
 450 636 l 2,9,10
 513 636 513 636 534 604 c 128,-1,11
 555 572 555 572 555 519 c 0,12,13
 555 479 555 479 524 479 c 128,-1,14
 493 479 493 479 493 517 c 0,15,16
 493 550 493 550 482.5 562 c 128,-1,17
 472 574 472 574 443 574 c 2,18,-1
 297 574 l 2,19,20
 201 574 201 574 167 552.5 c 128,-1,21
 133 531 133 531 133 453 c 2,22,-1
 133 183 l 2,23,24
 133 104 133 104 168.5 83 c 128,-1,25
 204 62 204 62 309 62 c 2,26,-1
 443 62 l 2,27,28
 472 62 472 62 482.5 74.5 c 128,-1,29
 493 87 493 87 493 119 c 0,30,31
 493 157 493 157 524 157 c 128,-1,32
 555 157 555 157 555 116 c 0,33,34
 555 64 555 64 534 32 c 128,-1,35
 513 0 513 0 450 0 c 2,0,-1
176 697 m 2,36,-1
 283 821 l 1,37,-1
 346 821 l 1,38,-1
 455 697 l 2,39,40
 462 690 462 690 462 676 c 0,41,42
 462 648 462 648 434 648 c 0,43,44
 426 648 426 648 421 650.5 c 128,-1,45
 416 653 416 653 409 662 c 2,46,-1
 402 670 l 1,47,-1
 315 752 l 1,48,-1
 229 670 l 1,49,-1
 222 662 l 2,50,51
 215 653 215 653 210 650.5 c 128,-1,52
 205 648 205 648 197 648 c 0,53,54
 169 648 169 648 169 676 c 0,55,56
 169 690 169 690 176 697 c 2,36,-1
EndSplineSet
EndChar

StartChar: ccircumflex
Encoding: 265 265 202
Width: 604
GlyphClass: 2
Flags: W
LayerCount: 2
Fore
SplineSet
165 566 m 2,0,-1
 272 690 l 1,1,-1
 335 690 l 1,2,-1
 444 566 l 2,3,4
 451 559 451 559 451 545 c 0,5,6
 451 517 451 517 423 517 c 0,7,8
 415 517 415 517 410 519.5 c 128,-1,9
 405 522 405 522 398 530 c 2,10,-1
 391 539 l 1,11,-1
 304 621 l 1,12,-1
 218 539 l 1,13,-1
 211 530 l 2,14,15
 204 522 204 522 199 519.5 c 128,-1,16
 194 517 194 517 186 517 c 0,17,18
 158 517 158 517 158 545 c 0,19,20
 158 559 158 559 165 566 c 2,0,-1
441 0 m 2,21,-1
 300 0 l 2,22,23
 175 0 175 0 118.5 36 c 128,-1,24
 62 72 62 72 62 177 c 2,25,-1
 62 284 l 2,26,27
 62 389 62 389 118.5 425 c 128,-1,28
 175 461 175 461 300 461 c 2,29,-1
 441 461 l 2,30,31
 474 461 474 461 496.5 451 c 128,-1,32
 519 441 519 441 529 423 c 128,-1,33
 539 405 539 405 542.5 386.5 c 128,-1,34
 546 368 546 368 546 344 c 0,35,36
 546 304 546 304 515 304 c 128,-1,37
 484 304 484 304 484 342 c 0,38,39
 484 375 484 375 473.5 387 c 128,-1,40
 463 399 463 399 434 399 c 2,41,-1
 300 399 l 2,42,43
 194 399 194 399 159 378.5 c 128,-1,44
 124 358 124 358 124 282 c 2,45,-1
 124 179 l 2,46,47
 124 103 124 103 159 82.5 c 128,-1,48
 194 62 194 62 300 62 c 2,49,-1
 434 62 l 2,50,51
 463 62 463 62 473.5 74.5 c 128,-1,52
 484 87 484 87 484 119 c 0,53,54
 484 157 484 157 515 157 c 128,-1,55
 546 157 546 157 546 116 c 0,56,57
 546 64 546 64 525 32 c 128,-1,58
 504 0 504 0 441 0 c 2,21,-1
EndSplineSet
EndChar

StartChar: Cdotaccent
Encoding: 266 266 203
Width: 610
GlyphClass: 2
Flags: W
LayerCount: 2
Fore
SplineSet
370 742 m 128,-1,1
 370 723 370 723 351.5 709.5 c 128,-1,2
 333 696 333 696 314 696 c 0,3,4
 294 696 294 696 276 709 c 128,-1,5
 258 722 258 722 258 742 c 0,6,7
 258 761 258 761 276.5 774.5 c 128,-1,8
 295 788 295 788 314 788 c 0,9,10
 332 788 332 788 351 774.5 c 128,-1,0
 370 761 370 761 370 742 c 128,-1,1
450 0 m 2,11,-1
 309 0 l 2,12,13
 184 0 184 0 127.5 36.5 c 128,-1,14
 71 73 71 73 71 182 c 2,15,-1
 71 454 l 2,16,17
 71 562 71 562 125.5 599 c 128,-1,18
 180 636 180 636 297 636 c 2,19,-1
 450 636 l 2,20,21
 513 636 513 636 534 604 c 128,-1,22
 555 572 555 572 555 519 c 0,23,24
 555 479 555 479 524 479 c 128,-1,25
 493 479 493 479 493 517 c 0,26,27
 493 550 493 550 482.5 562 c 128,-1,28
 472 574 472 574 443 574 c 2,29,-1
 297 574 l 2,30,31
 201 574 201 574 167 552.5 c 128,-1,32
 133 531 133 531 133 453 c 2,33,-1
 133 183 l 2,34,35
 133 104 133 104 168.5 83 c 128,-1,36
 204 62 204 62 309 62 c 2,37,-1
 443 62 l 2,38,39
 472 62 472 62 482.5 74.5 c 128,-1,40
 493 87 493 87 493 119 c 0,41,42
 493 157 493 157 524 157 c 128,-1,43
 555 157 555 157 555 116 c 0,44,45
 555 64 555 64 534 32 c 128,-1,46
 513 0 513 0 450 0 c 2,11,-1
EndSplineSet
EndChar

StartChar: cdotaccent
Encoding: 267 267 204
Width: 604
GlyphClass: 2
Flags: W
LayerCount: 2
Fore
SplineSet
369 558 m 128,-1,1
 369 539 369 539 350.5 525.5 c 128,-1,2
 332 512 332 512 313 512 c 0,3,4
 293 512 293 512 275 525 c 128,-1,5
 257 538 257 538 257 558 c 0,6,7
 257 577 257 577 275.5 590.5 c 128,-1,8
 294 604 294 604 313 604 c 0,9,10
 331 604 331 604 350 590.5 c 128,-1,0
 369 577 369 577 369 558 c 128,-1,1
441 0 m 2,11,-1
 300 0 l 2,12,13
 175 0 175 0 118.5 36 c 128,-1,14
 62 72 62 72 62 177 c 2,15,-1
 62 284 l 2,16,17
 62 389 62 389 118.5 425 c 128,-1,18
 175 461 175 461 300 461 c 2,19,-1
 441 461 l 2,20,21
 474 461 474 461 496.5 451 c 128,-1,22
 519 441 519 441 529 423 c 128,-1,23
 539 405 539 405 542.5 386.5 c 128,-1,24
 546 368 546 368 546 344 c 0,25,26
 546 304 546 304 515 304 c 128,-1,27
 484 304 484 304 484 342 c 0,28,29
 484 375 484 375 473.5 387 c 128,-1,30
 463 399 463 399 434 399 c 2,31,-1
 300 399 l 2,32,33
 194 399 194 399 159 378.5 c 128,-1,34
 124 358 124 358 124 282 c 2,35,-1
 124 179 l 2,36,37
 124 103 124 103 159 82.5 c 128,-1,38
 194 62 194 62 300 62 c 2,39,-1
 434 62 l 2,40,41
 463 62 463 62 473.5 74.5 c 128,-1,42
 484 87 484 87 484 119 c 0,43,44
 484 157 484 157 515 157 c 128,-1,45
 546 157 546 157 546 116 c 0,46,47
 546 64 546 64 525 32 c 128,-1,48
 504 0 504 0 441 0 c 2,11,-1
EndSplineSet
EndChar

StartChar: Ccaron
Encoding: 268 268 205
Width: 610
GlyphClass: 2
Flags: W
LayerCount: 2
Fore
SplineSet
351 665 m 1,0,-1
 291 665 l 1,1,-1
 185 776 l 2,2,3
 177 784 177 784 177 794 c 128,-1,4
 177 804 177 804 184 811.5 c 128,-1,5
 191 819 191 819 205 819 c 0,6,7
 218 819 218 819 240 801 c 2,8,-1
 321 734 l 1,9,-1
 402 801 l 2,10,11
 424 819 424 819 437 819 c 0,12,13
 451 819 451 819 458 811.5 c 128,-1,14
 465 804 465 804 465 794 c 128,-1,15
 465 784 465 784 457 776 c 2,16,-1
 351 665 l 1,0,-1
450 0 m 2,17,-1
 309 0 l 2,18,19
 184 0 184 0 127.5 36.5 c 128,-1,20
 71 73 71 73 71 182 c 2,21,-1
 71 454 l 2,22,23
 71 562 71 562 125.5 599 c 128,-1,24
 180 636 180 636 297 636 c 2,25,-1
 450 636 l 2,26,27
 513 636 513 636 534 604 c 128,-1,28
 555 572 555 572 555 519 c 0,29,30
 555 479 555 479 524 479 c 128,-1,31
 493 479 493 479 493 517 c 0,32,33
 493 550 493 550 482.5 562 c 128,-1,34
 472 574 472 574 443 574 c 2,35,-1
 297 574 l 2,36,37
 201 574 201 574 167 552.5 c 128,-1,38
 133 531 133 531 133 453 c 2,39,-1
 133 183 l 2,40,41
 133 104 133 104 168.5 83 c 128,-1,42
 204 62 204 62 309 62 c 2,43,-1
 443 62 l 2,44,45
 472 62 472 62 482.5 74.5 c 128,-1,46
 493 87 493 87 493 119 c 0,47,48
 493 157 493 157 524 157 c 128,-1,49
 555 157 555 157 555 116 c 0,50,51
 555 64 555 64 534 32 c 128,-1,52
 513 0 513 0 450 0 c 2,17,-1
EndSplineSet
EndChar

StartChar: ccaron
Encoding: 269 269 206
Width: 604
GlyphClass: 2
Flags: W
LayerCount: 2
Fore
SplineSet
441 0 m 2,0,-1
 300 0 l 2,1,2
 175 0 175 0 118.5 36 c 128,-1,3
 62 72 62 72 62 177 c 2,4,-1
 62 284 l 2,5,6
 62 389 62 389 118.5 425 c 128,-1,7
 175 461 175 461 300 461 c 2,8,-1
 441 461 l 2,9,10
 474 461 474 461 496.5 451 c 128,-1,11
 519 441 519 441 529 423 c 128,-1,12
 539 405 539 405 542.5 386.5 c 128,-1,13
 546 368 546 368 546 344 c 0,14,15
 546 304 546 304 515 304 c 128,-1,16
 484 304 484 304 484 342 c 0,17,18
 484 375 484 375 473.5 387 c 128,-1,19
 463 399 463 399 434 399 c 2,20,-1
 300 399 l 2,21,22
 194 399 194 399 159 378.5 c 128,-1,23
 124 358 124 358 124 282 c 2,24,-1
 124 179 l 2,25,26
 124 103 124 103 159 82.5 c 128,-1,27
 194 62 194 62 300 62 c 2,28,-1
 434 62 l 2,29,30
 463 62 463 62 473.5 74.5 c 128,-1,31
 484 87 484 87 484 119 c 0,32,33
 484 157 484 157 515 157 c 128,-1,34
 546 157 546 157 546 116 c 0,35,36
 546 64 546 64 525 32 c 128,-1,37
 504 0 504 0 441 0 c 2,0,-1
326 517 m 1,38,-1
 266 517 l 1,39,-1
 160 628 l 2,40,41
 152 636 152 636 152 646 c 128,-1,42
 152 656 152 656 159 663.5 c 128,-1,43
 166 671 166 671 180 671 c 0,44,45
 193 671 193 671 215 653 c 2,46,-1
 296 586 l 1,47,-1
 377 653 l 2,48,49
 399 671 399 671 412 671 c 0,50,51
 426 671 426 671 433 663.5 c 128,-1,52
 440 656 440 656 440 646 c 128,-1,53
 440 636 440 636 432 628 c 2,54,-1
 326 517 l 1,38,-1
EndSplineSet
EndChar

StartChar: Dcaron
Encoding: 270 270 207
Width: 639
GlyphClass: 2
Flags: W
LayerCount: 2
Fore
SplineSet
330 665 m 1,0,-1
 270 665 l 1,1,-1
 164 776 l 2,2,3
 156 784 156 784 156 794 c 128,-1,4
 156 804 156 804 163 811.5 c 128,-1,5
 170 819 170 819 184 819 c 0,6,7
 197 819 197 819 219 801 c 2,8,-1
 300 734 l 1,9,-1
 381 801 l 2,10,11
 403 819 403 819 416 819 c 0,12,13
 430 819 430 819 437 811.5 c 128,-1,14
 444 804 444 804 444 794 c 128,-1,15
 444 784 444 784 436 776 c 2,16,-1
 330 665 l 1,0,-1
568 454 m 2,17,-1
 568 182 l 2,18,19
 568 73 568 73 512 36.5 c 128,-1,20
 456 0 456 0 331 0 c 2,21,-1
 113 0 l 2,22,23
 84 0 84 0 84 40 c 2,24,-1
 84 596 l 2,25,26
 84 636 84 636 113 636 c 2,27,-1
 343 636 l 2,28,29
 459 636 459 636 513.5 599 c 128,-1,30
 568 562 568 562 568 454 c 2,17,-1
506 183 m 2,31,-1
 506 453 l 2,32,33
 506 532 506 532 472 553 c 128,-1,34
 438 574 438 574 343 574 c 2,35,-1
 146 574 l 1,36,-1
 146 62 l 1,37,-1
 331 62 l 2,38,39
 435 62 435 62 470.5 83 c 128,-1,40
 506 104 506 104 506 183 c 2,31,-1
EndSplineSet
EndChar

StartChar: dcaron
Encoding: 271 271 208
Width: 641
GlyphClass: 2
Flags: W
LayerCount: 2
Fore
SplineSet
689 602 m 1,0,-1
 649 519 l 2,1,2
 636 492 636 492 619 492 c 0,3,4
 592 492 592 492 592 522 c 0,5,6
 592 527 592 527 595 539 c 2,7,-1
 619 626 l 2,8,9
 627 653 627 653 649 653 c 0,10,11
 663 653 663 653 679 646 c 128,-1,12
 695 639 695 639 695 623 c 0,13,14
 695 612 695 612 689 602 c 1,0,-1
124 179 m 2,15,16
 124 102 124 102 159.5 82 c 128,-1,17
 195 62 195 62 299 62 c 2,18,-1
 328 62 l 2,19,20
 504 62 504 62 504 229 c 2,21,-1
 504 399 l 1,22,-1
 297 399 l 2,23,24
 194 399 194 399 159 379 c 128,-1,25
 124 359 124 359 124 282 c 2,26,-1
 124 179 l 2,15,16
62 284 m 2,27,28
 62 389 62 389 118 425 c 128,-1,29
 174 461 174 461 297 461 c 2,30,-1
 504 461 l 1,31,-1
 504 603 l 2,32,33
 504 643 504 643 537 643 c 0,34,35
 566 643 566 643 566 603 c 2,36,-1
 566 31 l 2,37,38
 566 -7 566 -7 535 -7 c 128,-1,39
 504 -7 504 -7 504 33 c 2,40,-1
 504 56 l 1,41,42
 444 0 444 0 328 0 c 2,43,-1
 299 0 l 2,44,45
 175 0 175 0 118.5 36 c 128,-1,46
 62 72 62 72 62 177 c 2,47,-1
 62 284 l 2,27,28
EndSplineSet
EndChar

StartChar: Dcroat
Encoding: 272 272 209
Width: 639
GlyphClass: 2
Flags: W
LayerCount: 2
Fore
SplineSet
506 183 m 2,0,-1
 506 453 l 2,1,2
 506 532 506 532 472 553 c 128,-1,3
 438 574 438 574 343 574 c 2,4,-1
 146 574 l 1,5,-1
 146 356 l 1,6,-1
 240 356 l 2,7,8
 279 356 279 356 279 324 c 0,9,10
 279 293 279 293 240 293 c 2,11,-1
 146 293 l 1,12,-1
 146 62 l 1,13,-1
 331 62 l 2,14,15
 435 62 435 62 470.5 83 c 128,-1,16
 506 104 506 104 506 183 c 2,0,-1
568 454 m 2,17,-1
 568 182 l 2,18,19
 568 73 568 73 512 36.5 c 128,-1,20
 456 0 456 0 331 0 c 2,21,-1
 113 0 l 2,22,23
 84 0 84 0 84 40 c 2,24,-1
 84 293 l 1,25,26
 47 293 47 293 47 326 c 0,27,28
 47 356 47 356 84 356 c 1,29,-1
 84 596 l 2,30,31
 84 636 84 636 113 636 c 2,32,-1
 343 636 l 2,33,34
 459 636 459 636 513.5 599 c 128,-1,35
 568 562 568 562 568 454 c 2,17,-1
EndSplineSet
EndChar

StartChar: dcroat
Encoding: 273 273 210
Width: 641
GlyphClass: 2
Flags: W
LayerCount: 2
Fore
SplineSet
62 284 m 2,0,1
 62 389 62 389 118 425 c 128,-1,2
 174 461 174 461 297 461 c 2,3,-1
 504 461 l 1,4,-1
 504 507 l 1,5,-1
 330 507 l 2,6,7
 294 507 294 507 294 539 c 0,8,9
 294 551 294 551 302.5 560.5 c 128,-1,10
 311 570 311 570 330 570 c 2,11,-1
 504 570 l 1,12,-1
 504 603 l 2,13,14
 504 643 504 643 537 643 c 0,15,16
 566 643 566 643 566 603 c 2,17,-1
 566 570 l 1,18,-1
 575 570 l 2,19,20
 614 570 614 570 614 537 c 0,21,22
 614 523 614 523 602.5 515 c 128,-1,23
 591 507 591 507 575 507 c 2,24,-1
 566 507 l 1,25,-1
 566 31 l 2,26,27
 566 -7 566 -7 535 -7 c 128,-1,28
 504 -7 504 -7 504 33 c 2,29,-1
 504 56 l 1,30,31
 444 0 444 0 328 0 c 2,32,-1
 299 0 l 2,33,34
 175 0 175 0 118.5 36 c 128,-1,35
 62 72 62 72 62 177 c 2,36,-1
 62 284 l 2,0,1
124 179 m 2,37,38
 124 102 124 102 159.5 82 c 128,-1,39
 195 62 195 62 299 62 c 2,40,-1
 328 62 l 2,41,42
 504 62 504 62 504 229 c 2,43,-1
 504 399 l 1,44,-1
 297 399 l 2,45,46
 194 399 194 399 159 379 c 128,-1,47
 124 359 124 359 124 282 c 2,48,-1
 124 179 l 2,37,38
EndSplineSet
EndChar

StartChar: Emacron
Encoding: 274 274 211
Width: 617
GlyphClass: 2
Flags: W
LayerCount: 2
Fore
SplineSet
197 769 m 2,0,-1
 442 769 l 2,1,2
 481 769 481 769 481 736 c 0,3,4
 481 722 481 722 469.5 714 c 128,-1,5
 458 706 458 706 442 706 c 2,6,-1
 197 706 l 2,7,8
 161 706 161 706 161 738 c 0,9,10
 161 750 161 750 169.5 759.5 c 128,-1,11
 178 769 178 769 197 769 c 2,0,-1
146 327 m 1,12,-1
 146 62 l 1,13,-1
 529 62 l 2,14,15
 568 62 568 62 568 29 c 0,16,17
 568 0 568 0 529 0 c 2,18,-1
 113 0 l 2,19,20
 84 0 84 0 84 40 c 2,21,-1
 84 596 l 2,22,23
 84 636 84 636 113 636 c 2,24,-1
 529 636 l 2,25,26
 568 636 568 636 568 603 c 0,27,28
 568 574 568 574 529 574 c 2,29,-1
 146 574 l 1,30,-1
 146 389 l 1,31,-1
 408 389 l 2,32,33
 451 389 451 389 451 356 c 0,34,35
 451 327 451 327 408 327 c 2,36,-1
 146 327 l 1,12,-1
EndSplineSet
EndChar

StartChar: emacron
Encoding: 275 275 212
Width: 626
GlyphClass: 2
Flags: W
LayerCount: 2
Fore
SplineSet
190 585 m 2,0,-1
 435 585 l 2,1,2
 474 585 474 585 474 552 c 0,3,4
 474 538 474 538 462.5 530 c 128,-1,5
 451 522 451 522 435 522 c 2,6,-1
 190 522 l 2,7,8
 154 522 154 522 154 554 c 0,9,10
 154 566 154 566 162.5 575.5 c 128,-1,11
 171 585 171 585 190 585 c 2,0,-1
566 284 m 2,12,-1
 566 240 l 1,13,-1
 124 240 l 1,14,-1
 124 179 l 2,15,16
 124 103 124 103 159 82.5 c 128,-1,17
 194 62 194 62 300 62 c 2,18,-1
 454 62 l 2,19,20
 483 62 483 62 493.5 74.5 c 128,-1,21
 504 87 504 87 504 119 c 0,22,23
 504 157 504 157 535 157 c 128,-1,24
 566 157 566 157 566 116 c 0,25,26
 566 64 566 64 545 32 c 128,-1,27
 524 0 524 0 461 0 c 2,28,-1
 300 0 l 2,29,30
 175 0 175 0 118.5 36 c 128,-1,31
 62 72 62 72 62 177 c 2,32,-1
 62 284 l 2,33,34
 62 389 62 389 118.5 425 c 128,-1,35
 175 461 175 461 300 461 c 2,36,-1
 329 461 l 2,37,38
 453 461 453 461 509.5 425 c 128,-1,39
 566 389 566 389 566 284 c 2,12,-1
329 399 m 2,40,-1
 300 399 l 2,41,42
 198 399 198 399 162 381.5 c 128,-1,43
 126 364 126 364 124 302 c 1,44,-1
 504 302 l 1,45,46
 502 364 502 364 466 381.5 c 128,-1,47
 430 399 430 399 329 399 c 2,40,-1
EndSplineSet
EndChar

StartChar: Edotaccent
Encoding: 278 278 213
Width: 617
GlyphClass: 2
Flags: W
LayerCount: 2
Fore
SplineSet
377 752 m 128,-1,1
 377 733 377 733 358.5 719.5 c 128,-1,2
 340 706 340 706 321 706 c 0,3,4
 301 706 301 706 283 719 c 128,-1,5
 265 732 265 732 265 752 c 0,6,7
 265 771 265 771 283.5 784.5 c 128,-1,8
 302 798 302 798 321 798 c 0,9,10
 339 798 339 798 358 784.5 c 128,-1,0
 377 771 377 771 377 752 c 128,-1,1
146 327 m 1,11,-1
 146 62 l 1,12,-1
 529 62 l 2,13,14
 568 62 568 62 568 29 c 0,15,16
 568 0 568 0 529 0 c 2,17,-1
 113 0 l 2,18,19
 84 0 84 0 84 40 c 2,20,-1
 84 596 l 2,21,22
 84 636 84 636 113 636 c 2,23,-1
 529 636 l 2,24,25
 568 636 568 636 568 603 c 0,26,27
 568 574 568 574 529 574 c 2,28,-1
 146 574 l 1,29,-1
 146 389 l 1,30,-1
 408 389 l 2,31,32
 451 389 451 389 451 356 c 0,33,34
 451 327 451 327 408 327 c 2,35,-1
 146 327 l 1,11,-1
EndSplineSet
EndChar

StartChar: edotaccent
Encoding: 279 279 214
Width: 626
GlyphClass: 2
Flags: W
LayerCount: 2
Fore
SplineSet
370 568 m 128,-1,1
 370 549 370 549 351.5 535.5 c 128,-1,2
 333 522 333 522 314 522 c 0,3,4
 294 522 294 522 276 535 c 128,-1,5
 258 548 258 548 258 568 c 0,6,7
 258 587 258 587 276.5 600.5 c 128,-1,8
 295 614 295 614 314 614 c 0,9,10
 332 614 332 614 351 600.5 c 128,-1,0
 370 587 370 587 370 568 c 128,-1,1
566 284 m 2,11,-1
 566 240 l 1,12,-1
 124 240 l 1,13,-1
 124 179 l 2,14,15
 124 103 124 103 159 82.5 c 128,-1,16
 194 62 194 62 300 62 c 2,17,-1
 454 62 l 2,18,19
 483 62 483 62 493.5 74.5 c 128,-1,20
 504 87 504 87 504 119 c 0,21,22
 504 157 504 157 535 157 c 128,-1,23
 566 157 566 157 566 116 c 0,24,25
 566 64 566 64 545 32 c 128,-1,26
 524 0 524 0 461 0 c 2,27,-1
 300 0 l 2,28,29
 175 0 175 0 118.5 36 c 128,-1,30
 62 72 62 72 62 177 c 2,31,-1
 62 284 l 2,32,33
 62 389 62 389 118.5 425 c 128,-1,34
 175 461 175 461 300 461 c 2,35,-1
 329 461 l 2,36,37
 453 461 453 461 509.5 425 c 128,-1,38
 566 389 566 389 566 284 c 2,11,-1
329 399 m 2,39,-1
 300 399 l 2,40,41
 198 399 198 399 162 381.5 c 128,-1,42
 126 364 126 364 124 302 c 1,43,-1
 504 302 l 1,44,45
 502 364 502 364 466 381.5 c 128,-1,46
 430 399 430 399 329 399 c 2,39,-1
EndSplineSet
EndChar

StartChar: Eogonek
Encoding: 280 280 215
Width: 616
GlyphClass: 2
Flags: W
LayerCount: 2
Fore
SplineSet
146 327 m 1,0,-1
 146 62 l 1,1,-1
 529 62 l 2,2,3
 568 62 568 62 568 29 c 0,4,5
 568 0 568 0 529 0 c 2,6,-1
 367 0 l 1,7,8
 335 -19 335 -19 316.5 -51 c 128,-1,9
 298 -83 298 -83 298 -96 c 0,10,11
 298 -145 298 -145 335 -145 c 0,12,13
 350 -145 350 -145 372 -136.5 c 128,-1,14
 394 -128 394 -128 401 -128 c 0,15,16
 421 -128 421 -128 421 -150 c 0,17,18
 421 -179 421 -179 392.5 -192 c 128,-1,19
 364 -205 364 -205 337 -205 c 0,20,21
 294 -205 294 -205 265 -175 c 128,-1,22
 236 -145 236 -145 236 -96 c 0,23,24
 236 -59 236 -59 282 0 c 1,25,-1
 113 0 l 2,26,27
 84 0 84 0 84 40 c 2,28,-1
 84 601 l 2,29,30
 84 641 84 641 113 641 c 2,31,-1
 529 641 l 2,32,33
 568 641 568 641 568 608 c 0,34,35
 568 579 568 579 529 579 c 2,36,-1
 146 579 l 1,37,-1
 146 389 l 1,38,-1
 408 389 l 2,39,40
 451 389 451 389 451 356 c 0,41,42
 451 327 451 327 408 327 c 2,43,-1
 146 327 l 1,0,-1
EndSplineSet
EndChar

StartChar: eogonek
Encoding: 281 281 216
Width: 626
GlyphClass: 2
Flags: W
LayerCount: 2
Fore
SplineSet
329 399 m 2,0,-1
 300 399 l 2,1,2
 198 399 198 399 162 381.5 c 128,-1,3
 126 364 126 364 124 302 c 1,4,-1
 504 302 l 1,5,6
 502 364 502 364 466 381.5 c 128,-1,7
 430 399 430 399 329 399 c 2,0,-1
566 284 m 2,8,-1
 566 240 l 1,9,-1
 124 240 l 1,10,-1
 124 179 l 2,11,12
 124 103 124 103 159 82.5 c 128,-1,13
 194 62 194 62 300 62 c 2,14,-1
 454 62 l 2,15,16
 483 62 483 62 493.5 74.5 c 128,-1,17
 504 87 504 87 504 119 c 0,18,19
 504 157 504 157 535 157 c 128,-1,20
 566 157 566 157 566 116 c 0,21,22
 566 64 566 64 545 32 c 128,-1,23
 524 0 524 0 461 0 c 2,24,-1
 392 0 l 1,25,26
 360 -19 360 -19 341.5 -51 c 128,-1,27
 323 -83 323 -83 323 -96 c 0,28,29
 323 -145 323 -145 360 -145 c 0,30,31
 376 -145 376 -145 398 -136.5 c 128,-1,32
 420 -128 420 -128 426 -128 c 0,33,34
 446 -128 446 -128 446 -150 c 0,35,36
 446 -179 446 -179 417.5 -192 c 128,-1,37
 389 -205 389 -205 362 -205 c 0,38,39
 319 -205 319 -205 290 -175 c 128,-1,40
 261 -145 261 -145 261 -96 c 0,41,42
 261 -59 261 -59 307 0 c 1,43,-1
 300 0 l 2,44,45
 175 0 175 0 118.5 36 c 128,-1,46
 62 72 62 72 62 177 c 2,47,-1
 62 284 l 2,48,49
 62 389 62 389 118.5 425 c 128,-1,50
 175 461 175 461 300 461 c 2,51,-1
 329 461 l 2,52,53
 453 461 453 461 509.5 425 c 128,-1,54
 566 389 566 389 566 284 c 2,8,-1
EndSplineSet
EndChar

StartChar: Ecaron
Encoding: 282 282 217
Width: 617
GlyphClass: 2
Flags: W
LayerCount: 2
Fore
SplineSet
351 665 m 1,0,-1
 291 665 l 1,1,-1
 185 776 l 2,2,3
 177 784 177 784 177 794 c 128,-1,4
 177 804 177 804 184 811.5 c 128,-1,5
 191 819 191 819 205 819 c 0,6,7
 218 819 218 819 240 801 c 2,8,-1
 321 734 l 1,9,-1
 402 801 l 2,10,11
 424 819 424 819 437 819 c 0,12,13
 451 819 451 819 458 811.5 c 128,-1,14
 465 804 465 804 465 794 c 128,-1,15
 465 784 465 784 457 776 c 2,16,-1
 351 665 l 1,0,-1
146 327 m 1,17,-1
 146 62 l 1,18,-1
 529 62 l 2,19,20
 568 62 568 62 568 29 c 0,21,22
 568 0 568 0 529 0 c 2,23,-1
 113 0 l 2,24,25
 84 0 84 0 84 40 c 2,26,-1
 84 596 l 2,27,28
 84 636 84 636 113 636 c 2,29,-1
 529 636 l 2,30,31
 568 636 568 636 568 603 c 0,32,33
 568 574 568 574 529 574 c 2,34,-1
 146 574 l 1,35,-1
 146 389 l 1,36,-1
 408 389 l 2,37,38
 451 389 451 389 451 356 c 0,39,40
 451 327 451 327 408 327 c 2,41,-1
 146 327 l 1,17,-1
EndSplineSet
EndChar

StartChar: ecaron
Encoding: 283 283 218
Width: 626
GlyphClass: 2
Flags: W
LayerCount: 2
Fore
SplineSet
566 284 m 2,0,-1
 566 240 l 1,1,-1
 124 240 l 1,2,-1
 124 179 l 2,3,4
 124 103 124 103 159 82.5 c 128,-1,5
 194 62 194 62 300 62 c 2,6,-1
 454 62 l 2,7,8
 483 62 483 62 493.5 74.5 c 128,-1,9
 504 87 504 87 504 119 c 0,10,11
 504 157 504 157 535 157 c 128,-1,12
 566 157 566 157 566 116 c 0,13,14
 566 64 566 64 545 32 c 128,-1,15
 524 0 524 0 461 0 c 2,16,-1
 300 0 l 2,17,18
 175 0 175 0 118.5 36 c 128,-1,19
 62 72 62 72 62 177 c 2,20,-1
 62 284 l 2,21,22
 62 389 62 389 118.5 425 c 128,-1,23
 175 461 175 461 300 461 c 2,24,-1
 329 461 l 2,25,26
 453 461 453 461 509.5 425 c 128,-1,27
 566 389 566 389 566 284 c 2,0,-1
329 399 m 2,28,-1
 300 399 l 2,29,30
 198 399 198 399 162 381.5 c 128,-1,31
 126 364 126 364 124 302 c 1,32,-1
 504 302 l 1,33,34
 502 364 502 364 466 381.5 c 128,-1,35
 430 399 430 399 329 399 c 2,28,-1
330 517 m 1,36,-1
 270 517 l 1,37,-1
 164 628 l 2,38,39
 156 636 156 636 156 646 c 128,-1,40
 156 656 156 656 163 663.5 c 128,-1,41
 170 671 170 671 184 671 c 0,42,43
 197 671 197 671 219 653 c 2,44,-1
 300 586 l 1,45,-1
 381 653 l 2,46,47
 403 671 403 671 416 671 c 0,48,49
 430 671 430 671 437 663.5 c 128,-1,50
 444 656 444 656 444 646 c 128,-1,51
 444 636 444 636 436 628 c 2,52,-1
 330 517 l 1,36,-1
EndSplineSet
EndChar

StartChar: Gcircumflex
Encoding: 284 284 219
Width: 625
GlyphClass: 2
Flags: W
LayerCount: 2
Fore
SplineSet
493 241 m 1,0,-1
 364 241 l 2,1,2
 321 241 321 241 321 271 c 0,3,4
 321 303 321 303 364 303 c 2,5,-1
 555 303 l 1,6,-1
 555 112 l 2,7,8
 555 80 555 80 549 58 c 128,-1,9
 543 36 543 36 518.5 18 c 128,-1,10
 494 0 494 0 450 0 c 2,11,-1
 297 0 l 2,12,13
 180 0 180 0 125.5 36 c 128,-1,14
 71 72 71 72 71 179 c 2,15,-1
 71 457 l 2,16,17
 71 565 71 565 127.5 600.5 c 128,-1,18
 184 636 184 636 309 636 c 2,19,-1
 450 636 l 2,20,21
 513 636 513 636 534 604 c 128,-1,22
 555 572 555 572 555 520 c 0,23,24
 555 479 555 479 524 479 c 128,-1,25
 493 479 493 479 493 518 c 0,26,27
 493 550 493 550 482.5 562 c 128,-1,28
 472 574 472 574 443 574 c 2,29,-1
 309 574 l 2,30,31
 205 574 205 574 169 553 c 128,-1,32
 133 532 133 532 133 455 c 2,33,-1
 133 181 l 2,34,35
 133 104 133 104 167 83 c 128,-1,36
 201 62 201 62 297 62 c 2,37,-1
 443 62 l 2,38,39
 473 62 473 62 483 73.5 c 128,-1,40
 493 85 493 85 493 116 c 2,41,-1
 493 241 l 1,0,-1
171 695 m 2,42,-1
 278 819 l 1,43,-1
 341 819 l 1,44,-1
 450 695 l 2,45,46
 457 688 457 688 457 674 c 0,47,48
 457 646 457 646 429 646 c 0,49,50
 421 646 421 646 416 648.5 c 128,-1,51
 411 651 411 651 404 660 c 2,52,-1
 397 668 l 1,53,-1
 310 750 l 1,54,-1
 224 668 l 1,55,-1
 217 660 l 2,56,57
 210 651 210 651 205 648.5 c 128,-1,58
 200 646 200 646 192 646 c 0,59,60
 164 646 164 646 164 674 c 0,61,62
 164 688 164 688 171 695 c 2,42,-1
EndSplineSet
EndChar

StartChar: gcircumflex
Encoding: 285 285 220
Width: 641
GlyphClass: 2
Flags: W
LayerCount: 2
Fore
SplineSet
170 573 m 2,0,-1
 277 697 l 1,1,-1
 340 697 l 1,2,-1
 449 573 l 2,3,4
 456 566 456 566 456 552 c 0,5,6
 456 524 456 524 428 524 c 0,7,8
 420 524 420 524 415 526.5 c 128,-1,9
 410 529 410 529 403 538 c 2,10,-1
 396 546 l 1,11,-1
 309 628 l 1,12,-1
 223 546 l 1,13,-1
 216 538 l 2,14,15
 209 529 209 529 204 526.5 c 128,-1,16
 199 524 199 524 191 524 c 0,17,18
 163 524 163 524 163 552 c 0,19,20
 163 566 163 566 170 573 c 2,0,-1
566 -82 m 2,21,22
 566 -149 566 -149 546 -177 c 128,-1,23
 526 -205 526 -205 470 -205 c 2,24,-1
 167 -205 l 2,25,26
 134 -205 134 -205 111.5 -195 c 128,-1,27
 89 -185 89 -185 79 -167 c 128,-1,28
 69 -149 69 -149 65.5 -130.5 c 128,-1,29
 62 -112 62 -112 62 -88 c 0,30,31
 62 -48 62 -48 93 -48 c 128,-1,32
 124 -48 124 -48 124 -86 c 0,33,34
 124 -119 124 -119 134.5 -131 c 128,-1,35
 145 -143 145 -143 174 -143 c 2,36,-1
 463 -143 l 2,37,38
 489 -143 489 -143 496.5 -134.5 c 128,-1,39
 504 -126 504 -126 504 -98 c 2,40,-1
 504 0 l 1,41,-1
 298 0 l 2,42,43
 174 0 174 0 118 36 c 128,-1,44
 62 72 62 72 62 177 c 2,45,-1
 62 284 l 2,46,47
 62 389 62 389 118.5 425 c 128,-1,48
 175 461 175 461 299 461 c 2,49,-1
 328 461 l 2,50,51
 444 461 444 461 504 405 c 1,52,-1
 504 428 l 2,53,54
 504 468 504 468 535 468 c 128,-1,55
 566 468 566 468 566 430 c 2,56,-1
 566 -82 l 2,21,22
298 62 m 2,57,-1
 504 62 l 1,58,-1
 504 233 l 2,59,60
 504 399 504 399 328 399 c 2,61,-1
 299 399 l 2,62,63
 195 399 195 399 159.5 379 c 128,-1,64
 124 359 124 359 124 282 c 2,65,-1
 124 179 l 2,66,67
 124 102 124 102 159 82 c 128,-1,68
 194 62 194 62 298 62 c 2,57,-1
EndSplineSet
EndChar

StartChar: Gbreve
Encoding: 286 286 221
Width: 625
GlyphClass: 2
Flags: W
LayerCount: 2
Fore
SplineSet
199 819 m 1,0,-1
 262 819 l 1,1,2
 262 796 262 796 276 779 c 128,-1,3
 290 762 290 762 324 762 c 128,-1,4
 358 762 358 762 372 779 c 128,-1,5
 386 796 386 796 386 819 c 1,6,-1
 449 819 l 1,7,8
 449 785 449 785 435.5 760 c 128,-1,9
 422 735 422 735 401.5 722.5 c 128,-1,10
 381 710 381 710 361.5 704 c 128,-1,11
 342 698 342 698 324 698 c 0,12,13
 279 698 279 698 239 726.5 c 128,-1,14
 199 755 199 755 199 819 c 1,0,-1
493 241 m 1,15,-1
 364 241 l 2,16,17
 321 241 321 241 321 271 c 0,18,19
 321 303 321 303 364 303 c 2,20,-1
 555 303 l 1,21,-1
 555 112 l 2,22,23
 555 80 555 80 549 58 c 128,-1,24
 543 36 543 36 518.5 18 c 128,-1,25
 494 0 494 0 450 0 c 2,26,-1
 297 0 l 2,27,28
 180 0 180 0 125.5 36 c 128,-1,29
 71 72 71 72 71 179 c 2,30,-1
 71 457 l 2,31,32
 71 565 71 565 127.5 600.5 c 128,-1,33
 184 636 184 636 309 636 c 2,34,-1
 450 636 l 2,35,36
 513 636 513 636 534 604 c 128,-1,37
 555 572 555 572 555 520 c 0,38,39
 555 479 555 479 524 479 c 128,-1,40
 493 479 493 479 493 518 c 0,41,42
 493 550 493 550 482.5 562 c 128,-1,43
 472 574 472 574 443 574 c 2,44,-1
 309 574 l 2,45,46
 205 574 205 574 169 553 c 128,-1,47
 133 532 133 532 133 455 c 2,48,-1
 133 181 l 2,49,50
 133 104 133 104 167 83 c 128,-1,51
 201 62 201 62 297 62 c 2,52,-1
 443 62 l 2,53,54
 473 62 473 62 483 73.5 c 128,-1,55
 493 85 493 85 493 116 c 2,56,-1
 493 241 l 1,15,-1
EndSplineSet
EndChar

StartChar: gbreve
Encoding: 287 287 222
Width: 641
GlyphClass: 2
Flags: W
LayerCount: 2
Fore
SplineSet
194 650 m 1,0,-1
 257 650 l 1,1,2
 257 627 257 627 271 610 c 128,-1,3
 285 593 285 593 319 593 c 128,-1,4
 353 593 353 593 367 610 c 128,-1,5
 381 627 381 627 381 650 c 1,6,-1
 444 650 l 1,7,8
 444 616 444 616 430.5 591 c 128,-1,9
 417 566 417 566 396.5 553.5 c 128,-1,10
 376 541 376 541 356.5 535 c 128,-1,11
 337 529 337 529 319 529 c 0,12,13
 274 529 274 529 234 557.5 c 128,-1,14
 194 586 194 586 194 650 c 1,0,-1
566 -82 m 2,15,16
 566 -149 566 -149 546 -177 c 128,-1,17
 526 -205 526 -205 470 -205 c 2,18,-1
 167 -205 l 2,19,20
 134 -205 134 -205 111.5 -195 c 128,-1,21
 89 -185 89 -185 79 -167 c 128,-1,22
 69 -149 69 -149 65.5 -130.5 c 128,-1,23
 62 -112 62 -112 62 -88 c 0,24,25
 62 -48 62 -48 93 -48 c 128,-1,26
 124 -48 124 -48 124 -86 c 0,27,28
 124 -119 124 -119 134.5 -131 c 128,-1,29
 145 -143 145 -143 174 -143 c 2,30,-1
 463 -143 l 2,31,32
 489 -143 489 -143 496.5 -134.5 c 128,-1,33
 504 -126 504 -126 504 -98 c 2,34,-1
 504 0 l 1,35,-1
 298 0 l 2,36,37
 174 0 174 0 118 36 c 128,-1,38
 62 72 62 72 62 177 c 2,39,-1
 62 284 l 2,40,41
 62 389 62 389 118.5 425 c 128,-1,42
 175 461 175 461 299 461 c 2,43,-1
 328 461 l 2,44,45
 444 461 444 461 504 405 c 1,46,-1
 504 428 l 2,47,48
 504 468 504 468 535 468 c 128,-1,49
 566 468 566 468 566 430 c 2,50,-1
 566 -82 l 2,15,16
298 62 m 2,51,-1
 504 62 l 1,52,-1
 504 233 l 2,53,54
 504 399 504 399 328 399 c 2,55,-1
 299 399 l 2,56,57
 195 399 195 399 159.5 379 c 128,-1,58
 124 359 124 359 124 282 c 2,59,-1
 124 179 l 2,60,61
 124 102 124 102 159 82 c 128,-1,62
 194 62 194 62 298 62 c 2,51,-1
EndSplineSet
EndChar

StartChar: Gdotaccent
Encoding: 288 288 223
Width: 625
GlyphClass: 2
Flags: W
LayerCount: 2
Fore
SplineSet
376 742 m 128,-1,1
 376 723 376 723 357.5 709.5 c 128,-1,2
 339 696 339 696 320 696 c 0,3,4
 300 696 300 696 282 709 c 128,-1,5
 264 722 264 722 264 742 c 0,6,7
 264 761 264 761 282.5 774.5 c 128,-1,8
 301 788 301 788 320 788 c 0,9,10
 338 788 338 788 357 774.5 c 128,-1,0
 376 761 376 761 376 742 c 128,-1,1
493 241 m 1,11,-1
 364 241 l 2,12,13
 321 241 321 241 321 271 c 0,14,15
 321 303 321 303 364 303 c 2,16,-1
 555 303 l 1,17,-1
 555 112 l 2,18,19
 555 80 555 80 549 58 c 128,-1,20
 543 36 543 36 518.5 18 c 128,-1,21
 494 0 494 0 450 0 c 2,22,-1
 297 0 l 2,23,24
 180 0 180 0 125.5 36 c 128,-1,25
 71 72 71 72 71 179 c 2,26,-1
 71 457 l 2,27,28
 71 565 71 565 127.5 600.5 c 128,-1,29
 184 636 184 636 309 636 c 2,30,-1
 450 636 l 2,31,32
 513 636 513 636 534 604 c 128,-1,33
 555 572 555 572 555 520 c 0,34,35
 555 479 555 479 524 479 c 128,-1,36
 493 479 493 479 493 518 c 0,37,38
 493 550 493 550 482.5 562 c 128,-1,39
 472 574 472 574 443 574 c 2,40,-1
 309 574 l 2,41,42
 205 574 205 574 169 553 c 128,-1,43
 133 532 133 532 133 455 c 2,44,-1
 133 181 l 2,45,46
 133 104 133 104 167 83 c 128,-1,47
 201 62 201 62 297 62 c 2,48,-1
 443 62 l 2,49,50
 473 62 473 62 483 73.5 c 128,-1,51
 493 85 493 85 493 116 c 2,52,-1
 493 241 l 1,11,-1
EndSplineSet
EndChar

StartChar: gdotaccent
Encoding: 289 289 224
Width: 641
GlyphClass: 2
Flags: W
LayerCount: 2
Fore
SplineSet
373 565 m 128,-1,1
 373 546 373 546 354.5 532.5 c 128,-1,2
 336 519 336 519 317 519 c 0,3,4
 297 519 297 519 279 532 c 128,-1,5
 261 545 261 545 261 565 c 0,6,7
 261 584 261 584 279.5 597.5 c 128,-1,8
 298 611 298 611 317 611 c 0,9,10
 335 611 335 611 354 597.5 c 128,-1,0
 373 584 373 584 373 565 c 128,-1,1
566 -82 m 2,11,12
 566 -149 566 -149 546 -177 c 128,-1,13
 526 -205 526 -205 470 -205 c 2,14,-1
 167 -205 l 2,15,16
 134 -205 134 -205 111.5 -195 c 128,-1,17
 89 -185 89 -185 79 -167 c 128,-1,18
 69 -149 69 -149 65.5 -130.5 c 128,-1,19
 62 -112 62 -112 62 -88 c 0,20,21
 62 -48 62 -48 93 -48 c 128,-1,22
 124 -48 124 -48 124 -86 c 0,23,24
 124 -119 124 -119 134.5 -131 c 128,-1,25
 145 -143 145 -143 174 -143 c 2,26,-1
 463 -143 l 2,27,28
 489 -143 489 -143 496.5 -134.5 c 128,-1,29
 504 -126 504 -126 504 -98 c 2,30,-1
 504 0 l 1,31,-1
 298 0 l 2,32,33
 174 0 174 0 118 36 c 128,-1,34
 62 72 62 72 62 177 c 2,35,-1
 62 284 l 2,36,37
 62 389 62 389 118.5 425 c 128,-1,38
 175 461 175 461 299 461 c 2,39,-1
 328 461 l 2,40,41
 444 461 444 461 504 405 c 1,42,-1
 504 428 l 2,43,44
 504 468 504 468 535 468 c 128,-1,45
 566 468 566 468 566 430 c 2,46,-1
 566 -82 l 2,11,12
298 62 m 2,47,-1
 504 62 l 1,48,-1
 504 233 l 2,49,50
 504 399 504 399 328 399 c 2,51,-1
 299 399 l 2,52,53
 195 399 195 399 159.5 379 c 128,-1,54
 124 359 124 359 124 282 c 2,55,-1
 124 179 l 2,56,57
 124 102 124 102 159 82 c 128,-1,58
 194 62 194 62 298 62 c 2,47,-1
EndSplineSet
EndChar

StartChar: Gcommaaccent
Encoding: 290 290 225
Width: 625
GlyphClass: 2
Flags: W
LayerCount: 2
Fore
SplineSet
365 -95 m 1,0,-1
 325 -178 l 2,1,2
 312 -205 312 -205 295 -205 c 0,3,4
 268 -205 268 -205 268 -175 c 0,5,6
 268 -170 268 -170 271 -158 c 2,7,-1
 295 -71 l 2,8,9
 303 -44 303 -44 325 -44 c 0,10,11
 339 -44 339 -44 355 -51 c 128,-1,12
 371 -58 371 -58 371 -74 c 0,13,14
 371 -85 371 -85 365 -95 c 1,0,-1
493 241 m 1,15,-1
 364 241 l 2,16,17
 321 241 321 241 321 271 c 0,18,19
 321 303 321 303 364 303 c 2,20,-1
 555 303 l 1,21,-1
 555 112 l 2,22,23
 555 80 555 80 549 58 c 128,-1,24
 543 36 543 36 518.5 18 c 128,-1,25
 494 0 494 0 450 0 c 2,26,-1
 297 0 l 2,27,28
 180 0 180 0 125.5 36 c 128,-1,29
 71 72 71 72 71 179 c 2,30,-1
 71 457 l 2,31,32
 71 565 71 565 127.5 600.5 c 128,-1,33
 184 636 184 636 309 636 c 2,34,-1
 450 636 l 2,35,36
 513 636 513 636 534 604 c 128,-1,37
 555 572 555 572 555 520 c 0,38,39
 555 479 555 479 524 479 c 128,-1,40
 493 479 493 479 493 518 c 0,41,42
 493 550 493 550 482.5 562 c 128,-1,43
 472 574 472 574 443 574 c 2,44,-1
 309 574 l 2,45,46
 205 574 205 574 169 553 c 128,-1,47
 133 532 133 532 133 455 c 2,48,-1
 133 181 l 2,49,50
 133 104 133 104 167 83 c 128,-1,51
 201 62 201 62 297 62 c 2,52,-1
 443 62 l 2,53,54
 473 62 473 62 483 73.5 c 128,-1,55
 493 85 493 85 493 116 c 2,56,-1
 493 241 l 1,15,-1
EndSplineSet
EndChar

StartChar: gcommaaccent
Encoding: 291 291 226
Width: 641
GlyphClass: 2
Flags: W
LayerCount: 2
Fore
SplineSet
287 580 m 1,0,-1
 327 663 l 2,1,2
 340 690 340 690 357 690 c 0,3,4
 384 690 384 690 384 660 c 0,5,6
 384 655 384 655 381 643 c 2,7,-1
 357 557 l 1,8,9
 348 529 348 529 327 529 c 0,10,11
 313 529 313 529 297 536 c 128,-1,12
 281 543 281 543 281 559 c 0,13,14
 281 570 281 570 287 580 c 1,0,-1
566 -82 m 2,15,16
 566 -149 566 -149 546 -177 c 128,-1,17
 526 -205 526 -205 470 -205 c 2,18,-1
 167 -205 l 2,19,20
 134 -205 134 -205 111.5 -195 c 128,-1,21
 89 -185 89 -185 79 -167 c 128,-1,22
 69 -149 69 -149 65.5 -130.5 c 128,-1,23
 62 -112 62 -112 62 -88 c 0,24,25
 62 -48 62 -48 93 -48 c 128,-1,26
 124 -48 124 -48 124 -86 c 0,27,28
 124 -119 124 -119 134.5 -131 c 128,-1,29
 145 -143 145 -143 174 -143 c 2,30,-1
 463 -143 l 2,31,32
 489 -143 489 -143 496.5 -134.5 c 128,-1,33
 504 -126 504 -126 504 -98 c 2,34,-1
 504 0 l 1,35,-1
 298 0 l 2,36,37
 174 0 174 0 118 36 c 128,-1,38
 62 72 62 72 62 177 c 2,39,-1
 62 284 l 2,40,41
 62 389 62 389 118.5 425 c 128,-1,42
 175 461 175 461 299 461 c 2,43,-1
 328 461 l 2,44,45
 444 461 444 461 504 405 c 1,46,-1
 504 428 l 2,47,48
 504 468 504 468 535 468 c 128,-1,49
 566 468 566 468 566 430 c 2,50,-1
 566 -82 l 2,15,16
298 62 m 2,51,-1
 504 62 l 1,52,-1
 504 233 l 2,53,54
 504 399 504 399 328 399 c 2,55,-1
 299 399 l 2,56,57
 195 399 195 399 159.5 379 c 128,-1,58
 124 359 124 359 124 282 c 2,59,-1
 124 179 l 2,60,61
 124 102 124 102 159 82 c 128,-1,62
 194 62 194 62 298 62 c 2,51,-1
EndSplineSet
EndChar

StartChar: Hcircumflex
Encoding: 292 292 227
Width: 652
GlyphClass: 2
Flags: W
LayerCount: 2
Fore
SplineSet
185 695 m 2,0,-1
 292 819 l 1,1,-1
 355 819 l 1,2,-1
 464 695 l 2,3,4
 471 688 471 688 471 674 c 0,5,6
 471 646 471 646 443 646 c 0,7,8
 435 646 435 646 430 648.5 c 128,-1,9
 425 651 425 651 418 660 c 2,10,-1
 411 668 l 1,11,-1
 324 750 l 1,12,-1
 238 668 l 1,13,-1
 231 660 l 2,14,15
 224 651 224 651 219 648.5 c 128,-1,16
 214 646 214 646 206 646 c 0,17,18
 178 646 178 646 178 674 c 0,19,20
 178 688 178 688 185 695 c 2,0,-1
146 31 m 2,21,22
 146 -7 146 -7 115 -7 c 128,-1,23
 84 -7 84 -7 84 31 c 2,24,-1
 84 604 l 2,25,26
 84 643 84 643 113 643 c 0,27,28
 146 643 146 643 146 604 c 2,29,-1
 146 374 l 1,30,-1
 506 374 l 1,31,-1
 506 604 l 2,32,33
 506 643 506 643 536 643 c 0,34,35
 568 643 568 643 568 604 c 2,36,-1
 568 31 l 2,37,38
 568 -7 568 -7 538 -7 c 0,39,40
 506 -7 506 -7 506 31 c 2,41,-1
 506 312 l 1,42,-1
 146 312 l 1,43,-1
 146 31 l 2,21,22
EndSplineSet
EndChar

StartChar: hcircumflex
Encoding: 293 293 228
Width: 648
GlyphClass: 2
Flags: W
LayerCount: 2
Fore
SplineSet
182 697 m 2,0,-1
 289 821 l 1,1,-1
 352 821 l 1,2,-1
 461 697 l 2,3,4
 468 690 468 690 468 676 c 0,5,6
 468 648 468 648 440 648 c 0,7,8
 432 648 432 648 427 650.5 c 128,-1,9
 422 653 422 653 415 662 c 2,10,-1
 408 670 l 1,11,-1
 321 752 l 1,12,-1
 235 670 l 1,13,-1
 228 662 l 2,14,15
 221 653 221 653 216 650.5 c 128,-1,16
 211 648 211 648 203 648 c 0,17,18
 175 648 175 648 175 676 c 0,19,20
 175 690 175 690 182 697 c 2,0,-1
313 399 m 2,21,22
 137 399 137 399 137 230 c 2,23,-1
 137 31 l 2,24,25
 137 -7 137 -7 106 -7 c 128,-1,26
 75 -7 75 -7 75 31 c 2,27,-1
 75 602 l 2,28,29
 75 643 75 643 104 643 c 0,30,31
 137 643 137 643 137 602 c 2,32,-1
 137 405 l 1,33,34
 197 461 197 461 313 461 c 2,35,-1
 342 461 l 2,36,37
 466 461 466 461 522.5 425 c 128,-1,38
 579 389 579 389 579 284 c 2,39,-1
 579 31 l 2,40,41
 579 -7 579 -7 549 -7 c 0,42,43
 517 -7 517 -7 517 31 c 2,44,-1
 517 282 l 2,45,46
 517 359 517 359 481.5 379 c 128,-1,47
 446 399 446 399 342 399 c 2,48,-1
 313 399 l 2,21,22
EndSplineSet
EndChar

StartChar: Hbar
Encoding: 294 294 229
Width: 656
GlyphClass: 2
Flags: W
LayerCount: 2
Fore
SplineSet
54 508 m 2,0,1
 28 508 28 508 28 530 c 0,2,3
 28 551 28 551 54 551 c 2,4,-1
 86 551 l 1,5,-1
 86 604 l 2,6,7
 86 643 86 643 115 643 c 0,8,9
 148 643 148 643 148 604 c 2,10,-1
 148 551 l 1,11,-1
 508 551 l 1,12,-1
 508 604 l 2,13,14
 508 643 508 643 538 643 c 0,15,16
 570 643 570 643 570 604 c 2,17,-1
 570 551 l 1,18,-1
 599 551 l 2,19,20
 628 551 628 551 628 528 c 0,21,22
 628 508 628 508 599 508 c 2,23,-1
 570 508 l 1,24,-1
 570 31 l 2,25,26
 570 -7 570 -7 540 -7 c 0,27,28
 508 -7 508 -7 508 31 c 2,29,-1
 508 312 l 1,30,-1
 148 312 l 1,31,-1
 148 31 l 2,32,33
 148 -7 148 -7 117 -7 c 128,-1,34
 86 -7 86 -7 86 31 c 2,35,-1
 86 508 l 1,36,-1
 54 508 l 2,0,1
508 508 m 1,37,-1
 148 508 l 1,38,-1
 148 374 l 1,39,-1
 508 374 l 1,40,-1
 508 508 l 1,37,-1
EndSplineSet
EndChar

StartChar: hbar
Encoding: 295 295 230
Width: 648
GlyphClass: 2
Flags: W
LayerCount: 2
Fore
SplineSet
75 495 m 1,0,1
 50 495 50 495 39 505 c 128,-1,2
 28 515 28 515 28 528 c 128,-1,3
 28 541 28 541 41 549.5 c 128,-1,4
 54 558 54 558 75 558 c 1,5,-1
 75 602 l 2,6,7
 75 643 75 643 104 643 c 0,8,9
 137 643 137 643 137 602 c 2,10,-1
 137 558 l 1,11,-1
 353 558 l 2,12,13
 378 558 378 558 389 548 c 128,-1,14
 400 538 400 538 400 525 c 128,-1,15
 400 512 400 512 387 503.5 c 128,-1,16
 374 495 374 495 353 495 c 2,17,-1
 137 495 l 1,18,-1
 137 405 l 1,19,20
 200 461 200 461 313 461 c 2,21,-1
 342 461 l 2,22,23
 466 461 466 461 522.5 425 c 128,-1,24
 579 389 579 389 579 284 c 2,25,-1
 579 31 l 2,26,27
 579 -7 579 -7 549 -7 c 0,28,29
 517 -7 517 -7 517 31 c 2,30,-1
 517 282 l 2,31,32
 517 359 517 359 481.5 379 c 128,-1,33
 446 399 446 399 342 399 c 2,34,-1
 313 399 l 2,35,36
 137 399 137 399 137 230 c 2,37,-1
 137 31 l 2,38,39
 137 -7 137 -7 106 -7 c 128,-1,40
 75 -7 75 -7 75 31 c 2,41,-1
 75 495 l 1,0,1
EndSplineSet
EndChar

StartChar: Itilde
Encoding: 296 296 231
Width: 230
GlyphClass: 2
Flags: W
LayerCount: 2
Fore
SplineSet
161 775 m 2,0,1
 166 773 166 773 169 773 c 128,-1,2
 172 773 172 773 174 775 c 2,3,-1
 205 803 l 2,4,5
 215 813 215 813 230 813 c 0,6,7
 241 813 241 813 250.5 805 c 128,-1,8
 260 797 260 797 260 784 c 0,9,10
 260 767 260 767 244 754 c 2,11,-1
 199 716 l 1,12,13
 185 706 185 706 176 706 c 0,14,15
 166 706 166 706 162 708 c 2,16,-1
 68 744 l 2,17,18
 63 746 63 746 60 746 c 128,-1,19
 57 746 57 746 55 744 c 2,20,-1
 24 716 l 2,21,22
 14 706 14 706 -1 706 c 0,23,24
 -12 706 -12 706 -21.5 714 c 128,-1,25
 -31 722 -31 722 -31 735 c 0,26,27
 -31 752 -31 752 -15 765 c 2,28,-1
 30 803 l 1,29,30
 44 813 44 813 53 813 c 0,31,32
 63 813 63 813 67 811 c 2,33,-1
 161 775 l 2,0,1
146 29 m 2,34,35
 146 -7 146 -7 114 -7 c 0,36,37
 84 -7 84 -7 84 29 c 2,38,-1
 84 606 l 2,39,40
 84 643 84 643 115 643 c 128,-1,41
 146 643 146 643 146 606 c 2,42,-1
 146 29 l 2,34,35
EndSplineSet
EndChar

StartChar: itilde
Encoding: 297 297 232
Width: 208
GlyphClass: 2
Flags: W
LayerCount: 2
Fore
SplineSet
150 608 m 2,0,1
 155 606 155 606 158 606 c 128,-1,2
 161 606 161 606 163 608 c 2,3,-1
 194 636 l 2,4,5
 204 646 204 646 219 646 c 0,6,7
 230 646 230 646 239.5 638 c 128,-1,8
 249 630 249 630 249 617 c 0,9,10
 249 600 249 600 233 587 c 2,11,-1
 188 549 l 1,12,13
 174 539 174 539 165 539 c 0,14,15
 155 539 155 539 151 541 c 2,16,-1
 57 577 l 2,17,18
 52 579 52 579 49 579 c 128,-1,19
 46 579 46 579 44 577 c 2,20,-1
 13 549 l 2,21,22
 3 539 3 539 -12 539 c 0,23,24
 -23 539 -23 539 -32.5 547 c 128,-1,25
 -42 555 -42 555 -42 568 c 0,26,27
 -42 585 -42 585 -26 598 c 2,28,-1
 19 636 l 1,29,30
 33 646 33 646 42 646 c 0,31,32
 52 646 52 646 56 644 c 2,33,-1
 150 608 l 2,0,1
73 20 m 2,34,-1
 73 440 l 2,35,36
 73 478 73 478 104 478 c 128,-1,37
 135 478 135 478 135 440 c 2,38,-1
 135 20 l 2,39,40
 135 -17 135 -17 103 -17 c 0,41,42
 73 -17 73 -17 73 20 c 2,34,-1
EndSplineSet
EndChar

StartChar: Imacron
Encoding: 298 298 233
Width: 230
GlyphClass: 2
Flags: W
LayerCount: 2
Fore
SplineSet
-9 769 m 2,0,-1
 236 769 l 2,1,2
 275 769 275 769 275 736 c 0,3,4
 275 722 275 722 263.5 714 c 128,-1,5
 252 706 252 706 236 706 c 2,6,-1
 -9 706 l 2,7,8
 -45 706 -45 706 -45 738 c 0,9,10
 -45 750 -45 750 -36.5 759.5 c 128,-1,11
 -28 769 -28 769 -9 769 c 2,0,-1
146 29 m 2,12,13
 146 -7 146 -7 114 -7 c 0,14,15
 84 -7 84 -7 84 29 c 2,16,-1
 84 606 l 2,17,18
 84 643 84 643 115 643 c 128,-1,19
 146 643 146 643 146 606 c 2,20,-1
 146 29 l 2,12,13
EndSplineSet
EndChar

StartChar: imacron
Encoding: 299 299 234
Width: 208
GlyphClass: 2
Flags: W
LayerCount: 2
Fore
SplineSet
-20 602 m 2,0,-1
 225 602 l 2,1,2
 264 602 264 602 264 569 c 0,3,4
 264 555 264 555 252.5 547 c 128,-1,5
 241 539 241 539 225 539 c 2,6,-1
 -20 539 l 2,7,8
 -56 539 -56 539 -56 571 c 0,9,10
 -56 583 -56 583 -47.5 592.5 c 128,-1,11
 -39 602 -39 602 -20 602 c 2,0,-1
73 20 m 2,12,-1
 73 440 l 2,13,14
 73 478 73 478 104 478 c 128,-1,15
 135 478 135 478 135 440 c 2,16,-1
 135 20 l 2,17,18
 135 -17 135 -17 103 -17 c 0,19,20
 73 -17 73 -17 73 20 c 2,12,-1
EndSplineSet
EndChar

StartChar: Iogonek
Encoding: 302 302 235
Width: 234
GlyphClass: 2
Flags: W
LayerCount: 2
Fore
SplineSet
88 39 m 1,0,-1
 88 606 l 2,1,2
 88 643 88 643 119 643 c 128,-1,3
 150 643 150 643 150 606 c 2,4,-1
 150 29 l 2,5,6
 150 1 150 1 131 -5 c 1,7,8
 103 -24 103 -24 86.5 -54 c 128,-1,9
 70 -84 70 -84 70 -96 c 0,10,11
 70 -145 70 -145 107 -145 c 0,12,13
 122 -145 122 -145 144 -136.5 c 128,-1,14
 166 -128 166 -128 173 -128 c 0,15,16
 193 -128 193 -128 193 -150 c 0,17,18
 193 -179 193 -179 164.5 -192 c 128,-1,19
 136 -205 136 -205 109 -205 c 0,20,21
 66 -205 66 -205 37 -175 c 128,-1,22
 8 -145 8 -145 8 -96 c 0,23,24
 8 -68 8 -68 33.5 -29 c 128,-1,25
 59 10 59 10 88 39 c 1,0,-1
EndSplineSet
EndChar

StartChar: iogonek
Encoding: 303 303 236
Width: 214
GlyphClass: 2
Flags: W
LayerCount: 2
Fore
SplineSet
165 601 m 128,-1,1
 165 582 165 582 146 568.5 c 128,-1,2
 127 555 127 555 109 555 c 0,3,4
 90 555 90 555 71.5 568.5 c 128,-1,5
 53 582 53 582 53 601 c 0,6,7
 53 621 53 621 71 634 c 128,-1,8
 89 647 89 647 109 647 c 0,9,10
 128 647 128 647 146.5 633.5 c 128,-1,0
 165 620 165 620 165 601 c 128,-1,1
114 -17 m 1,11,12
 92 -37 92 -37 79 -62 c 128,-1,13
 66 -87 66 -87 66 -97 c 0,14,15
 66 -146 66 -146 103 -146 c 0,16,17
 118 -146 118 -146 140 -137.5 c 128,-1,18
 162 -129 162 -129 169 -129 c 0,19,20
 189 -129 189 -129 189 -151 c 0,21,22
 189 -180 189 -180 160.5 -193 c 128,-1,23
 132 -206 132 -206 105 -206 c 0,24,25
 62 -206 62 -206 33 -176 c 128,-1,26
 4 -146 4 -146 4 -97 c 0,27,28
 4 -47 4 -47 78 32 c 1,29,-1
 78 440 l 2,30,31
 78 478 78 478 109 478 c 128,-1,32
 140 478 140 478 140 440 c 2,33,-1
 140 20 l 2,34,35
 140 -13 140 -13 114 -17 c 1,11,12
EndSplineSet
EndChar

StartChar: Idotaccent
Encoding: 304 304 237
Width: 230
GlyphClass: 2
Flags: W
LayerCount: 2
Fore
SplineSet
171 742 m 128,-1,1
 171 723 171 723 152.5 709.5 c 128,-1,2
 134 696 134 696 115 696 c 0,3,4
 95 696 95 696 77 709 c 128,-1,5
 59 722 59 722 59 742 c 0,6,7
 59 761 59 761 77.5 774.5 c 128,-1,8
 96 788 96 788 115 788 c 0,9,10
 133 788 133 788 152 774.5 c 128,-1,0
 171 761 171 761 171 742 c 128,-1,1
146 29 m 2,11,12
 146 -7 146 -7 114 -7 c 0,13,14
 84 -7 84 -7 84 29 c 2,15,-1
 84 606 l 2,16,17
 84 643 84 643 115 643 c 128,-1,18
 146 643 146 643 146 606 c 2,19,-1
 146 29 l 2,11,12
EndSplineSet
EndChar

StartChar: dotlessi
Encoding: 305 305 238
Width: 208
GlyphClass: 2
Flags: W
AnchorPoint: "Anchor-1" 104 0 basechar 0
AnchorPoint: "Anchor-0" 104 510 basechar 0
LayerCount: 2
Fore
SplineSet
73 20 m 2,0,-1
 73 440 l 2,1,2
 73 478 73 478 104 478 c 128,-1,3
 135 478 135 478 135 440 c 2,4,-1
 135 20 l 2,5,6
 135 -17 135 -17 103 -17 c 0,7,8
 73 -17 73 -17 73 20 c 2,0,-1
EndSplineSet
EndChar

StartChar: Jcircumflex
Encoding: 308 308 239
Width: 571
GlyphClass: 2
Flags: W
LayerCount: 2
Fore
SplineSet
314 696 m 2,0,-1
 421 820 l 1,1,-1
 484 820 l 1,2,-1
 593 696 l 2,3,4
 600 689 600 689 600 675 c 0,5,6
 600 647 600 647 572 647 c 0,7,8
 564 647 564 647 559 649.5 c 128,-1,9
 554 652 554 652 547 660 c 2,10,-1
 540 669 l 1,11,-1
 453 751 l 1,12,-1
 367 669 l 1,13,-1
 360 660 l 2,14,15
 353 652 353 652 348 649.5 c 128,-1,16
 343 647 343 647 335 647 c 0,17,18
 307 647 307 647 307 675 c 0,19,20
 307 689 307 689 314 696 c 2,0,-1
262 54 m 0,21,22
 359 54 359 54 393.5 75 c 128,-1,23
 428 96 428 96 428 173 c 2,24,-1
 428 607 l 2,25,26
 428 643 428 643 459 643 c 128,-1,27
 490 643 490 643 490 606 c 2,28,-1
 490 171 l 2,29,30
 490 64 490 64 435 28 c 128,-1,31
 380 -8 380 -8 262 -8 c 0,32,33
 143 -8 143 -8 88 29 c 128,-1,34
 33 66 33 66 33 177 c 0,35,36
 33 215 33 215 66 215 c 0,37,38
 80 215 80 215 88 204.5 c 128,-1,39
 96 194 96 194 96 177 c 0,40,41
 96 97 96 97 130 75.5 c 128,-1,42
 164 54 164 54 262 54 c 0,21,22
EndSplineSet
EndChar

StartChar: jcircumflex
Encoding: 309 309 240
Width: 212
GlyphClass: 2
Flags: W
LayerCount: 2
Fore
SplineSet
-31 573 m 2,0,-1
 76 697 l 1,1,-1
 139 697 l 1,2,-1
 248 573 l 2,3,4
 255 566 255 566 255 552 c 0,5,6
 255 524 255 524 227 524 c 0,7,8
 219 524 219 524 214 526.5 c 128,-1,9
 209 529 209 529 202 538 c 2,10,-1
 195 546 l 1,11,-1
 108 628 l 1,12,-1
 22 546 l 1,13,-1
 15 538 l 2,14,15
 8 529 8 529 3 526.5 c 128,-1,16
 -2 524 -2 524 -10 524 c 0,17,18
 -38 524 -38 524 -38 552 c 0,19,20
 -38 566 -38 566 -31 573 c 2,0,-1
137 0 m 2,21,22
 137 -55 137 -55 122 -91 c 128,-1,23
 107 -127 107 -127 76 -145 c 128,-1,24
 45 -163 45 -163 9 -169 c 128,-1,25
 -27 -175 -27 -175 -81 -175 c 0,26,27
 -122 -175 -122 -175 -122 -143 c 0,28,29
 -122 -113 -122 -113 -81 -113 c 0,30,31
 10 -113 10 -113 42.5 -93 c 128,-1,32
 75 -73 75 -73 75 0 c 2,33,-1
 75 427 l 2,34,35
 75 468 75 468 107 468 c 0,36,37
 137 468 137 468 137 427 c 2,38,-1
 137 0 l 2,21,22
EndSplineSet
EndChar

StartChar: Kcommaaccent
Encoding: 310 310 241
Width: 539
GlyphClass: 2
Flags: W
LayerCount: 2
Fore
SplineSet
354 -51 m 1,0,-1
 314 -134 l 2,1,2
 300 -161 300 -161 284 -161 c 0,3,4
 257 -161 257 -161 257 -131 c 0,5,6
 257 -126 257 -126 260 -114 c 2,7,-1
 284 -27 l 2,8,9
 292 0 292 0 314 0 c 0,10,11
 328 0 328 0 344 -7 c 128,-1,12
 360 -14 360 -14 360 -30 c 0,13,14
 360 -41 360 -41 354 -51 c 1,0,-1
534 23 m 0,15,16
 534 10 534 10 523.5 1.5 c 128,-1,17
 513 -7 513 -7 503 -7 c 0,18,19
 488 -7 488 -7 474 10 c 1,20,-1
 194 319 l 1,21,-1
 146 261 l 1,22,-1
 146 30 l 2,23,24
 146 -7 146 -7 114 -7 c 0,25,26
 84 -7 84 -7 84 29 c 2,27,-1
 84 606 l 2,28,29
 84 643 84 643 115 643 c 128,-1,30
 146 643 146 643 146 605 c 2,31,-1
 146 338 l 1,32,-1
 408 626 l 2,33,34
 423 643 423 643 437 643 c 0,35,36
 447 643 447 643 457 634.5 c 128,-1,37
 467 626 467 626 467 614 c 0,38,39
 467 601 467 601 456 588 c 2,40,-1
 237 355 l 1,41,-1
 522 48 l 2,42,43
 534 34 534 34 534 23 c 0,15,16
EndSplineSet
EndChar

StartChar: kcommaaccent
Encoding: 311 311 242
Width: 476
GlyphClass: 2
Flags: W
LayerCount: 2
Fore
SplineSet
305 -51 m 1,0,-1
 265 -134 l 2,1,2
 252 -161 252 -161 235 -161 c 0,3,4
 208 -161 208 -161 208 -131 c 0,5,6
 208 -126 208 -126 211 -114 c 2,7,-1
 235 -27 l 2,8,9
 243 0 243 0 265 0 c 0,10,11
 279 0 279 0 295 -7 c 128,-1,12
 311 -14 311 -14 311 -30 c 0,13,14
 311 -41 311 -41 305 -51 c 1,0,-1
462 23 m 0,15,16
 462 13 462 13 453.5 3.5 c 128,-1,17
 445 -6 445 -6 433 -6 c 0,18,19
 420 -6 420 -6 405 7 c 2,20,-1
 161 233 l 1,21,-1
 137 209 l 1,22,-1
 137 30 l 2,23,24
 137 -7 137 -7 105 -7 c 0,25,26
 75 -7 75 -7 75 28 c 2,27,-1
 75 605 l 2,28,29
 75 643 75 643 106 643 c 128,-1,30
 137 643 137 643 137 605 c 2,31,-1
 137 276 l 1,32,-1
 332 453 l 2,33,34
 345 466 345 466 360 466 c 0,35,36
 371 466 371 466 380.5 457.5 c 128,-1,37
 390 449 390 449 390 436 c 0,38,39
 390 422 390 422 376 410 c 2,40,-1
 205 264 l 1,41,-1
 450 50 l 2,42,43
 462 40 462 40 462 23 c 0,15,16
EndSplineSet
EndChar

StartChar: kgreenlandic
Encoding: 312 312 243
Width: 479
GlyphClass: 2
Flags: W
LayerCount: 2
Fore
SplineSet
447 23 m 0,0,1
 447 14 447 14 439 3.5 c 128,-1,2
 431 -7 431 -7 418 -7 c 0,3,4
 404 -7 404 -7 392 2 c 2,5,-1
 135 200 l 1,6,-1
 135 28 l 2,7,8
 135 -7 135 -7 103 -7 c 0,9,10
 73 -7 73 -7 73 28 c 2,11,-1
 73 432 l 2,12,13
 73 468 73 468 104 468 c 128,-1,14
 135 468 135 468 135 432 c 2,15,-1
 135 264 l 1,16,-1
 391 461 l 2,17,18
 403 471 403 471 418 471 c 0,19,20
 430 471 430 471 438.5 461 c 128,-1,21
 447 451 447 451 447 441 c 0,22,23
 447 425 447 425 430 413 c 2,24,-1
 185 232 l 1,25,-1
 431 50 l 2,26,27
 447 38 447 38 447 23 c 0,0,1
EndSplineSet
EndChar

StartChar: Lacute
Encoding: 313 313 244
Width: 535
GlyphClass: 2
Flags: W
LayerCount: 2
Fore
SplineSet
168 805 m 2,0,1
 183 820 183 820 196 820 c 0,2,3
 208 820 208 820 217.5 810 c 128,-1,4
 227 800 227 800 227 790 c 0,5,6
 227 778 227 778 213 762 c 1,7,-1
 144 694 l 2,8,9
 130 679 130 679 115 679 c 0,10,11
 102 679 102 679 93.5 688 c 128,-1,12
 85 697 85 697 85 708 c 0,13,14
 85 721 85 721 98 736 c 1,15,-1
 168 805 l 2,0,1
113 0 m 2,16,17
 84 0 84 0 84 39 c 2,18,-1
 84 607 l 2,19,20
 84 643 84 643 115 643 c 128,-1,21
 146 643 146 643 146 607 c 2,22,-1
 146 62 l 1,23,-1
 474 62 l 2,24,25
 512 62 512 62 512 30 c 0,26,27
 512 0 512 0 474 0 c 2,28,-1
 113 0 l 2,16,17
EndSplineSet
EndChar

StartChar: lacute
Encoding: 314 314 245
Width: 283
GlyphClass: 2
Flags: W
LayerCount: 2
Fore
SplineSet
164 804 m 2,0,1
 179 819 179 819 192 819 c 0,2,3
 204 819 204 819 213.5 809 c 128,-1,4
 223 799 223 799 223 789 c 0,5,6
 223 777 223 777 209 761 c 1,7,-1
 140 693 l 2,8,9
 126 678 126 678 111 678 c 0,10,11
 98 678 98 678 89.5 687 c 128,-1,12
 81 696 81 696 81 707 c 0,13,14
 81 720 81 720 94 735 c 1,15,-1
 164 804 l 2,0,1
203 0 m 2,16,-1
 196 0 l 2,17,18
 135 0 135 0 113 30 c 128,-1,19
 91 60 91 60 91 130 c 2,20,-1
 91 603 l 2,21,22
 91 643 91 643 122 643 c 128,-1,23
 153 643 153 643 153 603 c 2,24,-1
 153 114 l 2,25,26
 153 84 153 84 163.5 73 c 128,-1,27
 174 62 174 62 203 62 c 0,28,29
 243 62 243 62 243 30 c 0,30,31
 243 0 243 0 203 0 c 2,16,-1
EndSplineSet
EndChar

StartChar: Lcommaaccent
Encoding: 315 315 246
Width: 535
GlyphClass: 2
Flags: W
LayerCount: 2
Fore
SplineSet
339 -95 m 1,0,-1
 299 -178 l 2,1,2
 286 -205 286 -205 269 -205 c 0,3,4
 242 -205 242 -205 242 -175 c 0,5,6
 242 -170 242 -170 245 -158 c 2,7,-1
 269 -71 l 2,8,9
 277 -44 277 -44 299 -44 c 0,10,11
 313 -44 313 -44 329 -51 c 128,-1,12
 345 -58 345 -58 345 -74 c 0,13,14
 345 -85 345 -85 339 -95 c 1,0,-1
113 0 m 2,15,16
 84 0 84 0 84 39 c 2,17,-1
 84 607 l 2,18,19
 84 643 84 643 115 643 c 128,-1,20
 146 643 146 643 146 607 c 2,21,-1
 146 62 l 1,22,-1
 474 62 l 2,23,24
 512 62 512 62 512 30 c 0,25,26
 512 0 512 0 474 0 c 2,27,-1
 113 0 l 2,15,16
EndSplineSet
EndChar

StartChar: lcommaaccent
Encoding: 316 316 247
Width: 283
GlyphClass: 2
Flags: W
LayerCount: 2
Fore
SplineSet
188 -95 m 1,0,-1
 148 -178 l 2,1,2
 134 -205 134 -205 118 -205 c 0,3,4
 91 -205 91 -205 91 -175 c 0,5,6
 91 -170 91 -170 94 -158 c 2,7,-1
 118 -71 l 2,8,9
 126 -44 126 -44 148 -44 c 0,10,11
 162 -44 162 -44 178 -51 c 128,-1,12
 194 -58 194 -58 194 -74 c 0,13,14
 194 -85 194 -85 188 -95 c 1,0,-1
203 0 m 2,15,-1
 196 0 l 2,16,17
 135 0 135 0 113 30 c 128,-1,18
 91 60 91 60 91 130 c 2,19,-1
 91 603 l 2,20,21
 91 643 91 643 122 643 c 128,-1,22
 153 643 153 643 153 603 c 2,23,-1
 153 114 l 2,24,25
 153 84 153 84 163.5 73 c 128,-1,26
 174 62 174 62 203 62 c 0,27,28
 243 62 243 62 243 30 c 0,29,30
 243 0 243 0 203 0 c 2,15,-1
EndSplineSet
EndChar

StartChar: Lcaron
Encoding: 317 317 248
Width: 535
GlyphClass: 2
Flags: W
LayerCount: 2
Fore
SplineSet
286 604 m 1,0,-1
 246 521 l 2,1,2
 232 494 232 494 216 494 c 0,3,4
 189 494 189 494 189 524 c 0,5,6
 189 529 189 529 192 541 c 2,7,-1
 216 628 l 2,8,9
 224 655 224 655 246 655 c 0,10,11
 260 655 260 655 276 648 c 128,-1,12
 292 641 292 641 292 625 c 0,13,14
 292 614 292 614 286 604 c 1,0,-1
113 0 m 2,15,16
 84 0 84 0 84 39 c 2,17,-1
 84 607 l 2,18,19
 84 643 84 643 115 643 c 128,-1,20
 146 643 146 643 146 607 c 2,21,-1
 146 62 l 1,22,-1
 474 62 l 2,23,24
 512 62 512 62 512 30 c 0,25,26
 512 0 512 0 474 0 c 2,27,-1
 113 0 l 2,15,16
EndSplineSet
EndChar

StartChar: lcaron
Encoding: 318 318 249
Width: 283
GlyphClass: 2
Flags: W
LayerCount: 2
Fore
SplineSet
290 602 m 1,0,-1
 250 519 l 2,1,2
 236 492 236 492 220 492 c 0,3,4
 193 492 193 492 193 522 c 0,5,6
 193 527 193 527 196 539 c 2,7,-1
 220 626 l 2,8,9
 228 653 228 653 250 653 c 0,10,11
 264 653 264 653 280 646 c 128,-1,12
 296 639 296 639 296 623 c 0,13,14
 296 612 296 612 290 602 c 1,0,-1
203 0 m 2,15,-1
 196 0 l 2,16,17
 135 0 135 0 113 30 c 128,-1,18
 91 60 91 60 91 130 c 2,19,-1
 91 603 l 2,20,21
 91 643 91 643 122 643 c 128,-1,22
 153 643 153 643 153 603 c 2,23,-1
 153 114 l 2,24,25
 153 84 153 84 163.5 73 c 128,-1,26
 174 62 174 62 203 62 c 0,27,28
 243 62 243 62 243 30 c 0,29,30
 243 0 243 0 203 0 c 2,15,-1
EndSplineSet
EndChar

StartChar: Lslash
Encoding: 321 321 250
Width: 540
GlyphClass: 2
Flags: W
LayerCount: 2
Fore
SplineSet
118 0 m 2,0,1
 89 0 89 0 89 39 c 2,2,-1
 89 296 l 1,3,-1
 50 276 l 2,4,5
 42 273 42 273 33 273 c 0,6,7
 17 273 17 273 9.5 284 c 128,-1,8
 2 295 2 295 2 306 c 0,9,10
 2 322 2 322 27 334 c 2,11,-1
 89 365 l 1,12,-1
 89 607 l 2,13,14
 89 643 89 643 120 643 c 128,-1,15
 151 643 151 643 151 607 c 2,16,-1
 151 397 l 1,17,-1
 197 420 l 2,18,19
 203 423 203 423 216 423 c 0,20,21
 230 423 230 423 239 414 c 128,-1,22
 248 405 248 405 248 392 c 0,23,24
 248 373 248 373 220 361 c 1,25,-1
 151 326 l 1,26,-1
 151 62 l 1,27,-1
 479 62 l 2,28,29
 517 62 517 62 517 30 c 0,30,31
 517 0 517 0 479 0 c 2,32,-1
 118 0 l 2,0,1
EndSplineSet
EndChar

StartChar: lslash
Encoding: 322 322 251
Width: 335
GlyphClass: 2
Flags: W
LayerCount: 2
Fore
SplineSet
251 0 m 2,0,-1
 244 0 l 2,1,2
 183 0 183 0 161 30 c 128,-1,3
 139 60 139 60 139 130 c 2,4,-1
 139 303 l 1,5,-1
 85 276 l 2,6,7
 78 273 78 273 68 273 c 0,8,9
 52 273 52 273 44.5 284 c 128,-1,10
 37 295 37 295 37 306 c 0,11,12
 37 322 37 322 62 334 c 2,13,-1
 139 373 l 1,14,-1
 139 603 l 2,15,16
 139 643 139 643 170 643 c 128,-1,17
 201 643 201 643 201 603 c 2,18,-1
 201 404 l 1,19,-1
 232 420 l 2,20,21
 238 423 238 423 251 423 c 0,22,23
 265 423 265 423 274 414 c 128,-1,24
 283 405 283 405 283 392 c 0,25,26
 283 373 283 373 255 361 c 1,27,-1
 201 334 l 1,28,-1
 201 114 l 2,29,30
 201 84 201 84 211.5 73 c 128,-1,31
 222 62 222 62 251 62 c 0,32,33
 291 62 291 62 291 30 c 0,34,35
 291 0 291 0 251 0 c 2,0,-1
EndSplineSet
EndChar

StartChar: Nacute
Encoding: 323 323 252
Width: 652
GlyphClass: 2
Flags: W
LayerCount: 2
Fore
SplineSet
305 643 m 2,0,1
 290 626 290 626 276 626 c 0,2,3
 266 626 266 626 256 634.5 c 128,-1,4
 246 643 246 643 246 656 c 0,5,6
 246 670 246 670 256 682 c 2,7,-1
 352 797 l 2,8,9
 367 814 367 814 381 814 c 0,10,11
 392 814 392 814 401.5 805.5 c 128,-1,12
 411 797 411 797 411 783 c 128,-1,13
 411 769 411 769 401 758 c 2,14,-1
 305 643 l 2,0,1
538 -7 m 0,15,16
 521 -7 521 -7 514 0 c 1,17,-1
 146 530 l 1,18,-1
 146 29 l 2,19,20
 146 -7 146 -7 115 -7 c 128,-1,21
 84 -7 84 -7 84 31 c 2,22,-1
 84 604 l 2,23,24
 84 643 84 643 113 643 c 0,25,26
 133 643 133 643 147 622 c 2,27,-1
 506 107 l 1,28,-1
 506 602 l 2,29,30
 506 643 506 643 536 643 c 0,31,32
 568 643 568 643 568 604 c 2,33,-1
 568 31 l 2,34,35
 568 -7 568 -7 538 -7 c 0,15,16
EndSplineSet
EndChar

StartChar: nacute
Encoding: 324 324 253
Width: 647
GlyphClass: 2
Flags: W
LayerCount: 2
Fore
SplineSet
304 517 m 2,0,1
 289 500 289 500 275 500 c 0,2,3
 265 500 265 500 255 508.5 c 128,-1,4
 245 517 245 517 245 530 c 0,5,6
 245 544 245 544 255 556 c 2,7,-1
 351 671 l 2,8,9
 366 688 366 688 380 688 c 0,10,11
 391 688 391 688 400.5 679.5 c 128,-1,12
 410 671 410 671 410 657 c 128,-1,13
 410 643 410 643 400 632 c 2,14,-1
 304 517 l 2,0,1
312 399 m 2,15,16
 136 399 136 399 136 230 c 2,17,-1
 136 31 l 2,18,19
 136 -7 136 -7 105 -7 c 128,-1,20
 74 -7 74 -7 74 31 c 2,21,-1
 74 429 l 2,22,23
 74 468 74 468 103 468 c 0,24,25
 136 468 136 468 136 427 c 2,26,-1
 136 405 l 1,27,28
 196 461 196 461 312 461 c 2,29,-1
 341 461 l 2,30,31
 465 461 465 461 521.5 425 c 128,-1,32
 578 389 578 389 578 284 c 2,33,-1
 578 31 l 2,34,35
 578 -7 578 -7 548 -7 c 0,36,37
 516 -7 516 -7 516 31 c 2,38,-1
 516 282 l 2,39,40
 516 359 516 359 480.5 379 c 128,-1,41
 445 399 445 399 341 399 c 2,42,-1
 312 399 l 2,15,16
EndSplineSet
EndChar

StartChar: Ncommaaccent
Encoding: 325 325 254
Width: 652
GlyphClass: 2
Flags: W
LayerCount: 2
Fore
SplineSet
372 -51 m 1,0,-1
 332 -134 l 2,1,2
 318 -161 318 -161 302 -161 c 0,3,4
 275 -161 275 -161 275 -131 c 0,5,6
 275 -126 275 -126 278 -114 c 2,7,-1
 302 -27 l 2,8,9
 310 0 310 0 332 0 c 0,10,11
 346 0 346 0 362 -7 c 128,-1,12
 378 -14 378 -14 378 -30 c 0,13,14
 378 -41 378 -41 372 -51 c 1,0,-1
538 -7 m 0,15,16
 521 -7 521 -7 514 0 c 1,17,-1
 146 530 l 1,18,-1
 146 29 l 2,19,20
 146 -7 146 -7 115 -7 c 128,-1,21
 84 -7 84 -7 84 31 c 2,22,-1
 84 604 l 2,23,24
 84 643 84 643 113 643 c 0,25,26
 133 643 133 643 147 622 c 2,27,-1
 506 107 l 1,28,-1
 506 602 l 2,29,30
 506 643 506 643 536 643 c 0,31,32
 568 643 568 643 568 604 c 2,33,-1
 568 31 l 2,34,35
 568 -7 568 -7 538 -7 c 0,15,16
EndSplineSet
EndChar

StartChar: ncommaaccent
Encoding: 326 326 255
Width: 647
GlyphClass: 2
Flags: W
LayerCount: 2
Fore
SplineSet
372 -51 m 1,0,-1
 332 -134 l 2,1,2
 318 -161 318 -161 302 -161 c 0,3,4
 275 -161 275 -161 275 -131 c 0,5,6
 275 -126 275 -126 278 -114 c 2,7,-1
 302 -27 l 2,8,9
 310 0 310 0 332 0 c 0,10,11
 346 0 346 0 362 -7 c 128,-1,12
 378 -14 378 -14 378 -30 c 0,13,14
 378 -41 378 -41 372 -51 c 1,0,-1
312 399 m 2,15,16
 136 399 136 399 136 230 c 2,17,-1
 136 31 l 2,18,19
 136 -7 136 -7 105 -7 c 128,-1,20
 74 -7 74 -7 74 31 c 2,21,-1
 74 429 l 2,22,23
 74 468 74 468 103 468 c 0,24,25
 136 468 136 468 136 427 c 2,26,-1
 136 405 l 1,27,28
 196 461 196 461 312 461 c 2,29,-1
 341 461 l 2,30,31
 465 461 465 461 521.5 425 c 128,-1,32
 578 389 578 389 578 284 c 2,33,-1
 578 31 l 2,34,35
 578 -7 578 -7 548 -7 c 0,36,37
 516 -7 516 -7 516 31 c 2,38,-1
 516 282 l 2,39,40
 516 359 516 359 480.5 379 c 128,-1,41
 445 399 445 399 341 399 c 2,42,-1
 312 399 l 2,15,16
EndSplineSet
EndChar

StartChar: Ncaron
Encoding: 327 327 256
Width: 652
GlyphClass: 2
Flags: W
LayerCount: 2
Fore
SplineSet
339 643 m 1,0,-1
 279 643 l 1,1,-1
 173 754 l 2,2,3
 165 762 165 762 165 772 c 128,-1,4
 165 782 165 782 172 789.5 c 128,-1,5
 179 797 179 797 193 797 c 0,6,7
 206 797 206 797 228 779 c 2,8,-1
 309 712 l 1,9,-1
 390 779 l 2,10,11
 412 797 412 797 425 797 c 0,12,13
 439 797 439 797 446 789.5 c 128,-1,14
 453 782 453 782 453 772 c 128,-1,15
 453 762 453 762 445 754 c 2,16,-1
 339 643 l 1,0,-1
538 -7 m 0,17,18
 521 -7 521 -7 514 0 c 1,19,-1
 146 530 l 1,20,-1
 146 29 l 2,21,22
 146 -7 146 -7 115 -7 c 128,-1,23
 84 -7 84 -7 84 31 c 2,24,-1
 84 604 l 2,25,26
 84 643 84 643 113 643 c 0,27,28
 133 643 133 643 147 622 c 2,29,-1
 506 107 l 1,30,-1
 506 602 l 2,31,32
 506 643 506 643 536 643 c 0,33,34
 568 643 568 643 568 604 c 2,35,-1
 568 31 l 2,36,37
 568 -7 568 -7 538 -7 c 0,17,18
EndSplineSet
EndChar

StartChar: ncaron
Encoding: 328 328 257
Width: 647
GlyphClass: 2
Flags: W
LayerCount: 2
Fore
SplineSet
356 529 m 1,0,-1
 296 529 l 1,1,-1
 190 640 l 2,2,3
 182 648 182 648 182 658 c 128,-1,4
 182 668 182 668 189 675.5 c 128,-1,5
 196 683 196 683 210 683 c 0,6,7
 223 683 223 683 245 665 c 2,8,-1
 326 598 l 1,9,-1
 407 665 l 2,10,11
 429 683 429 683 442 683 c 0,12,13
 456 683 456 683 463 675.5 c 128,-1,14
 470 668 470 668 470 658 c 128,-1,15
 470 648 470 648 462 640 c 2,16,-1
 356 529 l 1,0,-1
312 399 m 2,17,18
 136 399 136 399 136 230 c 2,19,-1
 136 31 l 2,20,21
 136 -7 136 -7 105 -7 c 128,-1,22
 74 -7 74 -7 74 31 c 2,23,-1
 74 429 l 2,24,25
 74 468 74 468 103 468 c 0,26,27
 136 468 136 468 136 427 c 2,28,-1
 136 405 l 1,29,30
 196 461 196 461 312 461 c 2,31,-1
 341 461 l 2,32,33
 465 461 465 461 521.5 425 c 128,-1,34
 578 389 578 389 578 284 c 2,35,-1
 578 31 l 2,36,37
 578 -7 578 -7 548 -7 c 0,38,39
 516 -7 516 -7 516 31 c 2,40,-1
 516 282 l 2,41,42
 516 359 516 359 480.5 379 c 128,-1,43
 445 399 445 399 341 399 c 2,44,-1
 312 399 l 2,17,18
EndSplineSet
EndChar

StartChar: Eng
Encoding: 330 330 258
Width: 653
GlyphClass: 2
Flags: W
LayerCount: 2
Fore
SplineSet
506 107 m 1,0,-1
 506 602 l 2,1,2
 506 643 506 643 536 643 c 0,3,4
 568 643 568 643 568 604 c 2,5,-1
 568 0 l 2,6,7
 568 -55 568 -55 553 -91 c 128,-1,8
 538 -127 538 -127 507 -145 c 128,-1,9
 476 -163 476 -163 440 -169 c 128,-1,10
 404 -175 404 -175 350 -175 c 0,11,12
 309 -175 309 -175 309 -143 c 0,13,14
 309 -113 309 -113 350 -113 c 0,15,16
 441 -113 441 -113 473.5 -93 c 128,-1,17
 506 -73 506 -73 506 0 c 2,18,-1
 506 12 l 1,19,-1
 146 530 l 1,20,-1
 146 29 l 2,21,22
 146 -7 146 -7 115 -7 c 128,-1,23
 84 -7 84 -7 84 31 c 2,24,-1
 84 604 l 2,25,26
 84 643 84 643 113 643 c 0,27,28
 133 643 133 643 147 622 c 2,29,-1
 506 107 l 1,0,-1
EndSplineSet
EndChar

StartChar: eng
Encoding: 331 331 259
Width: 649
GlyphClass: 2
Flags: W
LayerCount: 2
Fore
SplineSet
312 399 m 2,0,1
 136 399 136 399 136 230 c 2,2,-1
 136 31 l 2,3,4
 136 -7 136 -7 105 -7 c 128,-1,5
 74 -7 74 -7 74 31 c 2,6,-1
 74 429 l 2,7,8
 74 468 74 468 103 468 c 0,9,10
 136 468 136 468 136 427 c 2,11,-1
 136 405 l 1,12,13
 196 461 196 461 312 461 c 2,14,-1
 341 461 l 2,15,16
 465 461 465 461 521.5 425 c 128,-1,17
 578 389 578 389 578 284 c 2,18,-1
 578 0 l 2,19,20
 578 -55 578 -55 563 -91 c 128,-1,21
 548 -127 548 -127 517 -145 c 128,-1,22
 486 -163 486 -163 450 -169 c 128,-1,23
 414 -175 414 -175 360 -175 c 0,24,25
 319 -175 319 -175 319 -143 c 0,26,27
 319 -113 319 -113 360 -113 c 0,28,29
 451 -113 451 -113 483.5 -93 c 128,-1,30
 516 -73 516 -73 516 0 c 2,31,-1
 516 282 l 2,32,33
 516 359 516 359 480.5 379 c 128,-1,34
 445 399 445 399 341 399 c 2,35,-1
 312 399 l 2,0,1
EndSplineSet
EndChar

StartChar: Omacron
Encoding: 332 332 260
Width: 614
GlyphClass: 2
Flags: W
LayerCount: 2
Fore
SplineSet
183 769 m 2,0,-1
 428 769 l 2,1,2
 467 769 467 769 467 736 c 0,3,4
 467 722 467 722 455.5 714 c 128,-1,5
 444 706 444 706 428 706 c 2,6,-1
 183 706 l 2,7,8
 147 706 147 706 147 738 c 0,9,10
 147 750 147 750 155.5 759.5 c 128,-1,11
 164 769 164 769 183 769 c 2,0,-1
307 -9 m 0,12,13
 199 -9 199 -9 132 54.5 c 128,-1,14
 65 118 65 118 65 229 c 2,15,-1
 65 407 l 2,16,17
 65 518 65 518 132 581.5 c 128,-1,18
 199 645 199 645 307 645 c 0,19,20
 414 645 414 645 481.5 581.5 c 128,-1,21
 549 518 549 518 549 407 c 2,22,-1
 549 229 l 2,23,24
 549 118 549 118 481.5 54.5 c 128,-1,25
 414 -9 414 -9 307 -9 c 0,12,13
307 583 m 128,-1,27
 220 583 220 583 173.5 536 c 128,-1,28
 127 489 127 489 127 405 c 2,29,-1
 127 231 l 2,30,31
 127 146 127 146 173 99.5 c 128,-1,32
 219 53 219 53 307 53 c 128,-1,33
 395 53 395 53 441 99.5 c 128,-1,34
 487 146 487 146 487 231 c 2,35,-1
 487 405 l 2,36,37
 487 489 487 489 440.5 536 c 128,-1,26
 394 583 394 583 307 583 c 128,-1,27
EndSplineSet
EndChar

StartChar: omacron
Encoding: 333 333 261
Width: 628
GlyphClass: 2
Flags: W
LayerCount: 2
Fore
SplineSet
190 585 m 2,0,-1
 435 585 l 2,1,2
 474 585 474 585 474 552 c 0,3,4
 474 538 474 538 462.5 530 c 128,-1,5
 451 522 451 522 435 522 c 2,6,-1
 190 522 l 2,7,8
 154 522 154 522 154 554 c 0,9,10
 154 566 154 566 162.5 575.5 c 128,-1,11
 171 585 171 585 190 585 c 2,0,-1
329 0 m 2,12,-1
 300 0 l 2,13,14
 175 0 175 0 118.5 36 c 128,-1,15
 62 72 62 72 62 177 c 2,16,-1
 62 284 l 2,17,18
 62 389 62 389 118.5 425 c 128,-1,19
 175 461 175 461 300 461 c 2,20,-1
 329 461 l 2,21,22
 453 461 453 461 509.5 425 c 128,-1,23
 566 389 566 389 566 284 c 2,24,-1
 566 177 l 2,25,26
 566 72 566 72 509.5 36 c 128,-1,27
 453 0 453 0 329 0 c 2,12,-1
300 62 m 2,28,-1
 329 62 l 2,29,30
 433 62 433 62 468.5 82 c 128,-1,31
 504 102 504 102 504 179 c 2,32,-1
 504 282 l 2,33,34
 504 359 504 359 468.5 379 c 128,-1,35
 433 399 433 399 329 399 c 2,36,-1
 300 399 l 2,37,38
 194 399 194 399 159 378.5 c 128,-1,39
 124 358 124 358 124 282 c 2,40,-1
 124 179 l 2,41,42
 124 103 124 103 159 82.5 c 128,-1,43
 194 62 194 62 300 62 c 2,28,-1
EndSplineSet
EndChar

